<svg xmlns="http://www.w3.org/2000/svg" xmlns:xlink="http://www.w3.org/1999/xlink" viewBox="0 0 255.96 237.73"><defs><style>.cls-1{isolation:isolate;}.cls-2{fill:#b5dfea;}.cls-3{fill:#90cedd;}.cls-13,.cls-3{opacity:0.55;}.cls-4{fill:#d7f0f9;}.cls-5{fill:#0582c1;}.cls-6{fill:#fff;}.cls-7{fill:#79c9e8;}.cls-8{fill:#ffbf4d;}.cls-9{fill:#f98d2b;opacity:0.29;mix-blend-mode:multiply;}.cls-10{fill:#f77e2d;}.cls-11{fill:#49b4d6;}.cls-12{fill:#00668e;}.cls-13{mix-blend-mode:overlay;fill:url(#linear-gradient);}.cls-14{font-size:27.37px;font-family:Bariol-Regular, Bariol;}.cls-14,.cls-16{fill:#414042;}.cls-15{letter-spacing:-0.01em;}.cls-17{font-size:47.64px;fill:#5eb2cc;font-family:Gilroy-ExtraBold, Gilroy;font-weight:700;}.cls-18{letter-spacing:-0.03em;}</style><linearGradient id="linear-gradient" x1="126.7" y1="170.36" x2="126.7" y2="151.48" gradientUnits="userSpaceOnUse"><stop offset="0" stop-color="#fff"/><stop offset="0.12" stop-color="#fff" stop-opacity="0.82"/><stop offset="0.3" stop-color="#fff" stop-opacity="0.58"/><stop offset="0.47" stop-color="#fff" stop-opacity="0.37"/><stop offset="0.64" stop-color="#fff" stop-opacity="0.21"/><stop offset="0.78" stop-color="#fff" stop-opacity="0.1"/><stop offset="0.91" stop-color="#fff" stop-opacity="0.02"/><stop offset="1" stop-color="#fff" stop-opacity="0"/></linearGradient></defs><title>403_</title><g class="cls-1"><g id="Layer_2" data-name="Layer 2"><g id="Layer_1-2" data-name="Layer 1"><path class="cls-2" d="M248.32,195.63a7.53,7.53,0,0,0,7.54-7.42c.32-20.53,2-50.82-36.69-59.19-31.29-6.78-12.74-62.39-97-58.79C61.67,72.8,77.74,123.79,30.71,128-.59,130.86-.86,170.44.34,188.58a7.55,7.55,0,0,0,7.53,7Z"/><path class="cls-3" d="M219.17,129c-31.29-6.78-12.74-62.39-97-58.79-14.39.61-24.44,4-32,8.77,2.56-.33,5.28-.57,8.18-.69,84.26-3.59,65.71,52,97,58.79,38.26,8.29,37,38,36.71,58.53h16.31a7.53,7.53,0,0,0,7.54-7.42C256.18,167.68,257.83,137.39,219.17,129Z"/><rect class="cls-4" x="88.17" y="34.19" width="79.11" height="115.02" rx="7.71" ry="7.71" transform="translate(34.37 218.22) rotate(-89.26)"/><path class="cls-5" d="M185.56,66.91l.08-6.31A7.7,7.7,0,0,0,178,52.8l-99.6-1.3a7.71,7.71,0,0,0-7.8,7.61l-.08,6.31Z"/><path class="cls-6" d="M81.71,60a2.08,2.08,0,1,1-2-2.1A2.08,2.08,0,0,1,81.71,60Z"/><path class="cls-7" d="M91.7,60.08a2.08,2.08,0,1,1-2-2.09A2.08,2.08,0,0,1,91.7,60.08Z"/><path class="cls-6" d="M102.05,60.22a2.07,2.07,0,1,1-2-2.1A2.06,2.06,0,0,1,102.05,60.22Z"/><rect class="cls-8" x="68.44" y="140.07" width="115.29" height="23.44"/><rect class="cls-9" x="68.44" y="140.07" width="115.29" height="5.69"/><polygon class="cls-10" points="78.46 140.07 88.99 140.07 86.17 145.76 75.64 145.76 78.46 140.07"/><polygon class="cls-10" points="102.17 140.07 112.69 140.07 109.87 145.76 99.35 145.76 102.17 140.07"/><polygon class="cls-10" points="125.88 140.07 136.4 140.07 133.58 145.76 123.06 145.76 125.88 140.07"/><polygon class="cls-10" points="149.58 140.07 160.1 140.07 157.28 145.76 146.76 145.76 149.58 140.07"/><polygon class="cls-10" points="183.72 140.07 183.72 140.23 180.98 145.76 170.47 145.76 173.29 140.07 183.72 140.07"/><rect class="cls-7" x="82.79" y="163.51" width="8.13" height="32.05"/><rect class="cls-11" x="89.07" y="163.51" width="1.85" height="32.05"/><rect class="cls-7" x="161.88" y="163.51" width="8.13" height="32.05"/><rect class="cls-11" x="167.6" y="163.51" width="2.4" height="32.05"/><rect class="cls-11" x="82.79" y="163.48" width="8.13" height="4.04"/><rect class="cls-11" x="161.88" y="163.48" width="8.13" height="4.04"/><rect class="cls-7" x="82.79" y="136.41" width="8.13" height="3.64"/><rect class="cls-11" x="89.07" y="136.41" width="1.85" height="3.64"/><rect class="cls-7" x="161.88" y="136.41" width="8.13" height="3.64"/><rect class="cls-11" x="167.6" y="136.41" width="2.4" height="3.64"/><rect class="cls-11" x="82.79" y="139.59" width="8.13" height="0.46"/><rect class="cls-11" x="161.88" y="139.59" width="8.13" height="0.46"/><polygon class="cls-5" points="88.99 140.07 77.36 163.51 68.44 163.51 68.44 160.27 78.46 140.07 88.99 140.07"/><polygon class="cls-5" points="102.17 140.07 90.54 163.51 101.07 163.51 112.69 140.07 102.17 140.07"/><polygon class="cls-5" points="136.4 140.07 124.77 163.51 114.25 163.51 125.88 140.07 136.4 140.07"/><polygon class="cls-5" points="160.1 140.07 148.48 163.51 137.96 163.51 149.58 140.07 160.1 140.07"/><polygon class="cls-5" points="173.29 140.07 161.66 163.51 172.18 163.51 183.72 140.23 173.29 140.07"/><polygon class="cls-12" points="88.99 140.07 86.17 145.76 75.64 145.76 78.46 140.07 88.99 140.07"/><polygon class="cls-12" points="112.69 140.07 109.87 145.76 99.35 145.76 102.17 140.07 112.69 140.07"/><polygon class="cls-12" points="136.4 140.07 133.58 145.76 123.06 145.76 125.88 140.07 136.4 140.07"/><polygon class="cls-12" points="160.1 140.07 157.28 145.76 146.76 145.76 149.58 140.07 160.1 140.07"/><polygon class="cls-12" points="183.72 140.23 180.98 145.76 170.47 145.76 173.29 140.07 183.72 140.23"/><rect class="cls-13" x="71.65" y="150.21" width="110.09" height="11.72"/><circle class="cls-8" cx="86.64" cy="131.32" r="7.25" transform="matrix(0.99, -0.16, 0.16, 0.99, -19.97, 15.62)"/><path class="cls-5" d="M89.93,131.32a3.29,3.29,0,1,0-3.29,3.28A3.28,3.28,0,0,0,89.93,131.32Z"/><circle class="cls-8" cx="165.89" cy="131.32" r="7.25" transform="translate(-18.94 28.36) rotate(-9.24)"/><path class="cls-5" d="M169.18,131.32a3.29,3.29,0,1,0-3.29,3.28A3.28,3.28,0,0,0,169.18,131.32Z"/><path class="cls-8" d="M219.37,193.68H191.66l4.23-10.27h0l1.71-4.15.47-1.13.77-1.85.15-.38,1.71-4.15L201,171l3-7.34a1.61,1.61,0,0,1,3,0l3,7.34.31.75,1.71,4.15.15.38.77,1.85.47,1.13,1.7,4.15h0Z"/><polygon class="cls-9" points="193.47 189.28 191.66 193.68 219.38 193.68 217.56 189.28 193.47 189.28"/><rect class="cls-7" x="189.44" y="191.05" width="31.75" height="4.49"/><rect class="cls-11" x="214.33" y="191.05" width="6.86" height="4.49"/><path class="cls-9" d="M218.28,191.05h-3.92l-3.15-7.64h0l-1.7-4.14-.47-1.14-.77-1.85-.15-.38-1.71-4.15-.31-.75-2.54-6.18.47-1.16a1.61,1.61,0,0,1,3,0l3,7.34.31.75,1.71,4.15.15.38.77,1.85.47,1.14,1.7,4.14h0Z"/><polygon class="cls-5" points="212.04 175.89 198.99 175.89 200.7 171.74 210.33 171.74 212.04 175.89"/><polygon class="cls-5" points="215.13 183.4 215.13 183.41 195.9 183.41 195.9 183.4 197.6 179.25 213.43 179.25 215.13 183.4"/><polygon class="cls-12" points="212.04 175.89 208.12 175.89 206.41 171.74 210.33 171.74 212.04 175.89"/><polygon class="cls-12" points="215.13 183.4 215.13 183.41 211.21 183.41 211.21 183.4 209.51 179.25 213.43 179.25 215.13 183.4"/><path class="cls-8" d="M64.71,193.68H37l4.24-10.27h0l1.7-4.15.47-1.13.77-1.85.16-.38,1.7-4.15.31-.75,3-7.34a1.6,1.6,0,0,1,3,0l3,7.34.31.75,1.71,4.15.16.38.76,1.85.47,1.13,1.71,4.15h0Z"/><polygon class="cls-9" points="38.81 189.28 36.99 193.68 64.71 193.68 62.89 189.28 38.81 189.28"/><rect class="cls-7" x="34.77" y="191.05" width="31.75" height="4.49"/><rect class="cls-11" x="59.66" y="191.05" width="6.86" height="4.49"/><path class="cls-9" d="M63.62,191.05H59.7l-3.15-7.64h0l-1.71-4.14-.47-1.14-.76-1.85-.16-.38-1.71-4.15-.31-.75-2.54-6.18.48-1.16a1.6,1.6,0,0,1,3,0l3,7.34.31.75,1.71,4.15.16.38.76,1.85.47,1.14,1.71,4.14h0Z"/><polygon class="cls-5" points="57.37 175.89 44.33 175.89 46.03 171.74 55.66 171.74 57.37 175.89"/><polygon class="cls-5" points="60.47 183.4 60.47 183.41 41.23 183.41 41.23 183.4 42.93 179.25 58.76 179.25 60.47 183.4"/><polygon class="cls-12" points="57.37 175.89 53.45 175.89 51.74 171.74 55.66 171.74 57.37 175.89"/><polygon class="cls-12" points="60.47 183.4 60.47 183.41 56.55 183.41 56.55 183.4 54.84 179.25 58.76 179.25 60.47 183.4"/><path class="cls-4" d="M40,92.9a4.16,4.16,0,0,0,4.15-3.56A8.24,8.24,0,0,0,36,80a5.15,5.15,0,0,0-.56,0,8.79,8.79,0,0,0-17.54.74c0,.22,0,.43,0,.64a8.71,8.71,0,0,0-4.69-1.1,8.82,8.82,0,0,0-8.35,8.14.34.34,0,0,1,0,.1A4.19,4.19,0,0,0,9,92.9Z"/><path class="cls-4" d="M237.43,99.4c6.54,0,6.91-9.85.37-10.17h-.54a10.86,10.86,0,0,0-3.34.53,11.22,11.22,0,0,0-22.2.35,10.28,10.28,0,0,0-4.47-1,10.42,10.42,0,0,0-2.58.32c-5.72,1.48-4.52,10,1.38,10Z"/><path class="cls-4" d="M158.88,50.89c6.54,0,6.9-9.84.37-10.16h-.54a10.81,10.81,0,0,0-3.34.52,11.22,11.22,0,0,0-22.2.36,10.24,10.24,0,0,0-4.46-1,10.5,10.5,0,0,0-2.59.32c-5.72,1.47-4.52,10,1.39,10Z"/><path class="cls-4" d="M218.34,232.94c3.57,0,3.76-5.37.2-5.55h-.3a6.13,6.13,0,0,0-1.82.28,6.12,6.12,0,0,0-12.11.19,5.7,5.7,0,0,0-2.44-.55,5.45,5.45,0,0,0-1.41.18c-3.12.8-2.47,5.45.75,5.45Z"/><path class="cls-4" d="M49.44,228.35c2.6-.11,2.55-4.38,0-4.39h-.22a3.84,3.84,0,0,0-1.31.29,4.42,4.42,0,0,0-8.81.55,3.89,3.89,0,0,0-1.8-.35,3.54,3.54,0,0,0-1,.19c-2.24.74-1.6,4.39.75,4.28Z"/><text class="cls-14" transform="translate(60.81 230.83)"><tspan class="cls-15">F</tspan><tspan x="13.9" y="0">ORBIDDEN</tspan></text><path class="cls-16" d="M95.66,4.57A6.46,6.46,0,0,0,90.41,2a5.3,5.3,0,0,0-3.55,1,3.25,3.25,0,0,0-1.15,2.53A2.9,2.9,0,0,0,87,8,10,10,0,0,0,90,9.48c1.2.38,2.4.8,3.6,1.27a7.77,7.77,0,0,1,3.06,2.1A5.19,5.19,0,0,1,98,16.43a5.64,5.64,0,0,1-2,4.67,9,9,0,0,1-5.77,1.62,9.28,9.28,0,0,1-4.66-1.15,7.13,7.13,0,0,1-2.9-2.83,1.45,1.45,0,0,1-.16-.59,1.05,1.05,0,0,1,.29-.73,1.06,1.06,0,0,1,1.66.21,6.27,6.27,0,0,0,5.77,3.08,6.79,6.79,0,0,0,4.13-1.08,3.76,3.76,0,0,0,1.44-3.2,3.31,3.31,0,0,0-.91-2.36,5.4,5.4,0,0,0-2.27-1.44l-2.94-1c-1.06-.38-2-.76-3-1.15a5.35,5.35,0,0,1-2.27-1.85,5.05,5.05,0,0,1-.91-3,5.08,5.08,0,0,1,1.77-4A7.46,7.46,0,0,1,90.41,0,9.2,9.2,0,0,1,94.5.89a7.12,7.12,0,0,1,2.85,2.45,1.07,1.07,0,0,1,.19.61,1,1,0,0,1-1,1A1,1,0,0,1,95.66,4.57Z"/><path class="cls-16" d="M118.39,19.85a9.65,9.65,0,0,1-7.46,2.87,9.62,9.62,0,0,1-7.45-2.87c-1.78-1.91-2.66-4.73-2.66-8.47s.88-6.6,2.64-8.51A9.65,9.65,0,0,1,110.93,0a9.65,9.65,0,0,1,7.47,2.87Q121,5.74,121,11.38T118.39,19.85ZM116.75,4.34a8.43,8.43,0,0,0-11.64,0c-1.35,1.56-2,3.9-2,7s.67,5.44,2,7a8.43,8.43,0,0,0,11.64,0q2-2.34,2-7C118.78,8.24,118.1,5.9,116.75,4.34Z"/><path class="cls-16" d="M127.27,12.84v8.59a1.11,1.11,0,0,1-2.21,0V1.56a1,1,0,0,1,.33-.78,1,1,0,0,1,.78-.33h6.45a6,6,0,0,1,4.44,1.79,6.06,6.06,0,0,1,1.75,4.41A6.16,6.16,0,0,1,137.2,11,5.89,5.89,0,0,1,133,12.84l5.93,7.91a1,1,0,0,1,.22.68,1,1,0,0,1-.32.77,1.07,1.07,0,0,1-.78.33,1.11,1.11,0,0,1-.94-.52l-6.58-9.17Zm0-10.38v8.37h5.41a3.64,3.64,0,0,0,2.79-1.2,4.27,4.27,0,0,0,1.1-3,4.16,4.16,0,0,0-1.12-3,3.76,3.76,0,0,0-2.87-1.19Z"/><path class="cls-16" d="M145,12.84v8.59a1.11,1.11,0,0,1-2.21,0V1.56a1,1,0,0,1,.33-.78,1,1,0,0,1,.77-.33h6.45a6,6,0,0,1,4.45,1.79,6.06,6.06,0,0,1,1.75,4.41A6.16,6.16,0,0,1,154.9,11a5.89,5.89,0,0,1-4.2,1.88l5.94,7.91a1,1,0,0,1,.22.68,1.11,1.11,0,0,1-1.1,1.1,1.11,1.11,0,0,1-.94-.52l-6.58-9.17Zm0-10.38v8.37h5.41a3.64,3.64,0,0,0,2.79-1.2,4.27,4.27,0,0,0,1.1-3,4.16,4.16,0,0,0-1.12-3,3.76,3.76,0,0,0-2.87-1.19Z"/><path class="cls-16" d="M167,22.2a1.1,1.1,0,0,1-1.88-.77V12.12L158.64,1.88a1.15,1.15,0,0,1-.16-.58,1,1,0,0,1,.33-.78,1,1,0,0,1,.77-.33,1,1,0,0,1,.94.52l5.74,9.21L172,.71a1,1,0,0,1,.94-.52,1.07,1.07,0,0,1,.78.33,1.06,1.06,0,0,1,.32.78,1.06,1.06,0,0,1-.16.58l-6.52,10.24v9.31A1.06,1.06,0,0,1,167,22.2Z"/><text class="cls-17" transform="translate(86.52 113.32)">4<tspan class="cls-18" x="27.63" y="0">0</tspan><tspan x="56.21" y="0">3</tspan></text></g></g></g></svg>