<svg xmlns="http://www.w3.org/2000/svg" xmlns:xlink="http://www.w3.org/1999/xlink" viewBox="0 0 255.96 232.94"><defs><style>.cls-1{isolation:isolate;}.cls-2{fill:#b5dfea;}.cls-3{fill:#90cedd;}.cls-20,.cls-3{opacity:0.55;}.cls-4{fill:#d7f0f9;}.cls-5{font-size:45.46px;fill:#5eb2cc;font-family:Gilroy-ExtraBold, Gilroy;font-weight:700;}.cls-6{fill:#0582c1;}.cls-7{fill:#fff;}.cls-8{fill:#79c9e8;}.cls-9{fill:#00668e;}.cls-10{fill:#05556d;}.cls-11{fill:#f98d3d;}.cls-12{fill:#ed701b;}.cls-13{fill:none;}.cls-14{fill:#ffbf4d;}.cls-15{fill:#efaa3a;}.cls-16{fill:#f98d2b;opacity:0.29;mix-blend-mode:multiply;}.cls-17{fill:#49b4d6;}.cls-18{fill:#ff9f50;}.cls-19{fill:#f77e2d;}.cls-20{mix-blend-mode:overlay;fill:url(#linear-gradient);}.cls-21{font-size:22.45px;font-family:Bariol-Regular, Bariol;}.cls-21,.cls-27{fill:#414042;}.cls-22{letter-spacing:-0.07em;}.cls-23{letter-spacing:-0.03em;}.cls-24{letter-spacing:0em;}.cls-25{letter-spacing:-0.03em;}.cls-26{letter-spacing:-0.01em;}</style><linearGradient id="linear-gradient" x1="140.67" y1="176.54" x2="140.67" y2="162.28" gradientUnits="userSpaceOnUse"><stop offset="0" stop-color="#fff"/><stop offset="0.12" stop-color="#fff" stop-opacity="0.82"/><stop offset="0.3" stop-color="#fff" stop-opacity="0.58"/><stop offset="0.47" stop-color="#fff" stop-opacity="0.37"/><stop offset="0.64" stop-color="#fff" stop-opacity="0.21"/><stop offset="0.78" stop-color="#fff" stop-opacity="0.1"/><stop offset="0.91" stop-color="#fff" stop-opacity="0.02"/><stop offset="1" stop-color="#fff" stop-opacity="0"/></linearGradient></defs><title>404_</title><g class="cls-1"><g id="Layer_2" data-name="Layer 2"><g id="Layer_1-2" data-name="Layer 1"><path class="cls-2" d="M248.32,195.63a7.53,7.53,0,0,0,7.54-7.42c.32-20.53,2-50.82-36.69-59.19-31.29-6.78-12.74-62.39-97-58.79C61.67,72.8,77.74,123.79,30.71,128-.59,130.86-.86,170.44.34,188.58a7.55,7.55,0,0,0,7.53,7Z"/><path class="cls-3" d="M219.17,129c-31.29-6.78-12.74-62.39-97-58.79-14.39.61-24.44,4-32,8.77,2.56-.33,5.28-.57,8.18-.69,84.26-3.59,65.71,52,97,58.79,38.26,8.29,37,38,36.71,58.53h16.31a7.53,7.53,0,0,0,7.54-7.42C256.18,167.68,257.83,137.39,219.17,129Z"/><rect class="cls-4" x="88.17" y="43.86" width="79.11" height="115.02" rx="7.71" ry="7.71" transform="translate(12.23 216.48) rotate(-83.34)"/><text class="cls-5" transform="translate(83.15 115.36) rotate(7.04)">404</text><path class="cls-6" d="M187.81,82.67l.73-6.27a7.72,7.72,0,0,0-6.77-8.55L82.84,56.31a7.7,7.7,0,0,0-8.55,6.76l-.73,6.26Z"/><path class="cls-7" d="M85.22,65.05a2.07,2.07,0,1,1-1.82-2.3A2.07,2.07,0,0,1,85.22,65.05Z"/><path class="cls-8" d="M95.15,66.21a2.07,2.07,0,1,1-1.82-2.3A2.08,2.08,0,0,1,95.15,66.21Z"/><path class="cls-7" d="M105.43,67.41a2.07,2.07,0,1,1-1.81-2.3A2.07,2.07,0,0,1,105.43,67.41Z"/><path class="cls-9" d="M65.63,139.47a53.49,53.49,0,0,0-1.11,12c.2,5.43-.45,41.08-.45,41.08h4.36s6.2-27.92,6.43-30.13,3.35-24.26,3.35-24.26Z"/><path class="cls-6" d="M68.53,137.84a93.71,93.71,0,0,0,2.7,13c1.71,5.42,10.08,41.66,10.08,41.66h4.36s-.8-27.92-1.1-30.13-2.51-24.26-2.51-24.26Z"/><path class="cls-6" d="M81.67,192.52v3H90a.47.47,0,0,0,.26-.87,13.08,13.08,0,0,0-5-2.17Z"/><path class="cls-6" d="M64.3,192.52v3h8.28a.47.47,0,0,0,.27-.87,13.15,13.15,0,0,0-5-2.17Z"/><path class="cls-9" d="M79.25,102.41s2.85-4.33-.42-4.75c-2.51-.33-3.55.42-3.55.42s-2.89-.32-4.48,1.06c-1.08.94-5.06,8.23,1.38,10.87s5.07-4.12,5.07-4.12Z"/><path class="cls-10" d="M78.83,97.66c-2.51-.33-3.55.42-3.55.42s-2.89-.32-4.48,1.06c-1.08.94-5.06,8.23,1.38,10.87,3,1.24,4.33.41,4.85-.83-6.11,1.72-6.77-5.64-5.76-7.74s3.48-1.15,3.48-1.15c1-2.42,4.09-2.15,5.38-2A1.72,1.72,0,0,0,78.83,97.66Z"/><path class="cls-11" d="M75.24,104.52s-.85-.84-1.48,0-.21,2.75.85,2.85c0,0-.32,2.75-2.43,2.64v2.22h5v-1.69s3.06-1.27,3-3.8a14,14,0,0,0-.85-4.33A6.9,6.9,0,0,1,75.24,104.52Z"/><path class="cls-12" d="M76,111.25c.49.2.4.51.43,1h.71v-1.69a4,4,0,0,1-3-.62A7.64,7.64,0,0,0,76,111.25Z"/><path class="cls-11" d="M77,100.48s-2.57-1-2.87-.26c-.2.51.31.94,1,1.38l-.6.1a.16.16,0,0,0-.08.28,3.44,3.44,0,0,0,1.61.26Z"/><polygon class="cls-13" points="61.71 128.38 65.16 139.49 65.1 138.92 65.16 139.49 66.32 123.31 61.71 128.38"/><path class="cls-14" d="M95.38,106.92c-4.9-3.63-18.3-6.54-18.3-6.54l-1.1,2s12.16,4.72,11.36,5.42c-.47.41-6.42,3.14-8.43,4a3.11,3.11,0,0,1-1.38.29l-6.16,0a9.71,9.71,0,0,0-7.94,3.49A141,141,0,0,0,55,127.52l8.94,13.16,1,1.45v.11l.88.08c2.88.27,12.1,1,17,0l.14,0-.23-21.58a84.24,84.24,0,0,0,12.84-12.42A.91.91,0,0,0,95.38,106.92Zm-30,29.44-.87-1.91-2.78-6.07,4.61-5.17-.82,11.34Z"/><polygon class="cls-15" points="64.49 134.45 65.36 136.36 64.94 142.11 64.93 142.13 63.94 140.68 64.49 134.45"/><path class="cls-16" d="M80.61,119.89c-.83.61-.62,5.94-.83,9.28a119.87,119.87,0,0,0-.43,13.54,24.27,24.27,0,0,0,3.43-.43l.14,0-.23-21.58a84.24,84.24,0,0,0,12.84-12.42.91.91,0,0,0-.15-1.33A108.9,108.9,0,0,1,80.61,119.89Z"/><path class="cls-9" d="M84.57,162.4c-.22-1.59-1.43-13.51-2.09-20l-3.13.34s4.57,37.54,4.87,49.82h1.45S84.87,164.61,84.57,162.4Z"/><path class="cls-6" d="M64.5,105.14l-.94-1.7A6.41,6.41,0,1,0,62.45,105Z"/><path class="cls-7" d="M54.59,99.88h.25v.89c0,.27.08.39.27.39s.25-.07.39-.24v-1h.25v1.46h-.21l0-.23h0a.6.6,0,0,1-.48.26c-.31,0-.44-.19-.44-.57Z"/><path class="cls-7" d="M56.78,101.46V102h-.24V99.88h.2l0,.17h0a.78.78,0,0,1,.47-.21c.37,0,.57.3.57.75s-.29.78-.63.78a.68.68,0,0,1-.4-.16Zm.36-.29c.24,0,.42-.22.42-.58s-.11-.54-.39-.54a.63.63,0,0,0-.39.2V101A.64.64,0,0,0,57.14,101.17Z"/><path class="cls-7" d="M58.46,101a.68.68,0,0,0,.43.17c.19,0,.29-.1.29-.23s-.17-.21-.33-.27-.44-.18-.44-.42.19-.42.5-.42a.76.76,0,0,1,.46.17l-.12.16a.53.53,0,0,0-.33-.13c-.19,0-.27.1-.27.21s.16.19.32.25.45.16.45.44-.19.43-.54.43a.85.85,0,0,1-.54-.2Z"/><path class="cls-7" d="M60.19,101a.17.17,0,0,1,.17.19.17.17,0,0,1-.17.18.17.17,0,0,1-.18-.18A.18.18,0,0,1,60.19,101Z"/><path class="cls-7" d="M61.23,101a.18.18,0,0,1,.18.19.18.18,0,0,1-.36,0A.18.18,0,0,1,61.23,101Z"/><path class="cls-8" d="M40,182s-1.34-1.25-.44-6,3.19-9.32,2.07-14.48-9.91-18.16-9.94-19S29,157.57,33.52,163.88s5.09,8.48,4.89,11.8.05,6,.55,6.75Z"/><path class="cls-17" d="M39.17,172.4c-.53,2.12-.85,7.44,0,8.71.08.12.19,0,.33-.17a10.94,10.94,0,0,1,.06-5c.9-4.75,3.19-9.32,2.07-14.48s-9.91-18.16-9.94-19c0,0,1.32,10.84,5.78,18.3A14.21,14.21,0,0,1,39.17,172.4Z"/><path class="cls-8" d="M41.61,181.63s-2.59-6.45,1.79-12S54.78,156.85,54.92,154c0,0,1.79,13.48-3.9,17.3s-9.69,4.43-8.71,10.3Z"/><path class="cls-17" d="M47.75,168.6c-6.35,4.62-6.87,10-5.88,12.42a.63.63,0,0,0,.41.37c-.85-5.67,3.11-6.31,8.74-10.08s3.9-17.3,3.9-17.3S54.11,164,47.75,168.6Z"/><path class="cls-8" d="M37.36,181.78a22.55,22.55,0,0,0,.39-7.1c-.44-3.69-4.29-5.76-7.89-9.66-1.85-2-2.4-12.59-1.25-13.58,0,0-6.35,7.7-5.37,13.34s11.34,9.3,12.3,12a15.41,15.41,0,0,1,.88,5Z"/><path class="cls-17" d="M26.46,154.47c-2.1,5.69.05,12.57,7,16.85,5.13,3.15,3.5,9.7,3.5,9.7l.83-2.59a19.9,19.9,0,0,0-.07-3.75c-.44-3.69-4.29-5.76-7.89-9.66-1.79-1.93-2.36-11.85-1.37-13.43A34,34,0,0,0,26.46,154.47Z"/><path class="cls-17" d="M28.49,151.59l.12-.15A1,1,0,0,0,28.49,151.59Z"/><path class="cls-8" d="M42.94,181.35s1.48-5.52,5.17-6.27,7.91-6.18,8.13-7.25C56.24,167.83,55.62,178.09,42.94,181.35Z"/><path class="cls-17" d="M47.9,176.91a6.09,6.09,0,0,0-3.53,4c11.29-3.63,11.87-13.1,11.87-13.1a3.9,3.9,0,0,1-.57,1.08C54.56,170.85,51.88,174.92,47.9,176.91Z"/><path class="cls-14" d="M50.9,179.32H31.65l2.28,14.38a2.25,2.25,0,0,0,2.22,1.89H46.4a2.25,2.25,0,0,0,2.22-1.89Z"/><polygon class="cls-18" points="50.52 181.7 50.9 179.32 31.65 179.32 32.02 181.7 50.52 181.7"/><path class="cls-18" d="M46.24,179.32,44,193.7a2.24,2.24,0,0,1-2.22,1.89H46.4a2.25,2.25,0,0,0,2.22-1.89l2.28-14.38Z"/><rect class="cls-14" x="96.69" y="153.67" width="87.03" height="17.7"/><rect class="cls-16" x="96.69" y="153.67" width="87.03" height="4.3"/><polygon class="cls-19" points="104.26 153.67 112.2 153.67 110.07 157.96 102.13 157.96 104.26 153.67"/><polygon class="cls-19" points="122.16 153.67 130.1 153.67 127.97 157.96 120.03 157.96 122.16 153.67"/><polygon class="cls-19" points="140.05 153.67 148 153.67 145.87 157.96 137.92 157.96 140.05 153.67"/><polygon class="cls-19" points="157.95 153.67 165.89 153.67 163.76 157.96 155.82 157.96 157.95 153.67"/><polygon class="cls-19" points="183.72 153.67 183.72 153.79 181.65 157.96 173.72 157.96 175.85 153.67 183.72 153.67"/><rect class="cls-8" x="107.53" y="171.36" width="6.14" height="24.2"/><rect class="cls-17" x="112.27" y="171.36" width="1.39" height="24.2"/><rect class="cls-8" x="167.23" y="171.36" width="6.14" height="24.2"/><rect class="cls-17" x="171.55" y="171.36" width="1.81" height="24.2"/><rect class="cls-17" x="107.53" y="171.34" width="6.14" height="3.05"/><rect class="cls-17" x="167.23" y="171.34" width="6.14" height="3.05"/><rect class="cls-8" x="107.53" y="150.9" width="6.14" height="2.75"/><rect class="cls-17" x="112.27" y="150.9" width="1.39" height="2.75"/><rect class="cls-8" x="167.23" y="150.9" width="6.14" height="2.75"/><rect class="cls-17" x="171.55" y="150.9" width="1.81" height="2.75"/><rect class="cls-17" x="107.53" y="153.31" width="6.14" height="0.35"/><rect class="cls-17" x="167.23" y="153.31" width="6.14" height="0.35"/><polygon class="cls-6" points="112.2 153.67 103.42 171.36 96.69 171.36 96.69 168.92 104.26 153.67 112.2 153.67"/><polygon class="cls-6" points="122.16 153.67 113.38 171.36 121.32 171.36 130.1 153.67 122.16 153.67"/><polygon class="cls-6" points="148 153.67 139.22 171.36 131.28 171.36 140.05 153.67 148 153.67"/><polygon class="cls-6" points="165.89 153.67 157.12 171.36 149.17 171.36 157.95 153.67 165.89 153.67"/><polygon class="cls-6" points="175.85 153.67 167.07 171.36 175.01 171.36 183.72 153.79 175.85 153.67"/><polygon class="cls-9" points="112.2 153.67 110.07 157.96 102.13 157.96 104.26 153.67 112.2 153.67"/><polygon class="cls-9" points="130.1 153.67 127.97 157.96 120.03 157.96 122.16 153.67 130.1 153.67"/><polygon class="cls-9" points="148 153.67 145.87 157.96 137.92 157.96 140.05 153.67 148 153.67"/><polygon class="cls-9" points="165.89 153.67 163.76 157.96 155.82 157.96 157.95 153.67 165.89 153.67"/><polygon class="cls-9" points="183.72 153.79 181.65 157.96 173.72 157.96 175.85 153.67 183.72 153.79"/><rect class="cls-20" x="99.12" y="161.32" width="83.11" height="8.85"/><circle class="cls-14" cx="110.43" cy="147.06" r="5.47" transform="matrix(0.99, -0.16, 0.16, 0.99, -22.19, 19.65)"/><path class="cls-6" d="M112.91,147.06a2.48,2.48,0,1,0-2.48,2.48A2.48,2.48,0,0,0,112.91,147.06Z"/><circle class="cls-14" cx="170.26" cy="147.06" r="5.47" transform="matrix(0.99, -0.16, 0.16, 0.99, -21.41, 29.26)"/><path class="cls-6" d="M172.74,147.06a2.48,2.48,0,1,0-2.48,2.48A2.48,2.48,0,0,0,172.74,147.06Z"/><path class="cls-14" d="M216.7,193.68H189l4.24-10.27h0l1.7-4.15.47-1.13.77-1.85.16-.38,1.7-4.15.32-.75,3-7.34a1.6,1.6,0,0,1,3,0l3,7.34.32.75,1.7,4.15.16.38.76,1.85.47,1.13,1.71,4.15h0Z"/><polygon class="cls-16" points="190.8 189.28 188.98 193.68 216.7 193.68 214.88 189.28 190.8 189.28"/><rect class="cls-8" x="186.77" y="191.05" width="31.75" height="4.49"/><rect class="cls-17" x="211.65" y="191.05" width="6.86" height="4.49"/><path class="cls-16" d="M215.61,191.05h-3.92l-3.15-7.64h0l-1.71-4.14-.47-1.14-.76-1.85-.16-.38-1.7-4.15-.32-.75-2.54-6.18.48-1.16a1.6,1.6,0,0,1,3,0l3,7.34.32.75,1.7,4.15.16.38.76,1.85.47,1.14,1.71,4.14h0Z"/><polygon class="cls-6" points="209.36 175.89 196.32 175.89 198.02 171.74 207.66 171.74 209.36 175.89"/><polygon class="cls-6" points="212.46 183.4 212.46 183.41 193.22 183.41 193.22 183.4 194.93 179.25 210.75 179.25 212.46 183.4"/><polygon class="cls-9" points="209.36 175.89 205.44 175.89 203.74 171.74 207.66 171.74 209.36 175.89"/><polygon class="cls-9" points="212.46 183.4 212.46 183.41 208.54 183.41 208.54 183.4 206.83 179.25 210.75 179.25 212.46 183.4"/><path class="cls-4" d="M40,92.9a4.16,4.16,0,0,0,4.15-3.56A8.24,8.24,0,0,0,36,80a5.15,5.15,0,0,0-.56,0,8.79,8.79,0,0,0-17.54.74c0,.22,0,.43,0,.64a8.71,8.71,0,0,0-4.69-1.1,8.82,8.82,0,0,0-8.35,8.14.34.34,0,0,1,0,.1A4.19,4.19,0,0,0,9,92.9Z"/><path class="cls-4" d="M237.43,99.4c6.54,0,6.91-9.85.37-10.17h-.54a10.86,10.86,0,0,0-3.34.53,11.22,11.22,0,0,0-22.2.35,10.28,10.28,0,0,0-4.47-1,10.42,10.42,0,0,0-2.58.32c-5.72,1.48-4.52,10,1.38,10Z"/><path class="cls-4" d="M158.88,50.89c6.54,0,6.9-9.84.37-10.16h-.54a10.81,10.81,0,0,0-3.34.52,11.22,11.22,0,0,0-22.2.36,10.24,10.24,0,0,0-4.46-1,10.5,10.5,0,0,0-2.59.32c-5.72,1.47-4.52,10,1.39,10Z"/><circle class="cls-14" cx="54.76" cy="53.4" r="15.68"/><path class="cls-18" d="M54.89,37.73a15.68,15.68,0,0,1-8.6,28.79h-.13a15.68,15.68,0,1,0,8.73-28.78Z"/><path class="cls-4" d="M218.34,232.94c3.57,0,3.76-5.37.2-5.55h-.3a6.13,6.13,0,0,0-1.82.28,6.12,6.12,0,0,0-12.11.19,5.7,5.7,0,0,0-2.44-.55,5.45,5.45,0,0,0-1.41.18c-3.12.8-2.47,5.45.75,5.45Z"/><path class="cls-4" d="M49.44,228.35c2.6-.11,2.55-4.38,0-4.39h-.22a3.84,3.84,0,0,0-1.31.29,4.42,4.42,0,0,0-8.81.55,3.89,3.89,0,0,0-1.8-.35,3.54,3.54,0,0,0-1,.19c-2.24.74-1.6,4.39.75,4.28Z"/><text class="cls-21" transform="translate(39.98 226.71)"><tspan class="cls-22">P</tspan><tspan class="cls-23" x="10.64" y="0">A</tspan><tspan class="cls-24" x="23.73" y="0">GE N</tspan><tspan class="cls-25" x="69.52" y="0">O</tspan><tspan class="cls-24" x="84.83" y="0">T </tspan><tspan class="cls-26" x="102.25" y="0">F</tspan><tspan x="113.66" y="0">OUND</tspan></text><path class="cls-27" d="M95.66,4.57A6.46,6.46,0,0,0,90.41,2a5.3,5.3,0,0,0-3.55,1,3.25,3.25,0,0,0-1.15,2.53A2.9,2.9,0,0,0,87,8,10,10,0,0,0,90,9.48c1.2.38,2.4.8,3.6,1.27a7.77,7.77,0,0,1,3.06,2.1A5.19,5.19,0,0,1,98,16.43a5.64,5.64,0,0,1-2,4.67,9,9,0,0,1-5.77,1.62,9.28,9.28,0,0,1-4.66-1.15,7.13,7.13,0,0,1-2.9-2.83,1.45,1.45,0,0,1-.16-.59,1.05,1.05,0,0,1,.29-.73,1.06,1.06,0,0,1,1.66.21,6.27,6.27,0,0,0,5.77,3.08,6.79,6.79,0,0,0,4.13-1.08,3.76,3.76,0,0,0,1.44-3.2,3.31,3.31,0,0,0-.91-2.36,5.4,5.4,0,0,0-2.27-1.44l-2.94-1c-1.06-.38-2-.76-3-1.15a5.35,5.35,0,0,1-2.27-1.85,5.05,5.05,0,0,1-.91-3,5.08,5.08,0,0,1,1.77-4A7.46,7.46,0,0,1,90.41,0,9.2,9.2,0,0,1,94.5.89a7.12,7.12,0,0,1,2.85,2.45,1.07,1.07,0,0,1,.19.61,1,1,0,0,1-1,1A1,1,0,0,1,95.66,4.57Z"/><path class="cls-27" d="M118.39,19.85a9.65,9.65,0,0,1-7.46,2.87,9.62,9.62,0,0,1-7.45-2.87c-1.78-1.91-2.66-4.73-2.66-8.47s.88-6.6,2.64-8.51A9.65,9.65,0,0,1,110.93,0a9.65,9.65,0,0,1,7.47,2.87Q121,5.74,121,11.38T118.39,19.85ZM116.75,4.34a8.43,8.43,0,0,0-11.64,0c-1.35,1.56-2,3.9-2,7s.67,5.44,2,7a8.43,8.43,0,0,0,11.64,0q2-2.34,2-7C118.78,8.24,118.1,5.9,116.75,4.34Z"/><path class="cls-27" d="M127.27,12.84v8.59a1.11,1.11,0,0,1-2.21,0V1.56a1,1,0,0,1,.33-.78,1,1,0,0,1,.78-.33h6.45a6,6,0,0,1,4.44,1.79,6.06,6.06,0,0,1,1.75,4.41A6.16,6.16,0,0,1,137.2,11,5.89,5.89,0,0,1,133,12.84l5.93,7.91a1,1,0,0,1,.22.68,1,1,0,0,1-.32.77,1.07,1.07,0,0,1-.78.33,1.11,1.11,0,0,1-.94-.52l-6.58-9.17Zm0-10.38v8.37h5.41a3.64,3.64,0,0,0,2.79-1.2,4.27,4.27,0,0,0,1.1-3,4.16,4.16,0,0,0-1.12-3,3.76,3.76,0,0,0-2.87-1.19Z"/><path class="cls-27" d="M145,12.84v8.59a1.11,1.11,0,0,1-2.21,0V1.56a1,1,0,0,1,.33-.78,1,1,0,0,1,.77-.33h6.45a6,6,0,0,1,4.45,1.79,6.06,6.06,0,0,1,1.75,4.41A6.16,6.16,0,0,1,154.9,11a5.89,5.89,0,0,1-4.2,1.88l5.94,7.91a1,1,0,0,1,.22.68,1.11,1.11,0,0,1-1.1,1.1,1.11,1.11,0,0,1-.94-.52l-6.58-9.17Zm0-10.38v8.37h5.41a3.64,3.64,0,0,0,2.79-1.2,4.27,4.27,0,0,0,1.1-3,4.16,4.16,0,0,0-1.12-3,3.76,3.76,0,0,0-2.87-1.19Z"/><path class="cls-27" d="M167,22.2a1.1,1.1,0,0,1-1.88-.77V12.12L158.64,1.88a1.15,1.15,0,0,1-.16-.58,1,1,0,0,1,.33-.78,1,1,0,0,1,.77-.33,1,1,0,0,1,.94.52l5.74,9.21L172,.71a1,1,0,0,1,.94-.52,1.07,1.07,0,0,1,.78.33,1.06,1.06,0,0,1,.32.78,1.06,1.06,0,0,1-.16.58l-6.52,10.24v9.31A1.06,1.06,0,0,1,167,22.2Z"/></g></g></g></svg>