<svg id="Layer_1" data-name="Layer 1" xmlns="http://www.w3.org/2000/svg" xmlns:xlink="http://www.w3.org/1999/xlink" viewBox="0 0 467 308"><defs><style>.cls-1,.cls-12,.cls-19,.cls-2,.cls-20,.cls-21,.cls-22,.cls-24,.cls-25,.cls-26,.cls-9{fill:none;}.cls-2{stroke:#ded8d5;stroke-width:1.97px;}.cls-2,.cls-21,.cls-26,.cls-9{stroke-miterlimit:10;}.cls-3{fill:#ffb1a5;}.cls-4{fill:#ead254;}.cls-5{fill:#00857b;}.cls-6{fill:#ededed;}.cls-7{fill:#c98bd2;}.cls-8{fill:#56dfed;}.cls-26,.cls-9{stroke:#fff;}.cls-9{stroke-width:1.18px;}.cls-10{clip-path:url(#clip-path);}.cls-11{fill:#8e716c;}.cls-12,.cls-19,.cls-20,.cls-22,.cls-24,.cls-25{stroke:#282828;stroke-linecap:round;stroke-linejoin:round;}.cls-12{stroke-width:1.23px;}.cls-13{fill:#f3978e;}.cls-14{fill:#372f5f;}.cls-15{fill:#261b43;}.cls-16{fill:#e6e6e6;}.cls-17{fill:#fff;}.cls-18{fill:#282828;}.cls-19{stroke-width:0.99px;}.cls-20{stroke-width:1.23px;}.cls-21{stroke:#c98bd2;stroke-width:1.34px;}.cls-22{stroke-width:1.23px;}.cls-23{fill:#005683;}.cls-24{stroke-width:1.4px;}.cls-25{stroke-width:1.53px;}.cls-26{stroke-width:1.95px;}</style><clipPath id="clip-path"><rect class="cls-1" x="96.96" y="75.73" width="307.74" height="222.92"/></clipPath></defs><title>community</title><g id="community"><g id="Group_711" data-name="Group 711"><g id="Group_700" data-name="Group 700"><g id="Group_686" data-name="Group 686"><g id="Group_685" data-name="Group 685"><line id="Line_34" data-name="Line 34" class="cls-2" x1="66.14" y1="114.1" x2="400.74" y2="114.1"/><rect id="Rectangle_91" data-name="Rectangle 91" class="cls-2" x="66.14" y="92.16" width="334.6" height="207.02" rx="4.37" ry="4.37"/><g id="Group_684" data-name="Group 684"><path id="Path_2107" data-name="Path 2107" class="cls-3" d="M88.19,103.35a3.06,3.06,0,1,1-3.06-3.06h0A3.06,3.06,0,0,1,88.19,103.35Z"/><path id="Path_2108" data-name="Path 2108" class="cls-4" d="M100.08,103.35A3.06,3.06,0,1,1,97,100.29h0A3.06,3.06,0,0,1,100.08,103.35Z"/><path id="Path_2109" data-name="Path 2109" class="cls-5" d="M112,103.35a3.06,3.06,0,1,1-3.06-3.06h0A3.06,3.06,0,0,1,112,103.35Z"/></g></g></g><g id="Group_694" data-name="Group 694"><g id="Group_689" data-name="Group 689"><g id="Group_688" data-name="Group 688"><g id="Group_687" data-name="Group 687"><rect id="Rectangle_92" data-name="Rectangle 92" class="cls-6" x="361.56" y="107.22" width="86.67" height="80.76" rx="4.01" ry="4.01"/><rect id="Rectangle_93" data-name="Rectangle 93" class="cls-2" x="361.56" y="107.22" width="86.67" height="80.76" rx="4.01" ry="4.01"/></g></g></g><g id="Group_693" data-name="Group 693"><g id="Group_692" data-name="Group 692"><g id="Group_691" data-name="Group 691"><g id="Group_690" data-name="Group 690"><rect id="Rectangle_94" data-name="Rectangle 94" class="cls-7" x="380.55" y="125.4" width="48.94" height="41.57" rx="4.04" ry="4.04"/></g></g></g></g></g><g id="Group_699" data-name="Group 699"><g id="Group_697" data-name="Group 697"><g id="Group_696" data-name="Group 696"><g id="Group_695" data-name="Group 695"><rect id="Rectangle_95" data-name="Rectangle 95" class="cls-6" x="19.32" y="175.83" width="82.65" height="73.04" rx="3.83" ry="3.83"/><rect id="Rectangle_96" data-name="Rectangle 96" class="cls-2" x="19.32" y="175.83" width="82.65" height="73.04" rx="3.83" ry="3.83"/></g></g></g><g id="Group_698" data-name="Group 698"><rect id="Rectangle_97" data-name="Rectangle 97" class="cls-3" x="36.56" y="188.34" width="47.79" height="46.46" rx="4.45" ry="4.45"/></g></g></g><g id="Group_710" data-name="Group 710"><path id="Path_2110" data-name="Path 2110" class="cls-7" d="M93.68,73.06H25.74a2.55,2.55,0,0,1-2.55-2.54h0A2.54,2.54,0,0,1,25.74,68H93.68a2.54,2.54,0,0,1,2.54,2.54h0a2.54,2.54,0,0,1-2.54,2.54Z"/><path id="Path_2111" data-name="Path 2111" class="cls-8" d="M447,239H414a2.54,2.54,0,0,1-2.54-2.54h0a2.54,2.54,0,0,1,2.54-2.54h33a2.54,2.54,0,0,1,2.54,2.54h0A2.54,2.54,0,0,1,447,239Z"/><rect id="Rectangle_98" data-name="Rectangle 98" class="cls-7" x="417.93" y="260.8" width="7.86" height="7.62" rx="1.92" ry="1.92"/><rect id="Rectangle_99" data-name="Rectangle 99" class="cls-3" x="35.97" y="278.41" width="7.86" height="7.62" rx="1.92" ry="1.92"/><g id="Group_703" data-name="Group 703"><g id="Group_702" data-name="Group 702"><rect id="Rectangle_100" data-name="Rectangle 100" class="cls-3" x="281.25" y="50.02" width="71.1" height="20.41" rx="2.02" ry="2.02"/><g id="Group_701" data-name="Group 701"><line id="Line_35" data-name="Line 35" class="cls-9" x1="290.93" y1="57.3" x2="338.63" y2="57.3"/><line id="Line_36" data-name="Line 36" class="cls-9" x1="290.93" y1="62.19" x2="310.36" y2="62.19"/></g></g><path id="Path_2112" data-name="Path 2112" class="cls-3" d="M289,68.12v8l10-8Z"/></g><g id="Group_709" data-name="Group 709"><g id="Group_708" data-name="Group 708"><g id="Group_707" data-name="Group 707"><g id="Group_706" data-name="Group 706"><g id="Group_705" data-name="Group 705"><g id="Group_704" data-name="Group 704"><path id="Rectangle_101" data-name="Rectangle 101" class="cls-8" d="M151.72,31.43h33.85a4.33,4.33,0,0,1,4.33,4.33V67.32a4.33,4.33,0,0,1-4.33,4.33H153.11a5.71,5.71,0,0,1-5.71-5.71V35.76A4.32,4.32,0,0,1,151.72,31.43Z"/></g></g></g></g></g></g></g></g><g id="Group_772" data-name="Group 772"><g class="cls-10"><g id="Group_771" data-name="Group 771"><g id="Group_770" data-name="Group 770"><g id="Group_732" data-name="Group 732"><g id="Group_712" data-name="Group 712"><path id="Path_2113" data-name="Path 2113" class="cls-11" d="M326.78,223.92l-24.46-3.26.19,2.43-20.91,2.79s-13.48,33.81-1.6,108.19h17l6.12-75.42h2.18l5.93,75.42h17C340.13,259.69,326.78,223.92,326.78,223.92Z"/><line id="Line_37" data-name="Line 37" class="cls-12" x1="295.36" y1="258.65" x2="313.1" y2="258.65"/></g><g id="Group_721" data-name="Group 721"><g id="Group_718" data-name="Group 718"><g id="Group_714" data-name="Group 714"><g id="Group_713" data-name="Group 713"><path id="Path_2114" data-name="Path 2114" class="cls-3" d="M341.06,188.25c-2.09-3.34-13.84-3.22-14.47-3.3-3.17-.37,2,24.91,8.65,47a7.42,7.42,0,0,0,9.23,5c.26-.08.52-.17.77-.27l.14-.06a7.43,7.43,0,0,0,4.4-8.22C346.64,211.73,343.48,192.11,341.06,188.25Z"/></g><path id="Path_2115" data-name="Path 2115" class="cls-13" d="M343.86,197.39l-15,5.82-1.4-7.12L343,192.22Z"/><path id="Path_2116" data-name="Path 2116" class="cls-13" d="M346.7,211.63s-7.11,9.55-6.77,9.11,5.58-15.43,5.58-15.43Z"/></g><g id="Group_717" data-name="Group 717"><path id="Path_2117" data-name="Path 2117" class="cls-3" d="M356.86,198.8l-20.38,26.4a7.5,7.5,0,0,0,1.36,10.51,5.62,5.62,0,0,0,.5.35h0a7.48,7.48,0,0,0,10.36-2.2q.17-.26.3-.51l17-31.29Z"/><g id="Group_715" data-name="Group 715"><path id="Path_2118" data-name="Path 2118" class="cls-3" d="M362.14,205.58a8.41,8.41,0,1,1,10.58-5.41h0A8.41,8.41,0,0,1,362.14,205.58Z"/><path id="Path_2119" data-name="Path 2119" class="cls-3" d="M370.85,192.53s2.3-2.39-1.78-4.06-9.13-1.29-12.35,6.53Z"/></g><g id="Group_716" data-name="Group 716"><path id="Path_2120" data-name="Path 2120" class="cls-14" d="M375.08,175.84l8.53,3.7a.88.88,0,0,1,.43,1.17l0,.09-11.23,21a1.08,1.08,0,0,1-1.33.51l-8.54-3.7a.88.88,0,0,1-.43-1.17.41.41,0,0,1,0-.09l11.22-21A1.08,1.08,0,0,1,375.08,175.84Z"/><path id="Path_2121" data-name="Path 2121" class="cls-15" d="M374.26,175.47l8.53,3.7a.88.88,0,0,1,.44,1.17l-.05.09L372,201.4a1.09,1.09,0,0,1-1.34.51l-8.53-3.7a.88.88,0,0,1-.43-1.17l0-.09,11.23-21A1.07,1.07,0,0,1,374.26,175.47Z"/><path id="Path_2122" data-name="Path 2122" class="cls-16" d="M373.3,177.61l7.5,3.25-9.15,17.08-7.5-3.25Z"/><path id="Path_2123" data-name="Path 2123" class="cls-17" d="M380.8,180.86l-16.65,13.83,9.15-17.08Z"/></g><path id="Path_2124" data-name="Path 2124" class="cls-3" d="M366.62,187.77a13.65,13.65,0,0,1,3.61,1.34,2,2,0,0,1,.94,2.15h0a1.91,1.91,0,0,1-1.62,1.43l-4.44.56s-2.31,4-5.34,4.44l2.78-7Z"/></g></g><g id="Group_720" data-name="Group 720"><g id="Group_719" data-name="Group 719"><path id="Path_2125" data-name="Path 2125" class="cls-8" d="M310,155c-.49,0,31.46,4.42,36.73,40.84l-16.58,2.54-3.34,27.5H280.53l-9.18-50.81A57.71,57.71,0,0,1,300.62,155Z"/><line id="Line_38" data-name="Line 38" class="cls-12" x1="330.12" y1="198.38" x2="331.56" y2="182.48"/></g></g></g><g id="Group_731" data-name="Group 731"><path id="Path_2126" data-name="Path 2126" class="cls-3" d="M313,155.52V142.87H298.18v12.8a26.94,26.94,0,0,0-4,1.61l11.56,6.89,11.83-6.89A19.45,19.45,0,0,0,313,155.52Z"/><path id="Path_2127" data-name="Path 2127" class="cls-18" d="M298,144.41s2.67,7.07,9.77,6.46c6.54-.56,5.5-10.36,5.5-10.36Z"/><g id="Group_724" data-name="Group 724"><path id="Path_2128" data-name="Path 2128" class="cls-13" d="M291.58,135c-2.33,2.11-7.52-5.89-5.28-8.13s4,1.28,4,1.28l1,2.38.75,3.24.18.84Z"/><g id="Group_723" data-name="Group 723"><g id="Group_722" data-name="Group 722"><path id="Path_2129" data-name="Path 2129" class="cls-19" d="M287.39,129.71s1.76-.79,3.32,1.76"/></g></g></g><g id="Group_727" data-name="Group 727"><path id="Path_2130" data-name="Path 2130" class="cls-13" d="M319.06,134.77c2.14,2.3,8-5.23,5.94-7.66s-4.05.94-4.05.94l-1.2,2.29-1,3.16-.25.83Z"/><g id="Group_726" data-name="Group 726"><g id="Group_725" data-name="Group 725"><path id="Path_2131" data-name="Path 2131" class="cls-19" d="M323.68,129.84s-1.68-.94-3.46,1.48"/></g></g></g><g id="Group_728" data-name="Group 728"><path id="Path_2132" data-name="Path 2132" class="cls-18" d="M287.5,119.25c0,10.59,8.07,15.6,18,15.6s18-5,18-15.6-8.07-17.78-18-17.78S287.5,108.67,287.5,119.25Z"/></g><path id="Path_2133" data-name="Path 2133" class="cls-3" d="M290,120a71.91,71.91,0,0,0,1.84,16.08c.89,3.9,3.42,6.62,7,8.81l.65.4a12.28,12.28,0,0,0,12.49.14h0c3.86-2.25,6.57-5.23,7.4-9.4A105.26,105.26,0,0,0,321,120s1.44-16.4-15.3-16.08S290,120,290,120Z"/><g id="Group_730" data-name="Group 730"><path id="Path_2134" data-name="Path 2134" class="cls-20" d="M304.46,129.35v2.27a1,1,0,0,0,.07.38,1,1,0,0,0,1.21.56l1-.28"/><path id="Path_2135" data-name="Path 2135" class="cls-18" d="M301.79,120.55l-8.32,2s.38-2.12,3.79-2.89S301.79,120.55,301.79,120.55Z"/><path id="Path_2136" data-name="Path 2136" class="cls-18" d="M309.18,120.55l8,2s-.37-2.12-3.66-2.89S309.18,120.55,309.18,120.55Z"/><ellipse id="Ellipse_25" data-name="Ellipse 25" class="cls-18" cx="298.63" cy="126.66" rx="1.4" ry="1.4"/><path id="Path_2137" data-name="Path 2137" class="cls-18" d="M313.34,126.66a1.41,1.41,0,1,1-1.41-1.4h0a1.41,1.41,0,0,1,1.41,1.4Z"/><path id="Path_2138" data-name="Path 2138" class="cls-17" d="M300,135.2h10.82S306.06,141,300,135.2Z"/><g id="Group_729" data-name="Group 729"><circle id="Ellipse_26" data-name="Ellipse 26" class="cls-21" cx="298.04" cy="127.2" r="5.97"/><circle id="Ellipse_27" data-name="Ellipse 27" class="cls-21" cx="312.7" cy="127.2" r="5.97"/><path id="Path_2139" data-name="Path 2139" class="cls-21" d="M304,127.2a2,2,0,0,1,2.72,0"/><line id="Line_39" data-name="Line 39" class="cls-21" x1="292.08" y1="127.2" x2="290.2" y2="127.16"/><line id="Line_40" data-name="Line 40" class="cls-21" x1="318.67" y1="127.2" x2="320.56" y2="127.16"/></g></g><path id="Path_2140" data-name="Path 2140" class="cls-18" d="M320.78,125.43s-6.7-9.05-5.15-18.22a13.2,13.2,0,0,1,6.26,9C323.19,122.62,320.78,125.43,320.78,125.43Z"/><path id="Path_2141" data-name="Path 2141" class="cls-18" d="M289.94,126s7.77-10.28,6.23-19.45a15.39,15.39,0,0,0-6.69,9.57C288.19,122.62,289.94,126,289.94,126Z"/><path id="Path_2142" data-name="Path 2142" class="cls-18" d="M320.22,110.82s-8.6,9.41-32.11,7.8c0,0,3.6-13.8,15-15.28C303.1,103.34,316.26,101.77,320.22,110.82Z"/><circle id="Ellipse_28" data-name="Ellipse 28" class="cls-18" cx="319.61" cy="99.82" r="11.23"/></g></g><g id="Group_746" data-name="Group 746"><path id="Path_2143" data-name="Path 2143" class="cls-18" d="M182.56,223.9l-20.91-2.79.19-2.43-24.46,3.26S124,257.71,135.91,332.09h17l5.93-75.42H161l6.12,75.42h17C196,257.71,182.56,223.9,182.56,223.9Z"/><g id="Group_741" data-name="Group 741"><path id="Path_2144" data-name="Path 2144" class="cls-18" d="M180.89,122.15a38.5,38.5,0,0,1-7-12.66C171.8,103.64,165,106,165,106s-5.64-7.26-14.13-4.73-11.44,8.56-11.61,15.75-5.82,8.3-10.17,16.61c-7.68,14.67,5.25,27,28.78,23.59l0-.22a24.88,24.88,0,0,0,8.63.8C194.83,156.14,192.1,135.35,180.89,122.15Z"/><g id="Group_735" data-name="Group 735"><path id="Path_2145" data-name="Path 2145" class="cls-13" d="M171.63,133c2.33,2.11,7.52-5.89,5.28-8.13s-4,1.27-4,1.27l-1,2.39-.75,3.23-.18.85Z"/><g id="Group_734" data-name="Group 734"><g id="Group_733" data-name="Group 733"><path id="Path_2146" data-name="Path 2146" class="cls-19" d="M175.82,127.73s-1.76-.79-3.32,1.76"/></g></g></g><g id="Group_738" data-name="Group 738"><path id="Path_2147" data-name="Path 2147" class="cls-13" d="M144.15,132.79c-2.13,2.29-8-5.23-5.94-7.66s4,.94,4,.94l1.2,2.29,1,3.16.25.83Z"/><g id="Group_737" data-name="Group 737"><g id="Group_736" data-name="Group 736"><path id="Path_2148" data-name="Path 2148" class="cls-19" d="M139.53,127.86s1.69-.94,3.46,1.47"/></g></g></g><g id="Group_739" data-name="Group 739"><path id="Path_2149" data-name="Path 2149" class="cls-18" d="M175.71,117.27c0,10.58-8.07,15.6-18,15.6s-18-5-18-15.6,8.07-17.78,18-17.78S175.71,106.69,175.71,117.27Z"/></g><rect id="Rectangle_102" data-name="Rectangle 102" class="cls-3" x="150.21" y="140.89" width="14.83" height="19.2"/><path id="Path_2150" data-name="Path 2150" class="cls-18" d="M148,139.69s4.13,8.24,9.21,9.52a7.12,7.12,0,0,0,4.11-.24c1.91-.67,4.33-3.52,4.74-6.68l.2-1.8S157.26,145.41,148,139.69Z"/><path id="Path_2151" data-name="Path 2151" class="cls-3" d="M173.26,118a72.56,72.56,0,0,1-1.83,16.08c-.9,3.89-3.43,6.62-7,8.81l-.65.4a12.28,12.28,0,0,1-12.49.14h0c-3.86-2.25-6.57-5.23-7.4-9.41a105,105,0,0,1-1.68-16s-1.44-16.4,15.3-16.08S173.26,118,173.26,118Z"/><g id="Group_740" data-name="Group 740"><path id="Path_2152" data-name="Path 2152" class="cls-22" d="M156.57,128.26v1.34a1,1,0,0,0,.07.38,1,1,0,0,0,1.21.56l1-.28"/><path id="Path_2153" data-name="Path 2153" class="cls-18" d="M160.06,119.37l8.9,2.1s-.4-2.29-4-3.12S160.06,119.37,160.06,119.37Z"/><path id="Path_2154" data-name="Path 2154" class="cls-18" d="M155.38,119.37l-9,2.1s.41-2.29,4.1-3.12S155.38,119.37,155.38,119.37Z"/><path id="Path_2155" data-name="Path 2155" class="cls-18" d="M152.15,124.89a1.41,1.41,0,1,1-1.41-1.39h0a1.4,1.4,0,0,1,1.4,1.39Z"/><path id="Path_2156" data-name="Path 2156" class="cls-18" d="M165.45,124.89A1.4,1.4,0,1,1,164,123.5h0a1.4,1.4,0,0,1,1.4,1.39Z"/><path id="Path_2157" data-name="Path 2157" class="cls-17" d="M151.22,132.87h12.32s-.87,3.39-6.46,3.39A6.54,6.54,0,0,1,151.22,132.87Z"/></g><path id="Path_2158" data-name="Path 2158" class="cls-18" d="M142.43,123.45s6.7-9,5.15-18.22a13.21,13.21,0,0,0-6.26,9C140,120.63,142.43,123.45,142.43,123.45Z"/><path id="Path_2159" data-name="Path 2159" class="cls-18" d="M173.27,123.14s-7.77-9.36-6.23-18.53a15.32,15.32,0,0,1,6.69,9.57C175,120.63,173.27,123.14,173.27,123.14Z"/><path id="Path_2160" data-name="Path 2160" class="cls-18" d="M143,108.84s7.68,10.32,31.2,8.71c0,0-2.69-14.72-14.08-16.19C160.11,101.36,147,99.79,143,108.84Z"/></g><g id="Group_745" data-name="Group 745"><g id="Group_743" data-name="Group 743"><g id="Group_742" data-name="Group 742"><path id="Path_2161" data-name="Path 2161" class="cls-3" d="M121.56,269.3c-.34.54,19.57-86.64,13.66-85.32-.54.12-10.89,1.08-12.43,4.21-4.46,9.07-7.66,80.45-7.66,80.45Z"/><path id="Path_2162" data-name="Path 2162" class="cls-3" d="M115.13,268.64s-3.21,14.89,8.92,16.52a1.7,1.7,0,0,0,1.83-1.12l0-.11a1.7,1.7,0,0,0-.94-2.1c-2-.89-5-3.12-3.53-8.2,0,0,1.76-.21,2.72,3.06a1.42,1.42,0,0,0,1.75,1,.92.92,0,0,0,.23-.09h0a1.41,1.41,0,0,0,.76-1.44c-.29-2.29-1.44-7.81-5.86-9.29Z"/></g><path id="Path_2163" data-name="Path 2163" class="cls-13" d="M119.21,209.14S130.68,225.3,130.74,225s4-22.68,4-22.68l-13.93-6Z"/></g><g id="Group_744" data-name="Group 744"><path id="Path_2164" data-name="Path 2164" class="cls-5" d="M151.09,156.92c.49,0-28.36.52-33.63,36.94L134,196.4l3.34,27.5h46.24l9.18-50.81s-6.52-11-25.55-16.4Z"/><path id="Path_2165" data-name="Path 2165" class="cls-3" d="M137,161.33s4.08,5.41,20.78,5.41c16.55,0,20.78-5.7,20.78-5.7a71.36,71.36,0,0,0-21.08-7.21A74.87,74.87,0,0,0,137,161.33Z"/></g></g></g><g id="Group_769" data-name="Group 769"><g id="Group_748" data-name="Group 748"><g id="Group_747" data-name="Group 747"><path id="Path_2166" data-name="Path 2166" class="cls-23" d="M193.74,276.71l0,72.64h35.93l2.76-72.64Z"/><path id="Path_2167" data-name="Path 2167" class="cls-23" d="M271.76,276.71l0,72.64H235.79L233,276.71Z"/><rect id="Rectangle_103" data-name="Rectangle 103" class="cls-23" x="214.98" y="276.71" width="37.15" height="25.24"/></g><line id="Line_41" data-name="Line 41" class="cls-24" x1="220.17" y1="301.95" x2="245.8" y2="301.95"/></g><g id="Group_759" data-name="Group 759"><g id="Group_750" data-name="Group 750"><g id="Group_749" data-name="Group 749"><path id="Path_2168" data-name="Path 2168" class="cls-3" d="M294.46,213.32c2.23,24.62-.12,42.55.53,87.84l-21.45.9-3.19-84.78Z"/><path id="Path_2169" data-name="Path 2169" class="cls-13" d="M273,232.53s13.29-1.22,22.37-7.21l-.24-5.27-22.13,3Z"/></g><path id="Path_2170" data-name="Path 2170" class="cls-7" d="M251.69,156.65s42.18,10.61,49.83,64.16c0,0-20.65,8.95-41.34,5.1L264.83,208Z"/></g><g id="Group_757" data-name="Group 757"><g id="Group_754" data-name="Group 754"><path id="Path_2171" data-name="Path 2171" class="cls-3" d="M125.68,178.92,157.09,216l-9.61,27.07s-23.88-33.19-34.61-58.85Z"/><g id="Group_753" data-name="Group 753"><g id="Group_752" data-name="Group 752"><g id="Group_751" data-name="Group 751"><path id="Path_2172" data-name="Path 2172" class="cls-3" d="M126.71,180.26s-11,6.23-13.84,4c-4.9-3.94-9-18.36-9-18.36s20.63-7.77,20.43-7.47S126.71,180.26,126.71,180.26Z"/><path id="Path_2173" data-name="Path 2173" class="cls-3" d="M126.71,180.26c-.2-1.11,4.09-13.09,5.56-17.59a2,2,0,0,0-1.36-2.44l-.21,0h0a2.28,2.28,0,0,0-2.55,1L123,170.07Z"/><path id="Path_2174" data-name="Path 2174" class="cls-3" d="M126.33,167.31l-3.55-17.68a2.22,2.22,0,0,0-2.57-1.76h0a1.91,1.91,0,0,0-1.57,2.13l1.54,13.15Z"/><path id="Path_2175" data-name="Path 2175" class="cls-3" d="M119.27,160.79l-4.83-12.62a2.2,2.2,0,0,0-2.74-1.35h0a1.92,1.92,0,0,0-1.26,2.26L114,163.66Z"/><path id="Path_2176" data-name="Path 2176" class="cls-3" d="M114.08,164.51l-6.1-12.4a2.43,2.43,0,0,0-3.1-1.19h0a2.11,2.11,0,0,0-1.09,2.78h0l4.87,11.71Z"/><path id="Path_2177" data-name="Path 2177" class="cls-3" d="M103.92,165.87l-4.79-7.59A1.72,1.72,0,0,1,100,156h0a2,2,0,0,1,2.39.69l6.3,8.74Z"/></g></g><path id="Path_2178" data-name="Path 2178" class="cls-25" d="M125.37,166s-7.2-.76-7.93,8.83"/></g></g><g id="Group_756" data-name="Group 756"><g id="Group_755" data-name="Group 755"><path id="Path_2179" data-name="Path 2179" class="cls-3" d="M141.11,230.42s5.9,20.45,17.68,17.73,30.12-27.86,30.12-27.86l-4.11-42.94-33,40.67Z"/><path id="Path_2180" data-name="Path 2180" class="cls-13" d="M162,205.39s11.15,16.82,20.67,22.76l6.22-7.86-24-18.59Z"/></g><path id="Path_2181" data-name="Path 2181" class="cls-7" d="M210.81,155.72s-32.75,7.38-50.2,45.45c0,0,10.54,15.89,27.45,23l11.32-13.87Z"/></g></g><g id="Group_758" data-name="Group 758"><path id="Path_2182" data-name="Path 2182" class="cls-7" d="M210.81,155.61A81.85,81.85,0,0,0,190,170.87l2.53,111.27h80.63l-.27-110.69s-10.16-9.95-21.17-14.8C242.33,152.53,219.91,150.94,210.81,155.61Z"/><path id="Rectangle_104" data-name="Rectangle 104" class="cls-24" d="M237.75,187.4h22.43v11.21A11.21,11.21,0,0,1,249,209.82h0a11.21,11.21,0,0,1-11.21-11.21h0V187.4Z"/><line id="Line_42" data-name="Line 42" class="cls-24" x1="272.99" y1="226.32" x2="274.04" y2="189.92"/><line id="Line_43" data-name="Line 43" class="cls-24" x1="191.21" y1="220.26" x2="189.47" y2="188.7"/></g></g><g id="Group_768" data-name="Group 768"><path id="Path_2183" data-name="Path 2183" class="cls-18" d="M211.76,115l-3.37-16.63c-.18-1.36-.71-3.45-.07-5.41,1.07-3.25,5-9.49,11.67-6.63l1.44,6.58s-6.94,1.4-9.73,10.49Z"/><path id="Path_2184" data-name="Path 2184" class="cls-18" d="M219.5,89.73c-.12,2.19-2.05,11.74-8.83,15.23C210.67,105,204.73,92.22,219.5,89.73Z"/><path id="Path_2185" data-name="Path 2185" class="cls-3" d="M243.28,152.54h0V124.31h-26v28.23l-7.75,3.54s1.82,11.7,21,12,21.15-11.39,21.15-11.39Z"/><path id="Path_2186" data-name="Path 2186" class="cls-18" d="M220,86.3s4.78-12.6,19.51-5.9c8.91,4,11.41,9.49,12.47,13.34a15.41,15.41,0,0,1,.4,4.49L248.81,115,234.9,91.81l-13.46,1.07Z"/><g id="Group_762" data-name="Group 762"><path id="Path_2187" data-name="Path 2187" class="cls-13" d="M248.81,115a4.32,4.32,0,0,1,5.37-1.42c3.62,1.37,2,10.16-3.45,11.28a4.27,4.27,0,0,1-3.47-.91S248.6,117.43,248.81,115Z"/><g id="Group_761" data-name="Group 761"><g id="Group_760" data-name="Group 760"><path id="Path_2188" data-name="Path 2188" class="cls-24" d="M253.46,116.65s-3-1-5.18,3.45"/></g></g></g><g id="Group_765" data-name="Group 765"><path id="Path_2189" data-name="Path 2189" class="cls-13" d="M211.76,115a4.33,4.33,0,0,0-5.38-1.42c-3.62,1.37-2,10.16,3.45,11.28a4.27,4.27,0,0,0,3.47-.91S212,117.43,211.76,115Z"/><g id="Group_764" data-name="Group 764"><g id="Group_763" data-name="Group 763"><path id="Path_2190" data-name="Path 2190" class="cls-24" d="M207.1,116.65s3-1,5.19,3.45"/></g></g></g><path id="Path_2191" data-name="Path 2191" class="cls-3" d="M249.17,106.62c0,5.3-.52,16.39-3.78,23-3.06,6.18-8.11,9.5-14.75,9.7s-11.57-2.36-15.53-10.38-3.77-22.19-3.77-22.19,0-18.93,18.71-18.93C249.75,87.79,249.17,106.62,249.17,106.62Z"/><path id="Path_2192" data-name="Path 2192" class="cls-18" d="M217.45,132.87s2.18,11,11.8,12.32c11.08,1.47,14-12,14-12s-4.9,6.13-12.64,6.14A17,17,0,0,1,217.45,132.87Z"/><g id="Group_767" data-name="Group 767"><path id="Path_2193" data-name="Path 2193" class="cls-24" d="M228.92,114.48v4.38a1.36,1.36,0,0,0,1.78,1.32l1.46-.39"/><path id="Path_2194" data-name="Path 2194" class="cls-18" d="M223.4,112.39a1.71,1.71,0,1,1-1.71-1.7h0A1.71,1.71,0,0,1,223.4,112.39Z"/><path id="Path_2195" data-name="Path 2195" class="cls-18" d="M239.36,112.39a1.7,1.7,0,1,1-1.7-1.7h0a1.7,1.7,0,0,1,1.7,1.7Z"/><path id="Path_2196" data-name="Path 2196" class="cls-18" d="M233.3,103.92l11.45,3s-.52-3.21-5.2-4.38S233.3,103.92,233.3,103.92Z"/><path id="Path_2197" data-name="Path 2197" class="cls-18" d="M226.19,103.92l-11.45,3s.52-3.22,5.2-4.38S226.19,103.92,226.19,103.92Z"/><path id="Path_2198" data-name="Path 2198" class="cls-24" d="M223.91,123.28s1.69,1.29,6.13,1.29a15.56,15.56,0,0,0,6.56-1.29"/><g id="Group_766" data-name="Group 766"><circle id="Ellipse_29" data-name="Ellipse 29" class="cls-26" cx="221.23" cy="112.89" r="7.24"/><circle id="Ellipse_30" data-name="Ellipse 30" class="cls-26" cx="239.01" cy="112.89" r="7.24"/><path id="Path_2199" data-name="Path 2199" class="cls-26" d="M228.47,112.89a2.36,2.36,0,0,1,3.31,0"/><line id="Line_44" data-name="Line 44" class="cls-26" x1="214" y1="112.89" x2="211.57" y2="112.83"/><line id="Line_45" data-name="Line 45" class="cls-26" x1="246.25" y1="112.89" x2="248.96" y2="112.84"/></g></g><path id="Path_2200" data-name="Path 2200" class="cls-18" d="M217.45,90.16s3.47,9.88,19.15,9.57c10.66-.2,13.2,7.51,13.2,7.51S248,90,247.46,90.16,231.24,86,231.24,86Z"/></g></g></g></g></g></g></g><rect class="cls-1" x="2" y="21.32" width="464.12" height="288"/></svg>