<svg xmlns="http://www.w3.org/2000/svg" viewBox="0 0 512.43 570.51"><defs><style>.cls-1{fill:#fff;}.cls-2{fill:none;stroke:#fff;stroke-miterlimit:10;stroke-width:5.75px;stroke-dasharray:34.52 8.63 57.54;}.cls-2,.cls-6{stroke-linecap:round;}.cls-3{fill:#f1972d;}.cls-4{fill:#0d3747;}.cls-5,.cls-6{fill:#f7f1e3;}.cls-6{stroke:#0d3747;stroke-linejoin:round;stroke-width:7.49px;}.cls-7{fill:#f7bf2b;}.cls-8{fill:#fbd427;}.cls-9{fill:#39b54a;}</style></defs><title>email_verified_1</title><g id="Layer_2" data-name="Layer 2"><g id="Layer_1-2" data-name="Layer 1"><path class="cls-1" d="M479.5,271.52c0,123.32-100,223.3-223.29,223.3s-223.3-100-223.3-223.3,100-223.31,223.3-223.31S479.5,148.19,479.5,271.52Z"/><path class="cls-2" d="M459.51,120.34a252.1,252.1,0,0,1,50,151.18c0,139.91-113.43,253.33-253.34,253.33S2.88,411.43,2.88,271.52,116.29,18.18,256.21,18.18A252.29,252.29,0,0,1,370,45.09"/><path class="cls-3" d="M63.07,504.86a3.36,3.36,0,0,1-3.36-3.36V264.64a3.36,3.36,0,0,1,3.36-3.37H452a3.37,3.37,0,0,1,3.36,3.37V501.5a3.37,3.37,0,0,1-3.36,3.36Z"/><path class="cls-4" d="M452,264.64V501.5H63.07V264.64H452m0-6.73H63.07a6.73,6.73,0,0,0-6.73,6.73V501.5a6.73,6.73,0,0,0,6.73,6.72H452a6.72,6.72,0,0,0,6.72-6.72V264.64a6.72,6.72,0,0,0-6.72-6.73Z"/><path class="cls-3" d="M63.07,268a3.37,3.37,0,0,1-2-6.11L255.58,123.29a3.33,3.33,0,0,1,3.9,0L454,261.9A3.37,3.37,0,0,1,452,268Z"/><path class="cls-4" d="M257.53,126,452,264.64H63.07L257.53,126m0-6.73a6.73,6.73,0,0,0-3.9,1.25L59.17,259.16a6.73,6.73,0,0,0,3.9,12.21H452a6.73,6.73,0,0,0,3.9-12.21L261.44,120.55a6.76,6.76,0,0,0-3.91-1.25Z"/><path class="cls-5" d="M104.63,442.35a3.36,3.36,0,0,1-3.36-3.36V40.18a3.36,3.36,0,0,1,3.36-3.36H351.78a3.34,3.34,0,0,1,2.38,1l58.63,58.62a3.37,3.37,0,0,1,1,2.38V439a3.36,3.36,0,0,1-3.36,3.36Z"/><path class="cls-4" d="M351.78,40.18l58.63,58.63V439H104.63V40.18H351.78m0-6.72H104.63a6.72,6.72,0,0,0-6.73,6.72V439a6.73,6.73,0,0,0,6.73,6.73H410.41a6.73,6.73,0,0,0,6.73-6.73V98.81a6.7,6.7,0,0,0-2-4.76L356.54,35.43a6.73,6.73,0,0,0-4.76-2Z"/><path class="cls-5" d="M348.21,105.75a3.38,3.38,0,0,1-2.38-1,3.34,3.34,0,0,1-1-2.57L348.42,40a3.38,3.38,0,0,1,2.17-3,3.35,3.35,0,0,1,3.57.77l58.63,58.62a3.37,3.37,0,0,1-2.19,5.74Z"/><path class="cls-4" d="M351.78,40.18l58.63,58.63-62.2,3.57,3.57-62.2m0-6.72a6.72,6.72,0,0,0-6.71,6.34L341.49,102a6.73,6.73,0,0,0,6.72,7.11h.38l62.2-3.57a6.73,6.73,0,0,0,4.37-11.48L356.54,35.43a6.69,6.69,0,0,0-4.76-2Z"/><line class="cls-6" x1="153.89" y1="134.24" x2="361.15" y2="134.24"/><line class="cls-6" x1="153.89" y1="170.15" x2="361.15" y2="170.15"/><line class="cls-6" x1="153.89" y1="206.06" x2="361.15" y2="206.06"/><line class="cls-6" x1="153.89" y1="241.98" x2="361.15" y2="241.98"/><line class="cls-6" x1="153.89" y1="277.89" x2="361.15" y2="277.89"/><line class="cls-6" x1="153.89" y1="313.8" x2="361.15" y2="313.8"/><line class="cls-6" x1="153.89" y1="349.72" x2="361.15" y2="349.72"/><line class="cls-6" x1="153.89" y1="385.63" x2="361.15" y2="385.63"/><path class="cls-7" d="M63.07,504.86a3.36,3.36,0,0,1-3.36-3.36V264.64A3.35,3.35,0,0,1,65,261.9L257.53,399.12,450,261.9a3.34,3.34,0,0,1,3.5-.25,3.36,3.36,0,0,1,1.82,3V501.5a3.37,3.37,0,0,1-3.36,3.36Z"/><path class="cls-4" d="M452,264.64V501.5H63.07V264.64L257.53,403.25,452,264.64m0-6.73a6.71,6.71,0,0,0-3.91,1.25L257.53,395,67,259.16a6.73,6.73,0,0,0-10.64,5.48V501.5a6.73,6.73,0,0,0,6.73,6.72H452a6.72,6.72,0,0,0,6.72-6.72V264.64a6.73,6.73,0,0,0-6.72-6.73Z"/><path class="cls-8" d="M63.07,504.86a3.36,3.36,0,0,1-1.75-6.24L255.78,380.2a3.31,3.31,0,0,1,3.5,0L453.75,498.62a3.36,3.36,0,0,1-1.75,6.24Z"/><path class="cls-4" d="M257.53,383.07,452,501.5H63.07L257.53,383.07m0-6.73a6.79,6.79,0,0,0-3.5,1L59.57,495.75a6.72,6.72,0,0,0,3.5,12.47H452a6.73,6.73,0,0,0,3.5-12.47L261,377.32a6.76,6.76,0,0,0-3.5-1Z"/><circle class="cls-1" cx="122.07" cy="58.1" r="55.4"/><path class="cls-4" d="M122.07,116.19a58.1,58.1,0,1,1,58.1-58.09A58.16,58.16,0,0,1,122.07,116.19Zm0-110.8A52.71,52.71,0,1,0,174.78,58.1,52.76,52.76,0,0,0,122.07,5.39Z"/><g id="_Group_" data-name="&lt;Group&gt;"><polygon id="_Path_" data-name="&lt;Path&gt;" class="cls-9" points="110.24 82.28 89.94 61.98 101.38 50.54 110.24 59.39 139.28 30.35 150.72 41.8 110.24 82.28"/></g><text></text><path class="cls-4" d="M79.42,549.55l-6.7,13.27v7.32H68.08v-7.23l-6.53-13.36h5.3l3.31,7.68q.09.22.48,1.68h0a8,8,0,0,1,.45-1.62l3.37-7.74Z"/><path class="cls-4" d="M88.31,570.5a7.92,7.92,0,0,1-5.78-2.06,8.53,8.53,0,0,1,.08-11.3,8.25,8.25,0,0,1,5.9-2.06,7.82,7.82,0,0,1,5.74,2.06,7.31,7.31,0,0,1,2.08,5.45,7.72,7.72,0,0,1-2.15,5.78A8,8,0,0,1,88.31,570.5Zm.11-11.94a3,3,0,0,0-2.5,1.1,4.9,4.9,0,0,0-.89,3.13Q85,567,88.45,567c2.17,0,3.26-1.44,3.26-4.34Q91.71,558.55,88.42,558.56Z"/><path class="cls-4" d="M113.24,570.14h-4.52V567.9h-.07a5.14,5.14,0,0,1-4.5,2.6c-3.4,0-5.11-2.06-5.11-6.19v-8.87h4.53v8.47c0,2.08.82,3.11,2.46,3.11a2.45,2.45,0,0,0,2-.85,3.48,3.48,0,0,0,.73-2.32v-8.41h4.52Z"/><path class="cls-4" d="M126.65,559.53a4,4,0,0,0-1.91-.44,2.74,2.74,0,0,0-2.31,1.08,4.7,4.7,0,0,0-.84,3v7h-4.53v-14.7h4.53v2.73h.06a3.93,3.93,0,0,1,3.88-3,3,3,0,0,1,1.12.17Z"/><path class="cls-4" d="M150.07,564.08h-9.58c.15,2.14,1.49,3.2,4,3.2a7.81,7.81,0,0,0,4.26-1.15v3.28a11.27,11.27,0,0,1-5.29,1.09A6.85,6.85,0,0,1,136,563a7.86,7.86,0,0,1,2.13-5.8,7.08,7.08,0,0,1,5.22-2.14,6.45,6.45,0,0,1,5,1.91,7.35,7.35,0,0,1,1.75,5.18Zm-4.2-2.78c0-2.11-.85-3.16-2.56-3.16a2.44,2.44,0,0,0-1.88.9,4,4,0,0,0-1,2.26Z"/><path class="cls-4" d="M176.11,570.14h-4.52v-8.38c0-2.14-.78-3.2-2.35-3.2a2.17,2.17,0,0,0-1.83,1,4,4,0,0,0-.7,2.39v8.23h-4.53v-8.47c0-2.08-.78-3.11-2.32-3.11a2.2,2.2,0,0,0-1.85.91,4,4,0,0,0-.7,2.5v8.17h-4.54v-14.7h4.54v2.3h.06a5.27,5.27,0,0,1,2-1.92,5.46,5.46,0,0,1,2.78-.74,4.24,4.24,0,0,1,4.26,2.74,5.46,5.46,0,0,1,4.94-2.74c3.2,0,4.79,2,4.79,5.92Z"/><path class="cls-4" d="M191.93,570.14h-4.29V568h-.06a4.77,4.77,0,0,1-4.38,2.47,4.61,4.61,0,0,1-3.36-1.21,4.35,4.35,0,0,1-1.23-3.24q0-4.27,5.07-4.94l4-.53c0-1.61-.87-2.41-2.61-2.41a9,9,0,0,0-5,1.56v-3.41a10.68,10.68,0,0,1,2.59-.86,13.67,13.67,0,0,1,3-.38q6.28,0,6.28,6.27Zm-4.26-6v-1l-2.67.34c-1.47.19-2.21.86-2.21,2a1.66,1.66,0,0,0,.54,1.27,2.05,2.05,0,0,0,1.45.49,2.69,2.69,0,0,0,2.09-.88A3.21,3.21,0,0,0,187.67,564.17Z"/><path class="cls-4" d="M197.82,553.12a2.63,2.63,0,0,1-1.88-.69,2.18,2.18,0,0,1-.73-1.67,2.1,2.1,0,0,1,.73-1.66,3.06,3.06,0,0,1,3.77,0,2.12,2.12,0,0,1,.72,1.66,2.22,2.22,0,0,1-.72,1.7A2.72,2.72,0,0,1,197.82,553.12Zm2.24,17h-4.54v-14.7h4.54Z"/><path class="cls-4" d="M208.41,570.14h-4.53V548.38h4.53Z"/><path class="cls-4" d="M234.45,570.14h-4.52v-8.35c0-2.16-.79-3.23-2.35-3.23a2.42,2.42,0,0,0-2,.9,3.53,3.53,0,0,0-.74,2.3v8.38h-4.54V548.38h4.54v9.24h.05a5.17,5.17,0,0,1,4.53-2.54q5,0,5,6Z"/><path class="cls-4" d="M250.27,570.14H246V568h-.06a4.78,4.78,0,0,1-4.38,2.47,4.59,4.59,0,0,1-3.36-1.21,4.35,4.35,0,0,1-1.23-3.24q0-4.27,5.07-4.94l4-.53c0-1.61-.87-2.41-2.62-2.41a8.92,8.92,0,0,0-5,1.56v-3.41a10.54,10.54,0,0,1,2.59-.86,13.52,13.52,0,0,1,3-.38q6.28,0,6.29,6.27Zm-4.26-6v-1l-2.67.34c-1.48.19-2.21.86-2.21,2a1.68,1.68,0,0,0,.53,1.27,2.08,2.08,0,0,0,1.46.49,2.67,2.67,0,0,0,2.08-.88A3.17,3.17,0,0,0,246,564.17Z"/><path class="cls-4" d="M252.9,569.75v-3.67a9.52,9.52,0,0,0,2.23,1,7.38,7.38,0,0,0,2.1.33,4.5,4.5,0,0,0,1.9-.33,1.06,1.06,0,0,0,.7-1,.93.93,0,0,0-.32-.72,2.87,2.87,0,0,0-.81-.5,7.58,7.58,0,0,0-1.08-.39c-.39-.12-.77-.24-1.13-.39a10.23,10.23,0,0,1-1.55-.71,4.55,4.55,0,0,1-1.12-.88,3.57,3.57,0,0,1-.69-1.16,4.9,4.9,0,0,1-.23-1.57,4,4,0,0,1,.54-2.12,4.25,4.25,0,0,1,1.43-1.46,6.35,6.35,0,0,1,2.05-.83,10.6,10.6,0,0,1,2.41-.27,13.4,13.4,0,0,1,2,.15,14.89,14.89,0,0,1,2,.44v3.5a7.48,7.48,0,0,0-1.85-.75,7.58,7.58,0,0,0-1.93-.25,3.71,3.71,0,0,0-.83.08,2.62,2.62,0,0,0-.7.23,1.42,1.42,0,0,0-.48.38.94.94,0,0,0-.17.54,1,1,0,0,0,.26.69,2.27,2.27,0,0,0,.68.5,6.08,6.08,0,0,0,.92.37l1,.34a12.65,12.65,0,0,1,1.64.69,5.4,5.4,0,0,1,1.26.87,3.68,3.68,0,0,1,.8,1.18,4.11,4.11,0,0,1,.28,1.61,4.18,4.18,0,0,1-.57,2.23,4.54,4.54,0,0,1-1.51,1.51,6.72,6.72,0,0,1-2.16.84,11.86,11.86,0,0,1-2.55.27A13,13,0,0,1,252.9,569.75Z"/><path class="cls-4" d="M279.5,568.43h-.06v1.71H274.9V548.38h4.54v9.27h.06a5.37,5.37,0,0,1,4.78-2.57,5.23,5.23,0,0,1,4.37,1.95,8.42,8.42,0,0,1,1.54,5.34,9.15,9.15,0,0,1-1.79,5.9,5.85,5.85,0,0,1-4.8,2.23A4.61,4.61,0,0,1,279.5,568.43Zm-.13-6.2v1.51a3.46,3.46,0,0,0,.81,2.35,2.68,2.68,0,0,0,2.1.93,2.77,2.77,0,0,0,2.4-1.19,5.79,5.79,0,0,0,.86-3.4,4.64,4.64,0,0,0-.78-2.85,2.67,2.67,0,0,0-2.24-1,2.91,2.91,0,0,0-2.26,1A3.92,3.92,0,0,0,279.37,562.23Z"/><path class="cls-4" d="M306.34,564.08h-9.59c.15,2.14,1.5,3.2,4,3.2a7.87,7.87,0,0,0,4.27-1.15v3.28a11.31,11.31,0,0,1-5.3,1.09,6.84,6.84,0,0,1-7.49-7.48,7.86,7.86,0,0,1,2.12-5.8,7.11,7.11,0,0,1,5.23-2.14,6.43,6.43,0,0,1,5,1.91,7.36,7.36,0,0,1,1.76,5.18Zm-4.21-2.78c0-2.11-.85-3.16-2.55-3.16a2.44,2.44,0,0,0-1.89.9,4.19,4.19,0,0,0-1,2.26Z"/><path class="cls-4" d="M322.24,564.08h-9.59c.16,2.14,1.5,3.2,4,3.2a7.81,7.81,0,0,0,4.26-1.15v3.28a11.28,11.28,0,0,1-5.3,1.09,6.85,6.85,0,0,1-7.49-7.48,7.86,7.86,0,0,1,2.13-5.8,7.08,7.08,0,0,1,5.22-2.14,6.46,6.46,0,0,1,5,1.91,7.35,7.35,0,0,1,1.75,5.18ZM318,561.3c0-2.11-.85-3.16-2.56-3.16a2.44,2.44,0,0,0-1.88.9,4,4,0,0,0-1,2.26Z"/><path class="cls-4" d="M339.14,570.14h-4.52V562c0-2.28-.82-3.41-2.44-3.41a2.43,2.43,0,0,0-1.94.9,3.43,3.43,0,0,0-.76,2.3v8.38h-4.54v-14.7h4.54v2.33h.06a5.19,5.19,0,0,1,4.72-2.69q4.88,0,4.88,6.06Z"/><path class="cls-4" d="M365.16,555.14l-5.58,15h-5.27l-5.32-15h4.95l2.61,9.24a13.91,13.91,0,0,1,.51,2.67h.06a15.74,15.74,0,0,1,.54-2.58l2.67-9.33Z"/><path class="cls-4" d="M380.61,564h-9.78c.15,2.18,1.53,3.26,4.11,3.26a8.06,8.06,0,0,0,4.36-1.17v3.34a11.47,11.47,0,0,1-5.41,1.12,7,7,0,0,1-7.65-7.64,8,8,0,0,1,2.17-5.91,7.21,7.21,0,0,1,5.33-2.19,6.56,6.56,0,0,1,5.08,2,7.48,7.48,0,0,1,1.79,5.29Zm-4.29-2.84c0-2.15-.87-3.23-2.61-3.23a2.47,2.47,0,0,0-1.92.93,4.2,4.2,0,0,0-1,2.3Z"/><path class="cls-4" d="M393.15,559.31a4,4,0,0,0-1.95-.45,2.79,2.79,0,0,0-2.35,1.11,4.79,4.79,0,0,0-.85,3v7.16h-4.63v-15H388v2.78h.06a4,4,0,0,1,3.95-3,2.91,2.91,0,0,1,1.14.17Z"/><path class="cls-4" d="M397.65,552.77a2.69,2.69,0,0,1-1.92-.7,2.23,2.23,0,0,1-.75-1.71,2.13,2.13,0,0,1,.75-1.69,3.14,3.14,0,0,1,3.85,0,2.15,2.15,0,0,1,.74,1.69,2.24,2.24,0,0,1-.74,1.73A2.77,2.77,0,0,1,397.65,552.77Zm2.29,17.37h-4.63v-15h4.63Z"/><path class="cls-4" d="M413.62,551.48a4.59,4.59,0,0,0-1.72-.35c-1.48,0-2.22.8-2.22,2.41v1.6h3.42v3.41h-3.42v11.59h-4.62V558.55h-2.52v-3.41h2.52v-1.86a5.4,5.4,0,0,1,1.67-4.13,6.36,6.36,0,0,1,4.54-1.57,8.23,8.23,0,0,1,2.35.29Z"/><path class="cls-4" d="M417.67,552.77a2.65,2.65,0,0,1-1.91-.7,2.23,2.23,0,0,1-.75-1.71,2.13,2.13,0,0,1,.75-1.69,3.12,3.12,0,0,1,3.84,0,2.15,2.15,0,0,1,.74,1.69,2.24,2.24,0,0,1-.74,1.73A2.74,2.74,0,0,1,417.67,552.77ZM420,570.14h-4.63v-15H420Z"/><path class="cls-4" d="M437.33,564h-9.78c.15,2.18,1.53,3.26,4.11,3.26a8,8,0,0,0,4.35-1.17v3.34a11.4,11.4,0,0,1-5.4,1.12,7,7,0,0,1-7.65-7.64,8,8,0,0,1,2.17-5.91,7.21,7.21,0,0,1,5.33-2.19,6.56,6.56,0,0,1,5.08,2,7.53,7.53,0,0,1,1.79,5.29ZM433,561.12c0-2.15-.87-3.23-2.61-3.23a2.47,2.47,0,0,0-1.92.93,4.13,4.13,0,0,0-1,2.3Z"/><path class="cls-4" d="M454.76,570.14h-4.62v-2.07h-.06a5.2,5.2,0,0,1-4.65,2.44,5.69,5.69,0,0,1-4.52-2,8.17,8.17,0,0,1-1.72-5.54,9,9,0,0,1,1.89-6,6.17,6.17,0,0,1,4.95-2.24,4.24,4.24,0,0,1,4.05,2.08h.06v-8.92h4.62Zm-4.54-7.3v-1.12a3.51,3.51,0,0,0-.85-2.43,3,3,0,0,0-4.61.24,5.56,5.56,0,0,0-.86,3.31,4.84,4.84,0,0,0,.83,3,3,3,0,0,0,4.61-.06A4.69,4.69,0,0,0,450.22,562.84Z"/></g></g></svg>