<?xml version="1.0" encoding="utf-8"?>
<!-- Generator: Adobe Illustrator 22.1.0, SVG Export Plug-In . SVG Version: 6.00 Build 0)  -->
<svg version="1.1" id="Layer_1" xmlns="http://www.w3.org/2000/svg" xmlns:xlink="http://www.w3.org/1999/xlink" x="0px" y="0px"
	 viewBox="0 0 512.4 570.5" style="enable-background:new 0 0 512.4 570.5;" xml:space="preserve">
<style type="text/css">
	.st0{fill:#F7BF2B;}
	.st1{fill:#FFFFFF;}
	.st2{fill:none;stroke:#FFFFFF;stroke-width:5.75;stroke-linecap:round;stroke-miterlimit:10;stroke-dasharray:34.52,8.63,57.54;}
	.st3{fill:#F1972D;}
	.st4{fill:#0D3747;}
	.st5{fill:#F7F1E3;}
	.st6{fill:none;stroke:#0D3747;stroke-width:7.49;stroke-linecap:round;stroke-linejoin:round;}
	.st7{fill:#FBD427;}
	.st8{fill:#39B54A;}
	.st9{fill:#F02D44;}
	.st10{fill:#FFB54A;}
</style>
<rect x="-0.3" y="-0.7" class="st0" width="488" height="634"/>
<title>email_verified_1</title>
<g>
	<path class="st1" d="M-1117.8,271.5c0,123.3-100,223.3-223.3,223.3s-223.3-100-223.3-223.3s100-223.3,223.3-223.3
		S-1117.8,148.2-1117.8,271.5z"/>
	<path class="st2" d="M-1137.8,120.3c32.6,43.7,50.1,96.7,50,151.2c0,139.9-113.4,253.3-253.3,253.3s-253.3-113.4-253.3-253.3
		S-1481,18.2-1341.1,18.2c39.5-0.1,78.5,9.2,113.8,26.9"/>
	<path class="st3" d="M-1534.2,504.9c-1.9,0-3.4-1.5-3.4-3.4V264.6c0-1.9,1.5-3.4,3.3-3.4c0,0,0,0,0,0h388.9c1.9,0,3.4,1.5,3.4,3.4
		v236.9c0,1.9-1.5,3.4-3.4,3.4H-1534.2z"/>
	<path class="st4" d="M-1145.3,264.6v236.9h-388.9V264.6H-1145.3 M-1145.3,257.9h-388.9c-3.7,0-6.7,3-6.7,6.7l0,0v236.9
		c0,3.7,3,6.7,6.7,6.7h388.9c3.7,0,6.7-3,6.7-6.7l0,0V264.6C-1138.6,260.9-1141.6,257.9-1145.3,257.9
		C-1145.3,257.9-1145.3,257.9-1145.3,257.9z"/>
	<path class="st3" d="M-1534.2,268c-1.9,0-3.4-1.5-3.4-3.3c0-1.1,0.5-2.1,1.4-2.8l194.5-138.6c1.2-0.8,2.7-0.8,3.9,0l194.5,138.6
		c1.5,1.1,1.8,3.2,0.8,4.7c-0.6,0.9-1.7,1.4-2.8,1.4H-1534.2z"/>
	<path class="st4" d="M-1339.8,126l194.5,138.6h-388.9L-1339.8,126 M-1339.8,119.3c-1.4,0-2.8,0.4-3.9,1.3l-194.5,138.6
		c-3,2.2-3.7,6.4-1.6,9.4c1.3,1.8,3.3,2.8,5.5,2.8h388.9c3.7,0,6.7-3,6.7-6.7c0-2.2-1.1-4.2-2.8-5.5l-194.5-138.6
		C-1337,119.7-1338.4,119.3-1339.8,119.3L-1339.8,119.3z"/>
	<path class="st5" d="M-1492.7,442.3c-1.9,0-3.4-1.5-3.4-3.4V40.2c0-1.9,1.5-3.4,3.4-3.4l0,0h247.2c0.9,0,1.8,0.4,2.4,1l58.6,58.6
		c0.6,0.6,1,1.5,1,2.4V439c0,1.9-1.5,3.4-3.4,3.4L-1492.7,442.3z"/>
	<path class="st4" d="M-1245.5,40.2l58.6,58.6V439h-305.8V40.2H-1245.5 M-1245.5,33.5h-247.2c-3.7,0-6.7,3-6.7,6.7c0,0,0,0,0,0V439
		c0,3.7,3,6.7,6.7,6.7c0,0,0,0,0,0h305.8c3.7,0,6.7-3,6.7-6.7c0,0,0,0,0,0V98.8c0-1.8-0.7-3.5-2-4.8l-58.6-58.6
		C-1242,34.2-1243.7,33.4-1245.5,33.5L-1245.5,33.5z"/>
	<path class="st5" d="M-1249.1,105.7c-0.9,0-1.8-0.4-2.4-1c-0.7-0.7-1.1-1.6-1-2.6l3.6-62.2c0.1-1.3,0.9-2.5,2.2-3
		c1.2-0.5,2.6-0.2,3.6,0.8l58.6,58.6c1.3,1.3,1.3,3.5,0,4.8c-0.6,0.6-1.4,0.9-2.2,1L-1249.1,105.7z"/>
	<path class="st4" d="M-1245.5,40.2l58.6,58.6l-62.2,3.6L-1245.5,40.2 M-1245.5,33.5c-3.6,0-6.5,2.8-6.7,6.3l-3.6,62.2
		c-0.2,3.7,2.6,6.9,6.3,7.1c0.1,0,0.3,0,0.4,0h0.4l62.2-3.6c3.7-0.2,6.5-3.4,6.3-7.1c-0.1-1.6-0.8-3.2-2-4.4l-58.6-58.6
		C-1242,34.2-1243.7,33.4-1245.5,33.5L-1245.5,33.5z"/>
	<line class="st6" x1="-1443.4" y1="134.2" x2="-1236.1" y2="134.2"/>
	<line class="st6" x1="-1443.4" y1="170.1" x2="-1236.1" y2="170.1"/>
	<line class="st6" x1="-1443.4" y1="206.1" x2="-1236.1" y2="206.1"/>
	<line class="st6" x1="-1443.4" y1="242" x2="-1236.1" y2="242"/>
	<line class="st6" x1="-1443.4" y1="277.9" x2="-1236.1" y2="277.9"/>
	<line class="st6" x1="-1443.4" y1="313.8" x2="-1236.1" y2="313.8"/>
	<line class="st6" x1="-1443.4" y1="349.7" x2="-1236.1" y2="349.7"/>
	<line class="st6" x1="-1443.4" y1="385.6" x2="-1236.1" y2="385.6"/>
	<path class="st0" d="M-1534.2,504.9c-1.9,0-3.4-1.5-3.4-3.4V264.6c0-1.9,1.5-3.4,3.3-3.4c0.7,0,1.4,0.2,1.9,0.6l192.5,137.2
		l192.5-137.2c1-0.7,2.4-0.8,3.5-0.3c1.1,0.6,1.8,1.7,1.8,3v236.9c0,1.9-1.5,3.4-3.4,3.4H-1534.2z"/>
	<path class="st4" d="M-1145.3,264.6v236.9h-388.9V264.6l194.5,138.6L-1145.3,264.6 M-1145.3,257.9c-1.4,0-2.8,0.4-3.9,1.3
		L-1339.8,395l-190.5-135.8c-3-2.2-7.2-1.5-9.4,1.6c-0.8,1.1-1.3,2.5-1.3,3.9v236.9c0,3.7,3,6.7,6.7,6.7h388.9c3.7,0,6.7-3,6.7-6.7
		l0,0V264.6C-1138.6,260.9-1141.6,257.9-1145.3,257.9z"/>
	<path class="st7" d="M-1534.2,504.9c-1.9,0-3.4-1.5-3.4-3.3c0-1.2,0.6-2.3,1.6-2.9l194.5-118.4c1.1-0.7,2.4-0.7,3.5,0l194.5,118.4
		c1.6,1,2.1,3,1.1,4.6c-0.6,1-1.7,1.6-2.9,1.6H-1534.2z"/>
	<path class="st4" d="M-1339.8,383.1l194.5,118.4h-388.9L-1339.8,383.1 M-1339.8,376.3c-1.2,0-2.4,0.4-3.5,1l-194.5,118.4
		c-3.2,1.9-4.2,6.1-2.3,9.2c1.2,2,3.4,3.2,5.8,3.2h388.9c3.7,0,6.7-3,6.7-6.7c0-2.3-1.2-4.5-3.2-5.7l-194.5-118.4
		C-1337.3,376.7-1338.6,376.3-1339.8,376.3L-1339.8,376.3z"/>
	<circle class="st1" cx="-1475.2" cy="58.1" r="55.4"/>
	<path class="st4" d="M-1475.2,116.2c-32.1,0-58.1-26-58.1-58.1s26-58.1,58.1-58.1s58.1,26,58.1,58.1c0,0,0,0,0,0
		C-1417.2,90.2-1443.1,116.2-1475.2,116.2z M-1475.2,5.4c-29.1,0-52.7,23.6-52.7,52.7s23.6,52.7,52.7,52.7s52.7-23.6,52.7-52.7
		C-1422.5,29-1446.1,5.4-1475.2,5.4z"/>
	<g id="_Group_">
		<polygon id="_Path_" class="st8" points="-1487,82.3 -1507.3,62 -1495.9,50.5 -1487,59.4 -1458,30.3 -1446.6,41.8 		"/>
	</g>
</g>
<path class="st4" d="M-1517.9,549.5l-6.7,13.3v7.3h-4.6v-7.2l-6.5-13.4h5.3l3.3,7.7c0.1,0.1,0.2,0.7,0.5,1.7l0,0
	c0.1-0.6,0.2-1.1,0.5-1.6l3.4-7.7L-1517.9,549.5z"/>
<path class="st4" d="M-1509,570.5c-2.1,0.1-4.2-0.6-5.8-2.1c-2.8-3.2-2.8-8.1,0.1-11.3c1.6-1.4,3.7-2.2,5.9-2.1
	c2.1-0.1,4.2,0.6,5.7,2.1c1.4,1.4,2.2,3.4,2.1,5.5c0.1,2.1-0.7,4.2-2.2,5.8C-1504.7,569.8-1506.8,570.6-1509,570.5z M-1508.9,558.6
	c-1-0.1-1.9,0.4-2.5,1.1c-0.6,0.9-1,2-0.9,3.1c0,2.8,1.1,4.2,3.4,4.2c2.2,0,3.3-1.4,3.3-4.3
	C-1505.6,559.9-1506.7,558.6-1508.9,558.6z"/>
<path class="st4" d="M-1484,570.1h-4.5v-2.2h-0.1c-0.9,1.6-2.6,2.6-4.5,2.6c-3.4,0-5.1-2.1-5.1-6.2v-8.9h4.5v8.5
	c0,2.1,0.8,3.1,2.5,3.1c0.8,0,1.5-0.3,2-0.8c0.5-0.7,0.8-1.5,0.7-2.3v-8.4h4.5L-1484,570.1z"/>
<path class="st4" d="M-1470.6,559.5c-0.6-0.3-1.2-0.5-1.9-0.4c-0.9,0-1.8,0.4-2.3,1.1c-0.6,0.9-0.9,1.9-0.8,3v7h-4.5v-14.7h4.5v2.7
	h0.1c0.4-1.8,2-3,3.9-3c0.4,0,0.8,0,1.1,0.2V559.5z"/>
<path class="st4" d="M-1447.2,564.1h-9.6c0.1,2.1,1.5,3.2,4,3.2c1.5,0,3-0.4,4.3-1.2v3.3c-1.6,0.8-3.5,1.2-5.3,1.1
	c-3.8,0.4-7.1-2.4-7.5-6.2c0-0.4,0-0.9,0-1.3c-0.1-2.1,0.7-4.2,2.1-5.8c1.4-1.4,3.3-2.2,5.2-2.1c1.9-0.1,3.7,0.6,5,1.9
	c1.2,1.4,1.9,3.3,1.8,5.2L-1447.2,564.1z M-1451.4,561.3c0-2.1-0.9-3.2-2.6-3.2c-0.7,0-1.4,0.3-1.9,0.9c-0.6,0.6-0.9,1.4-1,2.3
	L-1451.4,561.3z"/>
<path class="st4" d="M-1421.2,570.1h-4.5v-8.4c0-2.1-0.8-3.2-2.4-3.2c-0.7,0-1.4,0.4-1.8,1c-0.5,0.7-0.7,1.5-0.7,2.4v8.2h-4.5v-8.5
	c0-2.1-0.8-3.1-2.3-3.1c-0.7,0-1.4,0.3-1.9,0.9c-0.5,0.7-0.8,1.6-0.7,2.5v8.2h-4.5v-14.7h4.5v2.3h0.1c0.5-0.8,1.2-1.5,2-1.9
	c0.8-0.5,1.8-0.7,2.8-0.7c1.9-0.1,3.6,1,4.3,2.7c1-1.8,2.9-2.8,4.9-2.7c3.2,0,4.8,2,4.8,5.9L-1421.2,570.1z"/>
<path class="st4" d="M-1405.4,570.1h-4.3V568h-0.1c-0.9,1.6-2.6,2.5-4.4,2.5c-1.2,0.1-2.4-0.4-3.4-1.2c-0.8-0.9-1.3-2-1.2-3.2
	c0-2.8,1.7-4.5,5.1-4.9l4-0.5c0-1.6-0.9-2.4-2.6-2.4c-1.8,0-3.5,0.6-5,1.6v-3.4c0.8-0.4,1.7-0.7,2.6-0.9c1-0.2,2-0.4,3-0.4
	c4.2,0,6.3,2.1,6.3,6.3L-1405.4,570.1z M-1409.6,564.1v-1l-2.7,0.3c-1.5,0.2-2.2,0.9-2.2,2c0,0.5,0.2,0.9,0.5,1.3
	c0.4,0.3,0.9,0.5,1.4,0.5c0.8,0,1.6-0.3,2.1-0.9C-1409.9,565.8-1409.6,565-1409.6,564.1L-1409.6,564.1z"/>
<path class="st4" d="M-1399.5,553.1c-0.7,0-1.4-0.2-1.9-0.7c-0.5-0.4-0.7-1-0.7-1.7c0-0.6,0.2-1.2,0.7-1.7c1.1-0.9,2.7-0.9,3.8,0
	c0.5,0.4,0.7,1,0.7,1.7c0,0.6-0.2,1.3-0.7,1.7C-1398.1,552.9-1398.8,553.1-1399.5,553.1z M-1397.2,570.1h-4.5v-14.7h4.5V570.1z"/>
<path class="st4" d="M-1388.9,570.1h-4.5v-21.8h4.5V570.1z"/>
<path class="st4" d="M-1362.8,570.1h-4.5v-8.3c0-2.2-0.8-3.2-2.3-3.2c-0.8,0-1.5,0.3-2,0.9c-0.5,0.7-0.8,1.5-0.7,2.3v8.4h-4.5v-21.8
	h4.5v9.2h0c0.9-1.6,2.7-2.6,4.5-2.5c3.3,0,5,2,5,6L-1362.8,570.1z"/>
<path class="st4" d="M-1347,570.1h-4.3V568h-0.1c-0.9,1.6-2.6,2.5-4.4,2.5c-1.2,0.1-2.4-0.4-3.4-1.2c-0.8-0.9-1.3-2-1.2-3.2
	c0-2.8,1.7-4.5,5.1-4.9l4-0.5c0-1.6-0.9-2.4-2.6-2.4c-1.8,0-3.5,0.6-5,1.6v-3.4c0.8-0.4,1.7-0.7,2.6-0.9c1-0.2,2-0.4,3-0.4
	c4.2,0,6.3,2.1,6.3,6.3L-1347,570.1z M-1351.3,564.1v-1l-2.7,0.3c-1.5,0.2-2.2,0.9-2.2,2c0,0.5,0.2,0.9,0.5,1.3
	c0.4,0.3,0.9,0.5,1.5,0.5c0.8,0,1.6-0.3,2.1-0.9C-1351.6,565.8-1351.3,565-1351.3,564.1L-1351.3,564.1z"/>
<path class="st4" d="M-1344.4,569.7v-3.7c0.7,0.4,1.4,0.8,2.2,1c0.7,0.2,1.4,0.3,2.1,0.3c0.6,0,1.3-0.1,1.9-0.3
	c0.4-0.2,0.7-0.6,0.7-1c0-0.3-0.1-0.5-0.3-0.7c-0.2-0.2-0.5-0.4-0.8-0.5c-0.3-0.2-0.7-0.3-1.1-0.4c-0.4-0.1-0.8-0.2-1.1-0.4
	c-0.5-0.2-1.1-0.4-1.5-0.7c-0.4-0.2-0.8-0.5-1.1-0.9c-0.3-0.3-0.5-0.7-0.7-1.2c-0.2-0.5-0.2-1-0.2-1.6c0-0.7,0.2-1.5,0.5-2.1
	c0.4-0.6,0.8-1.1,1.4-1.5c0.6-0.4,1.3-0.7,2.1-0.8c0.8-0.2,1.6-0.3,2.4-0.3c0.7,0,1.3,0.1,2,0.2c0.7,0.1,1.3,0.2,2,0.4v3.5
	c-0.6-0.3-1.2-0.6-1.9-0.8c-0.6-0.2-1.3-0.2-1.9-0.3c-0.3,0-0.6,0-0.8,0.1c-0.2,0-0.5,0.1-0.7,0.2c-0.2,0.1-0.3,0.2-0.5,0.4
	c-0.1,0.2-0.2,0.3-0.2,0.5c0,0.3,0.1,0.5,0.3,0.7c0.2,0.2,0.4,0.4,0.7,0.5c0.3,0.1,0.6,0.3,0.9,0.4l1,0.3c0.6,0.2,1.1,0.4,1.6,0.7
	c0.5,0.2,0.9,0.5,1.3,0.9c0.3,0.3,0.6,0.7,0.8,1.2c0.2,0.5,0.3,1.1,0.3,1.6c0,0.8-0.2,1.6-0.6,2.2c-0.4,0.6-0.9,1.1-1.5,1.5
	c-0.7,0.4-1.4,0.7-2.2,0.8c-0.8,0.2-1.7,0.3-2.5,0.3C-1341.4,570.5-1342.9,570.3-1344.4,569.7z"/>
<path class="st4" d="M-1317.8,568.4L-1317.8,568.4l-0.1,1.7h-4.5v-21.8h4.5v9.3h0.1c1-1.7,2.8-2.6,4.8-2.6c1.7-0.1,3.3,0.6,4.4,2
	c1.1,1.6,1.6,3.4,1.5,5.3c0.1,2.1-0.5,4.2-1.8,5.9c-1.2,1.5-2.9,2.3-4.8,2.2C-1315.3,570.6-1316.9,569.8-1317.8,568.4z
	 M-1317.9,562.2v1.5c0,0.9,0.3,1.7,0.8,2.3c0.5,0.6,1.3,1,2.1,0.9c1,0,1.9-0.4,2.4-1.2c0.6-1,0.9-2.2,0.9-3.4c0.1-1-0.2-2-0.8-2.8
	c-0.5-0.7-1.4-1-2.2-1c-0.9,0-1.7,0.3-2.3,1C-1317.6,560.3-1318,561.3-1317.9,562.2z"/>
<path class="st4" d="M-1290.9,564.1h-9.6c0.2,2.1,1.5,3.2,4,3.2c1.5,0,3-0.4,4.3-1.2v3.3c-1.7,0.8-3.5,1.2-5.3,1.1
	c-3.8,0.4-7.1-2.4-7.5-6.1c0-0.5,0-0.9,0-1.4c-0.1-2.1,0.7-4.2,2.1-5.8c1.4-1.4,3.3-2.2,5.2-2.1c1.9-0.1,3.7,0.6,5,1.9
	c1.2,1.4,1.9,3.3,1.8,5.2V564.1z M-1295.2,561.3c0-2.1-0.9-3.2-2.6-3.2c-0.7,0-1.4,0.3-1.9,0.9c-0.6,0.6-0.9,1.4-1,2.3
	L-1295.2,561.3z"/>
<path class="st4" d="M-1275.1,564.1h-9.6c0.2,2.1,1.5,3.2,4,3.2c1.5,0,3-0.4,4.3-1.2v3.3c-1.7,0.8-3.5,1.2-5.3,1.1
	c-3.8,0.4-7.1-2.4-7.5-6.1c0-0.4,0-0.9,0-1.3c-0.1-2.1,0.7-4.2,2.1-5.8c1.4-1.4,3.3-2.2,5.2-2.1c1.9-0.1,3.7,0.6,5,1.9
	c1.2,1.4,1.9,3.3,1.8,5.2L-1275.1,564.1z M-1279.3,561.3c0-2.1-0.8-3.2-2.6-3.2c-0.7,0-1.4,0.3-1.9,0.9c-0.6,0.6-0.9,1.4-1,2.3
	L-1279.3,561.3z"/>
<path class="st4" d="M-1258.1,570.1h-4.5V562c0-2.3-0.8-3.4-2.4-3.4c-0.8,0-1.5,0.3-1.9,0.9c-0.5,0.6-0.8,1.5-0.8,2.3v8.4h-4.5
	v-14.7h4.5v2.3h0.1c0.9-1.7,2.8-2.8,4.7-2.7c3.3,0,4.9,2,4.9,6.1V570.1z"/>
<path class="st4" d="M-1232.1,555.1l-5.6,15h-5.3l-5.3-15h4.9l2.6,9.2c0.3,0.9,0.4,1.8,0.5,2.7h0.1c0.1-0.9,0.3-1.7,0.5-2.6l2.7-9.3
	L-1232.1,555.1z"/>
<path class="st4" d="M-1216.7,564h-9.8c0.1,2.2,1.5,3.3,4.1,3.3c1.5,0,3-0.4,4.4-1.2v3.3c-1.7,0.8-3.5,1.2-5.4,1.1
	c-3.8,0.4-7.3-2.4-7.6-6.3c0-0.5,0-0.9,0-1.4c-0.1-2.2,0.7-4.3,2.2-5.9c1.4-1.4,3.3-2.2,5.3-2.2c1.9-0.1,3.8,0.6,5.1,2
	c1.3,1.5,1.9,3.4,1.8,5.3L-1216.7,564z M-1221,561.2c0-2.2-0.9-3.2-2.6-3.2c-0.7,0-1.5,0.3-1.9,0.9c-0.6,0.6-0.9,1.4-1,2.3H-1221z"
	/>
<path class="st4" d="M-1204.1,559.3c-0.6-0.3-1.3-0.5-1.9-0.5c-0.9,0-1.8,0.4-2.3,1.1c-0.6,0.9-0.9,1.9-0.9,3v7.2h-4.6v-15h4.6v2.8
	h0.1c0.5-1.8,2.1-3,3.9-3c0.4,0,0.8,0,1.1,0.2L-1204.1,559.3z"/>
<path class="st4" d="M-1199.6,552.8c-0.7,0-1.4-0.2-1.9-0.7c-0.5-0.4-0.8-1.1-0.8-1.7c0-0.6,0.3-1.3,0.8-1.7c1.1-0.9,2.7-0.9,3.9,0
	c0.5,0.4,0.8,1,0.7,1.7c0,0.7-0.3,1.3-0.7,1.7C-1198.2,552.6-1198.9,552.8-1199.6,552.8z M-1197.3,570.1h-4.6v-15h4.6V570.1z"/>
<path class="st4" d="M-1183.7,551.5c-0.5-0.2-1.1-0.3-1.7-0.3c-1.5,0-2.2,0.8-2.2,2.4v1.6h3.4v3.4h-3.4v11.6h-4.6v-11.6h-2.5v-3.4
	h2.5v-1.9c-0.1-1.6,0.5-3.1,1.7-4.1c1.2-1.1,2.9-1.7,4.5-1.6c0.8,0,1.6,0.1,2.4,0.3V551.5z"/>
<path class="st4" d="M-1179.6,552.8c-0.7,0-1.4-0.2-1.9-0.7c-0.5-0.4-0.8-1.1-0.8-1.7c0-0.6,0.3-1.3,0.8-1.7c1.1-0.9,2.7-0.9,3.8,0
	c0.5,0.4,0.8,1,0.7,1.7c0,0.7-0.3,1.3-0.7,1.7C-1178.2,552.6-1178.9,552.8-1179.6,552.8z M-1177.3,570.1h-4.6v-15h4.6V570.1z"/>
<path class="st4" d="M-1160,564h-9.8c0.2,2.2,1.5,3.3,4.1,3.3c1.5,0,3-0.4,4.3-1.2v3.3c-1.7,0.8-3.5,1.2-5.4,1.1
	c-3.8,0.4-7.3-2.4-7.6-6.3c0-0.5,0-0.9,0-1.4c-0.1-2.2,0.7-4.3,2.2-5.9c1.4-1.4,3.3-2.2,5.3-2.2c1.9-0.1,3.8,0.6,5.1,2
	c1.3,1.5,1.9,3.4,1.8,5.3V564z M-1164.3,561.1c0-2.2-0.9-3.2-2.6-3.2c-0.7,0-1.5,0.3-1.9,0.9c-0.6,0.6-0.9,1.4-1,2.3H-1164.3z"/>
<path class="st4" d="M-1142.5,570.1h-4.6v-2.1h-0.1c-1,1.6-2.8,2.5-4.7,2.4c-1.7,0.1-3.4-0.7-4.5-2c-1.2-1.6-1.8-3.5-1.7-5.5
	c-0.1-2.2,0.6-4.3,1.9-6c1.2-1.5,3-2.3,5-2.2c1.6-0.2,3.2,0.7,4,2.1h0.1v-8.9h4.6L-1142.5,570.1z M-1147.1,562.8v-1.1
	c0-0.9-0.3-1.8-0.8-2.4c-1.1-1.2-3-1.3-4.2-0.2c-0.1,0.1-0.3,0.3-0.4,0.4c-0.6,1-0.9,2.1-0.9,3.3c-0.1,1.1,0.2,2.1,0.8,3
	c1.1,1.3,3,1.4,4.2,0.3c0.1-0.1,0.3-0.2,0.4-0.4C-1147.3,564.9-1147,563.9-1147.1,562.8z"/>
<path class="st1" d="M-585.3,294.4c0,123.3-100,223.3-223.3,223.3s-223.3-100-223.3-223.3S-931.9,71-808.6,71
	S-585.3,171-585.3,294.4z"/>
<path class="st2" d="M-605.3,143.2c32.6,43.7,50.1,96.7,50,151.2c0,139.9-113.4,253.3-253.3,253.3S-1062,434.3-1062,294.4
	S-948.6,41-808.6,41c39.5-0.1,78.5,9.2,113.8,26.9"/>
<g>
	<path class="st3" d="M-1001.8,527.7c-1.9,0-3.4-1.5-3.4-3.4V287.5c0-1.9,1.5-3.4,3.4-3.4c0,0,0,0,0,0h388.9c1.9,0,3.4,1.5,3.4,3.4
		v236.9c0,1.9-1.5,3.4-3.4,3.4H-1001.8z"/>
	<path class="st4" d="M-612.8,287.5v236.9h-388.9V287.5H-612.8 M-612.8,280.7h-388.9c-3.7,0-6.7,3-6.7,6.7l0,0v236.9
		c0,3.7,3,6.7,6.7,6.7h388.9c3.7,0,6.7-3,6.7-6.7l0,0V287.5C-606.1,283.8-609.1,280.8-612.8,280.7
		C-612.8,280.7-612.8,280.7-612.8,280.7z"/>
	<path class="st3" d="M-1001.8,290.8c-1.9,0-3.4-1.5-3.4-3.3c0-1.1,0.5-2.1,1.4-2.8l194.5-138.6c1.2-0.8,2.7-0.8,3.9,0l194.5,138.6
		c1.5,1.1,1.8,3.2,0.8,4.7c-0.6,0.9-1.7,1.4-2.8,1.4H-1001.8z"/>
	<path class="st4" d="M-807.3,148.8l194.5,138.6h-388.9L-807.3,148.8 M-807.3,142.1c-1.4,0-2.8,0.4-3.9,1.3L-1005.7,282
		c-3,2.2-3.7,6.4-1.6,9.4c1.3,1.8,3.3,2.8,5.5,2.8h388.9c3.7,0,6.7-3,6.7-6.7c0-2.2-1.1-4.2-2.8-5.5l-194.5-138.6
		C-804.5,142.6-805.9,142.1-807.3,142.1L-807.3,142.1z"/>
	<path class="st5" d="M-961.7,469.7c-1.9,0-3.4-1.5-3.4-3.4V67.5c0-1.9,1.5-3.4,3.4-3.4l0,0h247.2c0.9,0,1.8,0.4,2.4,1l58.6,58.6
		c0.6,0.6,1,1.5,1,2.4v340.2c0,1.9-1.5,3.4-3.4,3.4L-961.7,469.7z"/>
	<path class="st4" d="M-713.1,63l58.6,58.6v340.2h-305.8V63H-713.1 M-713.1,56.3h-247.1c-3.7,0-6.7,3-6.7,6.7c0,0,0,0,0,0v398.8
		c0,3.7,3,6.7,6.7,6.7c0,0,0,0,0,0h305.8c3.7,0,6.7-3,6.7-6.7c0,0,0,0,0,0V121.6c0-1.8-0.7-3.5-2-4.8l-58.6-58.6
		C-709.6,57-711.3,56.3-713.1,56.3L-713.1,56.3z"/>
	<path class="st5" d="M-716.6,128.6c-0.9,0-1.8-0.4-2.4-1c-0.7-0.7-1.1-1.6-1-2.6l3.6-62.2c0.1-1.3,0.9-2.5,2.2-3
		c1.2-0.5,2.6-0.2,3.6,0.8l58.6,58.6c1.3,1.3,1.3,3.5,0,4.8c-0.6,0.6-1.4,0.9-2.2,1L-716.6,128.6z"/>
	<path class="st4" d="M-713.1,63l58.6,58.6l-62.2,3.6L-713.1,63 M-713.1,56.3c-3.6,0-6.5,2.8-6.7,6.3l-3.6,62.2
		c-0.2,3.7,2.6,6.9,6.3,7.1c0.1,0,0.3,0,0.4,0h0.4l62.2-3.6c3.7-0.2,6.5-3.4,6.3-7.1c-0.1-1.6-0.8-3.2-2-4.4l-58.6-58.6
		C-709.6,57-711.3,56.3-713.1,56.3L-713.1,56.3z"/>
	<line class="st6" x1="-911" y1="157.1" x2="-703.7" y2="157.1"/>
	<line class="st6" x1="-911" y1="193" x2="-703.7" y2="193"/>
	<line class="st6" x1="-911" y1="228.9" x2="-703.7" y2="228.9"/>
	<line class="st6" x1="-911" y1="264.8" x2="-703.7" y2="264.8"/>
	<line class="st6" x1="-911" y1="300.7" x2="-703.7" y2="300.7"/>
	<line class="st6" x1="-911" y1="336.6" x2="-703.7" y2="336.6"/>
	<line class="st6" x1="-911" y1="372.6" x2="-703.7" y2="372.6"/>
	<line class="st6" x1="-911" y1="408.5" x2="-703.7" y2="408.5"/>
	<path class="st0" d="M-1001.8,527.7c-1.9,0-3.4-1.5-3.4-3.4V287.5c0-1.9,1.5-3.4,3.3-3.4c0.7,0,1.4,0.2,1.9,0.6L-807.3,422
		l192.5-137.2c1-0.7,2.4-0.8,3.5-0.3c1.1,0.6,1.8,1.7,1.8,3v236.9c0,1.9-1.5,3.4-3.4,3.4H-1001.8z"/>
	<path class="st4" d="M-612.8,287.5v236.9h-388.9V287.5l194.5,138.6L-612.8,287.5 M-612.8,280.7c-1.4,0-2.8,0.4-3.9,1.3
		l-190.6,135.8L-997.8,282c-3-2.2-7.2-1.5-9.4,1.6c-0.8,1.1-1.3,2.5-1.3,3.9v236.9c0,3.7,3,6.7,6.7,6.7h388.9c3.7,0,6.7-3,6.7-6.7
		l0,0V287.5C-606.1,283.8-609.1,280.8-612.8,280.7z"/>
	<path class="st7" d="M-1001.8,527.7c-1.9,0-3.4-1.5-3.4-3.3c0-1.2,0.6-2.3,1.6-2.9L-809.1,403c1.1-0.7,2.4-0.7,3.5,0l194.5,118.4
		c1.6,1,2.1,3,1.1,4.6c-0.6,1-1.7,1.6-2.9,1.6H-1001.8z"/>
	<path class="st4" d="M-807.3,405.9l194.5,118.4h-388.9L-807.3,405.9 M-807.3,399.2c-1.2,0-2.4,0.4-3.5,1l-194.5,118.4
		c-3.2,1.9-4.2,6.1-2.3,9.2c1.2,2,3.4,3.2,5.8,3.2h388.9c3.7,0,6.7-3,6.7-6.7c0-2.3-1.2-4.5-3.2-5.7l-194.5-118.4
		C-804.9,399.5-806.1,399.2-807.3,399.2L-807.3,399.2z"/>
	<g>
		<circle class="st9" cx="-808.6" cy="154.8" r="74.3"/>
		<path class="st4" d="M-808.6,232.7c-43.1,0-78-34.9-78-78s34.9-78,78-78c43.1,0,78,34.9,78,78c0,0,0,0,0,0
			C-730.7,197.8-765.6,232.7-808.6,232.7z M-808.6,84.1c-39.1,0-70.7,31.7-70.7,70.7s31.7,70.7,70.7,70.7
			c39.1,0,70.7-31.7,70.7-70.7C-738,115.8-769.6,84.1-808.6,84.1z"/>
		<polygon class="st1" points="-791.9,154.8 -768.5,178.2 -785.2,195 -808.6,171.6 -832,195 -848.8,178.2 -825.4,154.8 
			-848.8,131.4 -832,114.6 -808.6,138 -785.2,114.6 -768.5,131.4 		"/>
	</g>
</g>
<path class="st1" d="M-52.9,294.4c0,123.3-100,223.3-223.3,223.3s-223.3-100-223.3-223.3S-399.5,71-276.2,71S-52.9,171-52.9,294.4z"
	/>
<path class="st2" d="M-72.9,143.2c32.6,43.7,50.1,96.7,50,151.2c0,139.9-113.4,253.3-253.3,253.3s-253.3-113.4-253.3-253.3
	S-416.1,41-276.2,41c39.5-0.1,78.5,9.2,113.8,26.9"/>
<g>
	<path class="st3" d="M-469.3,527.7c-1.9,0-3.4-1.5-3.4-3.4V287.5c0-1.9,1.5-3.4,3.3-3.4c0,0,0,0,0,0h388.9c1.9,0,3.4,1.5,3.4,3.4
		v236.9c0,1.9-1.5,3.4-3.4,3.4H-469.3z"/>
	<path class="st4" d="M-80.4,287.5v236.9h-388.9V287.5H-80.4 M-80.4,280.7h-388.9c-3.7,0-6.7,3-6.7,6.7l0,0v236.9
		c0,3.7,3,6.7,6.7,6.7h388.9c3.7,0,6.7-3,6.7-6.7l0,0V287.5C-73.7,283.8-76.7,280.8-80.4,280.7C-80.4,280.7-80.4,280.7-80.4,280.7z"
		/>
	<path class="st3" d="M-469.3,290.8c-1.9,0-3.4-1.5-3.4-3.3c0-1.1,0.5-2.1,1.4-2.8l194.5-138.6c1.2-0.8,2.7-0.8,3.9,0l194.5,138.6
		c1.5,1.1,1.8,3.2,0.8,4.7c-0.6,0.9-1.7,1.4-2.8,1.4H-469.3z"/>
	<path class="st4" d="M-274.9,148.8l194.5,138.6h-388.9L-274.9,148.8 M-274.9,142.1c-1.4,0-2.8,0.4-3.9,1.3L-473.2,282
		c-3,2.2-3.7,6.4-1.6,9.4c1.3,1.8,3.3,2.8,5.5,2.8h388.9c3.7,0,6.7-3,6.7-6.7c0-2.2-1.1-4.2-2.8-5.5L-271,143.4
		C-272.1,142.6-273.5,142.1-274.9,142.1L-274.9,142.1z"/>
	<path class="st5" d="M-427.8,465.2c-1.9,0-3.4-1.5-3.4-3.4V63c0-1.9,1.5-3.4,3.4-3.4l0,0h247.2c0.9,0,1.8,0.4,2.4,1l58.6,58.6
		c0.6,0.6,1,1.5,1,2.4v340.2c0,1.9-1.5,3.4-3.4,3.4L-427.8,465.2z"/>
	<path class="st4" d="M-180.6,63l58.6,58.6v340.2h-305.8V63H-180.6 M-180.6,56.3h-247.2c-3.7,0-6.7,3-6.7,6.7c0,0,0,0,0,0v398.8
		c0,3.7,3,6.7,6.7,6.7c0,0,0,0,0,0H-122c3.7,0,6.7-3,6.7-6.7c0,0,0,0,0,0V121.6c0-1.8-0.7-3.5-2-4.8l-58.6-58.6
		C-177.1,57-178.8,56.3-180.6,56.3L-180.6,56.3z"/>
	<path class="st5" d="M-184.2,128.6c-0.9,0-1.8-0.4-2.4-1c-0.7-0.7-1.1-1.6-1-2.6l3.6-62.2c0.1-1.3,0.9-2.5,2.2-3
		c1.2-0.5,2.6-0.2,3.6,0.8l58.6,58.6c1.3,1.3,1.3,3.5,0,4.8c-0.6,0.6-1.4,0.9-2.2,1L-184.2,128.6z"/>
	<path class="st4" d="M-180.6,63l58.6,58.6l-62.2,3.6L-180.6,63 M-180.6,56.3c-3.6,0-6.5,2.8-6.7,6.3l-3.6,62.2
		c-0.2,3.7,2.6,6.9,6.3,7.1c0.1,0,0.3,0,0.4,0h0.4l62.2-3.6c3.7-0.2,6.5-3.4,6.3-7.1c-0.1-1.6-0.8-3.2-2-4.4l-58.6-58.6
		C-177.1,57-178.8,56.3-180.6,56.3L-180.6,56.3z"/>
	<line class="st6" x1="-378.5" y1="157.1" x2="-171.3" y2="157.1"/>
	<line class="st6" x1="-378.5" y1="193" x2="-171.3" y2="193"/>
	<line class="st6" x1="-378.5" y1="228.9" x2="-171.3" y2="228.9"/>
	<line class="st6" x1="-378.5" y1="264.8" x2="-171.3" y2="264.8"/>
	<line class="st6" x1="-378.5" y1="300.7" x2="-171.3" y2="300.7"/>
	<line class="st6" x1="-378.5" y1="336.6" x2="-171.3" y2="336.6"/>
	<line class="st6" x1="-378.5" y1="372.6" x2="-171.3" y2="372.6"/>
	<line class="st6" x1="-378.5" y1="408.5" x2="-171.3" y2="408.5"/>
	<path class="st0" d="M-469.3,527.7c-1.9,0-3.4-1.5-3.4-3.4V287.5c0-1.9,1.5-3.4,3.3-3.4c0.7,0,1.4,0.2,1.9,0.6L-274.9,422
		l192.5-137.2c1-0.7,2.4-0.8,3.5-0.3c1.1,0.6,1.8,1.7,1.8,3v236.9c0,1.9-1.5,3.4-3.4,3.4H-469.3z"/>
	<path class="st4" d="M-80.4,287.5v236.9h-388.9V287.5l194.5,138.6L-80.4,287.5 M-80.4,280.7c-1.4,0-2.8,0.4-3.9,1.3l-190.6,135.8
		L-465.4,282c-3-2.2-7.2-1.5-9.4,1.6c-0.8,1.1-1.3,2.5-1.3,3.9v236.9c0,3.7,3,6.7,6.7,6.7h388.9c3.7,0,6.7-3,6.7-6.7l0,0V287.5
		C-73.7,283.8-76.7,280.8-80.4,280.7z"/>
	
		<image style="overflow:visible;" width="397" height="126" xlink:href="DBEE6665.png"  transform="matrix(1 0 0 1 -473.29 402.51)">
	</image>
	<path class="st4" d="M-274.9,405.9l194.5,118.4h-388.9L-274.9,405.9 M-274.9,399.2c-1.2,0-2.4,0.4-3.5,1l-194.5,118.4
		c-3.2,1.9-4.2,6.1-2.3,9.2c1.2,2,3.4,3.2,5.8,3.2h388.9c3.7,0,6.7-3,6.7-6.7c0-2.3-1.2-4.5-3.2-5.7l-194.5-118.4
		C-272.5,399.5-273.7,399.2-274.9,399.2L-274.9,399.2z"/>
	<g>
		<ellipse class="st8" cx="-276.2" cy="154.3" rx="74" ry="73.5"/>
		<g>
			<path class="st4" d="M-276.2,231.3c-42.9,0-77.7-34.5-77.7-77.1s34.8-77.1,77.7-77.1s77.7,34.5,77.7,77.1c0,0,0,0,0,0
				C-198.6,196.8-233.3,231.3-276.2,231.3z M-276.2,84.3c-38.9,0-70.5,31.3-70.5,69.9s31.5,69.9,70.5,69.9s70.5-31.3,70.5-69.9
				C-205.8,115.6-237.3,84.4-276.2,84.3z"/>
			<g id="_Group__1_">
				<polygon id="_Path__1_" class="st1" points="-292,194.6 -323.8,163.1 -305.9,145.3 -292,159 -246.6,113.9 -228.6,131.7 				"/>
			</g>
		</g>
	</g>
</g>
<path class="st1" d="M479.5,294.4c0,123.3-100,223.3-223.3,223.3S32.9,417.7,32.9,294.4S132.9,71,256.2,71S479.5,171,479.5,294.4z"
	/>
<path class="st2" d="M459.5,143.2c32.6,43.7,50.1,96.7,50,151.2c0,139.9-113.4,253.3-253.3,253.3S2.9,434.3,2.9,294.4
	S116.3,41,256.2,41c39.5-0.1,78.5,9.2,113.8,26.9"/>
<g>
	<path class="st3" d="M63.1,507.7c-1.9,0-3.4-1.5-3.4-3.4V267.5c0-1.9,1.5-3.4,3.3-3.4c0,0,0,0,0,0H452c1.9,0,3.4,1.5,3.4,3.4v236.9
		c0,1.9-1.5,3.4-3.4,3.4H63.1z"/>
	<path class="st4" d="M452,267.5v236.9H63.1V267.5H452 M452,260.7H63.1c-3.7,0-6.7,3-6.7,6.7l0,0v236.9c0,3.7,3,6.7,6.7,6.7H452
		c3.7,0,6.7-3,6.7-6.7l0,0V267.5C458.7,263.8,455.7,260.8,452,260.7C452,260.7,452,260.7,452,260.7z"/>
	<path class="st6" d="M361.2,208.9"/>
	<path class="st6" d="M153.9,208.9"/>
	<path class="st6" d="M361.2,244.8"/>
	<path class="st6" d="M153.9,244.8"/>
	<path class="st6" d="M361.2,316.6"/>
	<path class="st6" d="M153.9,316.6"/>
	<path class="st6" d="M361.2,352.6"/>
	<path class="st6" d="M153.9,352.6"/>
	<line class="st6" x1="153.9" y1="388.5" x2="361.2" y2="388.5"/>
	<path class="st0" d="M63.1,507.7c-1.9,0-3.4-1.5-3.4-3.4V267.5c0-1.9,1.5-3.4,3.3-3.4c0.7,0,1.4,0.2,1.9,0.6L257.5,402L450,264.7
		c1-0.7,2.4-0.8,3.5-0.3c1.1,0.6,1.8,1.7,1.8,3v236.9c0,1.9-1.5,3.4-3.4,3.4H63.1z"/>
	<path class="st4" d="M452,267.5v236.9H63.1V267.5l194.5,138.6L452,267.5 M452,260.7c-1.4,0-2.8,0.4-3.9,1.3L257.5,397.8L67,262
		c-3-2.2-7.2-1.5-9.4,1.6c-0.8,1.1-1.3,2.5-1.3,3.9v236.9c0,3.7,3,6.7,6.7,6.7H452c3.7,0,6.7-3,6.7-6.7l0,0V267.5
		C458.7,263.8,455.7,260.8,452,260.7z"/>
	<path class="st7" d="M63.1,507.7c-1.9,0-3.4-1.5-3.4-3.3c0-1.2,0.6-2.3,1.6-2.9L255.8,383c1.1-0.7,2.4-0.7,3.5,0l194.5,118.4
		c1.6,1,2.1,3,1.1,4.6c-0.6,1-1.7,1.6-2.9,1.6H63.1z"/>
	<path class="st4" d="M257.5,385.9L452,504.3H63.1L257.5,385.9 M257.5,379.2c-1.2,0-2.4,0.4-3.5,1L59.6,498.6
		c-3.2,1.9-4.2,6.1-2.3,9.2c1.2,2,3.4,3.2,5.8,3.2H452c3.7,0,6.7-3,6.7-6.7c0-2.3-1.2-4.5-3.2-5.7L261,380.2
		C260,379.5,258.8,379.2,257.5,379.2L257.5,379.2z"/>
	<g>
		<path class="st7" d="M452,262.8c1.9,0,3.4,1.5,3.4,3.3c0,1.1-0.5,2.1-1.4,2.8L259.5,407.5c-1.2,0.8-2.7,0.8-3.9,0L61.1,268.9
			c-1.5-1.1-1.8-3.2-0.8-4.7c0.6-0.9,1.7-1.4,2.8-1.4H452z"/>
		<path class="st4" d="M257.6,404.8L63.1,266.2H452L257.6,404.8 M257.6,411.5c1.4,0,2.8-0.4,3.9-1.3l194.5-138.6
			c3-2.2,3.7-6.4,1.6-9.4c-1.3-1.8-3.3-2.8-5.5-2.8H63.1c-3.7,0-6.7,3-6.7,6.7c0,2.2,1.1,4.2,2.8,5.5l194.5,138.6
			C254.8,411.1,256.2,411.5,257.6,411.5L257.6,411.5z"/>
	</g>
	<g>
		<g>
			<ellipse class="st10" cx="256.2" cy="235.3" rx="74" ry="73.5"/>
			<g>
				<path class="st4" d="M256.2,312.3c-42.9,0-77.7-34.5-77.7-77.1s34.8-77.1,77.7-77.1s77.7,34.5,77.7,77.1c0,0,0,0,0,0
					C333.8,277.8,299.1,312.3,256.2,312.3z M256.2,165.3c-38.9,0-70.5,31.3-70.5,69.9s31.5,69.9,70.5,69.9s70.5-31.3,70.5-69.9
					C326.6,196.6,295.1,165.4,256.2,165.3z"/>
			</g>
		</g>
		<polygon class="st1" points="228.9,268.8 228.9,240.6 239.5,235.2 228.9,229.9 228.9,201.7 295.5,235.2 		"/>
	</g>
</g>
</svg>
