<svg xmlns="http://www.w3.org/2000/svg" viewBox="0 0 402.4 474.79"><defs><style>.cls-1{fill:#f1972d;}.cls-2{fill:#0d3747;}.cls-3{fill:#f7f1e3;}.cls-4{fill:none;stroke:#0d3747;stroke-linecap:round;stroke-linejoin:round;stroke-width:7.49px;}.cls-5{fill:#f7bf2b;}.cls-6{fill:#fbd427;}.cls-7{fill:#f02d44;}.cls-8{fill:#fff;}</style></defs><title>Asset 3</title><g id="Layer_2" data-name="Layer 2"><g id="Layer_1-2" data-name="Layer 1"><path class="cls-1" d="M6.74,471.43a3.36,3.36,0,0,1-3.36-3.36V231.21a3.37,3.37,0,0,1,3.35-3.37H395.67a3.37,3.37,0,0,1,3.36,3.37V468.07a3.37,3.37,0,0,1-3.36,3.36Z"/><path class="cls-2" d="M395.67,231.21V468.07H6.74V231.21H395.67m0-6.73H6.74A6.73,6.73,0,0,0,0,231.21H0V468.07a6.74,6.74,0,0,0,6.73,6.72H395.67a6.72,6.72,0,0,0,6.72-6.72h0V231.21a6.72,6.72,0,0,0-6.71-6.73Z"/><path class="cls-1" d="M6.74,234.57a3.37,3.37,0,0,1-2-6.11L199.25,89.86a3.33,3.33,0,0,1,3.9,0L397.67,228.47a3.37,3.37,0,0,1-2,6.1Z"/><path class="cls-2" d="M201.2,92.57,395.67,231.21H6.74L201.2,92.57m0-6.73a6.73,6.73,0,0,0-3.9,1.25L2.84,225.73a6.73,6.73,0,0,0,3.9,12.21H395.67a6.73,6.73,0,0,0,3.9-12.21L205.11,87.12a6.76,6.76,0,0,0-3.91-1.25Z"/><path class="cls-3" d="M46.8,413.42a3.36,3.36,0,0,1-3.36-3.36V11.25A3.36,3.36,0,0,1,46.8,7.89H294a3.31,3.31,0,0,1,2.38,1L355,67.51a3.35,3.35,0,0,1,1,2.38V410.07a3.35,3.35,0,0,1-3.36,3.36Z"/><path class="cls-2" d="M295.45,6.75l58.63,58.63V405.57H48.3V6.75H295.45m0-6.72H48.3a6.72,6.72,0,0,0-6.73,6.71h0V405.57a6.73,6.73,0,0,0,6.73,6.73H354.08a6.73,6.73,0,0,0,6.73-6.73h0V65.38a6.67,6.67,0,0,0-2-4.76L300.21,2a6.74,6.74,0,0,0-4.76-2Z"/><path class="cls-3" d="M291.88,72.32a3.42,3.42,0,0,1-3.38-3.57l3.59-62.18a3.4,3.4,0,0,1,2.17-3,3.35,3.35,0,0,1,3.57.77L356.46,63a3.37,3.37,0,0,1,0,4.77,3.42,3.42,0,0,1-2.18,1Z"/><path class="cls-2" d="M295.45,6.75l58.63,58.63L291.88,69l3.57-62.2m0-6.72a6.72,6.72,0,0,0-6.71,6.34l-3.58,62.2a6.73,6.73,0,0,0,6.34,7.1h.76l62.2-3.57a6.72,6.72,0,0,0,4.37-11.48L300.21,2a6.66,6.66,0,0,0-4.76-2Z"/><line class="cls-4" x1="97.56" y1="100.81" x2="304.82" y2="100.81"/><line class="cls-4" x1="97.56" y1="136.72" x2="304.82" y2="136.72"/><line class="cls-4" x1="97.56" y1="172.63" x2="304.82" y2="172.63"/><line class="cls-4" x1="97.56" y1="208.55" x2="304.82" y2="208.55"/><line class="cls-4" x1="97.56" y1="244.46" x2="304.82" y2="244.46"/><line class="cls-4" x1="97.56" y1="280.37" x2="304.82" y2="280.37"/><line class="cls-4" x1="97.56" y1="316.29" x2="304.82" y2="316.29"/><line class="cls-4" x1="97.56" y1="352.2" x2="304.82" y2="352.2"/><path class="cls-5" d="M6.74,471.43a3.36,3.36,0,0,1-3.36-3.36V231.21a3.36,3.36,0,0,1,3.34-3.36,3.4,3.4,0,0,1,2,.62L201.2,365.69,393.67,228.47a3.37,3.37,0,0,1,5.32,2.75V468.07a3.37,3.37,0,0,1-3.36,3.36Z"/><path class="cls-2" d="M395.67,231.21V468.07H6.74V231.21L201.2,369.82,395.67,231.21m0-6.73a6.76,6.76,0,0,0-3.91,1.25L201.2,361.57,10.67,225.73A6.74,6.74,0,0,0,0,231.21V468.07a6.74,6.74,0,0,0,6.73,6.72H395.67a6.72,6.72,0,0,0,6.72-6.72h0V231.21A6.73,6.73,0,0,0,395.67,224.48Z"/><path class="cls-6" d="M6.74,471.43A3.36,3.36,0,0,1,5,465.19L199.45,346.77a3.3,3.3,0,0,1,3.5,0L397.42,465.19a3.36,3.36,0,0,1-1.75,6.24Z"/><path class="cls-2" d="M201.2,349.64,395.67,468.07H6.74L201.2,349.64m0-6.73a6.8,6.8,0,0,0-3.5,1L3.24,462.32a6.72,6.72,0,0,0,3.5,12.47H395.67a6.73,6.73,0,0,0,3.5-12.47L204.67,343.89a6.74,6.74,0,0,0-3.5-1Z"/><circle class="cls-7" cx="199.87" cy="98.53" r="74.33"/><path class="cls-2" d="M199.87,176.47a78,78,0,1,1,78-77.95h0A78,78,0,0,1,199.87,176.47Zm0-148.66a70.72,70.72,0,1,0,70.72,70.72A70.73,70.73,0,0,0,199.87,27.81Z"/><polygon class="cls-8" points="216.63 98.54 240.03 121.94 223.27 138.7 199.87 115.3 176.47 138.7 159.71 121.94 183.11 98.54 159.71 75.12 176.47 58.36 199.87 81.77 223.27 58.36 240.03 75.12 216.63 98.54"/></g></g></svg>