<svg id="Layer_1" data-name="Layer 1" xmlns="http://www.w3.org/2000/svg" viewBox="0 0 467 308"><defs><style>.cls-1{fill:#f1eefd;}.cls-10,.cls-11,.cls-16,.cls-17,.cls-18,.cls-19,.cls-2,.cls-22,.cls-23,.cls-24,.cls-5,.cls-6{fill:none;stroke-miterlimit:10;}.cls-2{stroke:#c3c8ff;}.cls-3{fill:#6876eb;}.cls-4{fill:#1c145e;}.cls-5,.cls-6{stroke:#6876eb;}.cls-5{stroke-width:4px;}.cls-7{fill:#e9a394;}.cls-8{fill:#e37a82;}.cls-9{fill:#16005c;}.cls-10,.cls-11{stroke:#16005c;}.cls-10,.cls-19{stroke-width:2px;}.cls-11,.cls-23{stroke-width:0.5px;}.cls-12{fill:#1c145c;}.cls-13{fill:#fff;}.cls-14{fill:#5321d7;}.cls-15{fill:#6a3fdc;}.cls-16{stroke:#5321d7;}.cls-17{stroke:#c4c6c5;}.cls-18,.cls-23{stroke:#1c145e;}.cls-19,.cls-22{stroke:#7079f1;}.cls-20{fill:#7079f1;}.cls-21{fill:#c3c8ff;}.cls-24{stroke:#fff;}</style></defs><title>get_help</title><g id="senpai-bg"><g id="BACKGROUND"><path id="Path_2201" data-name="Path 2201" class="cls-1" d="M61.65,296.33S33,229,69.22,178.06s14.12-96,77.66-141c81.68-57.75,160.46-.77,184,37.86s103.29,18.91,80.09,128.83c-18,85.27-4.56,89-4.56,89Z"/><path id="Path_2202" data-name="Path 2202" class="cls-2" d="M78.89,278.1S28.1,251.57,40.34,191.91s62.07-73.81,82.57-69.43c38.41,8.21-24.35,32.43-39.34-9.15C64.76,61.17,131.83,21.68,194,31.9c40,6.57,59.24,25.7,94.76,37.72S339,65.55,324.9,56.26c-13.39-8.83-62,5.57-45.3,25.3,22.85,27,77.91-14.84,120.59,31.77S405.81,218.55,373,223.44s-18.42-42.21,32.81-4.89-13.48,77.78-13.48,77.78"/></g><g id="OBJECTS"><g id="Group_774" data-name="Group 774"><path id="Rectangle_106" data-name="Rectangle 106" class="cls-3" d="M38.46,292.6H431.33v4.66a2.79,2.79,0,0,1-2.79,2.8H38.46a2.79,2.79,0,0,1-2.79-2.8v-1.87a2.79,2.79,0,0,1,2.79-2.79Z"/><path id="Rectangle_107" data-name="Rectangle 107" class="cls-4" d="M35.67,292.6h147v4.66a2.8,2.8,0,0,1-2.8,2.8H38.46a2.79,2.79,0,0,1-2.79-2.8V292.6Z"/></g><g id="Group_777" data-name="Group 777"><path id="Path_2203" data-name="Path 2203" class="cls-4" d="M236.9,150.35c-16.63,32-35.3,45-35.3,45l16.13,25.75,28.17-29.27Z"/><path id="Path_2204" data-name="Path 2204" class="cls-4" d="M278.12,142.72l-41.22,7.63c-2.61,78-3.59,142.24-3.59,142.24h74s2.15-119.42-9.75-145.48Z"/><line id="Line_46" data-name="Line 46" class="cls-5" x1="273.33" y1="182.47" x2="293.41" y2="180.77"/><path id="Path_2205" data-name="Path 2205" class="cls-6" d="M264.11,165.7s12.75,87,1.66,122.18"/><path id="Path_2206" data-name="Path 2206" class="cls-6" d="M250.77,209.27A91.38,91.38,0,0,0,279,214.75c16,.53,6,9-17.63,7.41"/><path id="Path_2207" data-name="Path 2207" class="cls-7" d="M253.94,139.55l10.18,27,14-23.85-9.23-15.09Z"/><path id="Path_2208" data-name="Path 2208" class="cls-3" d="M264.11,166.58l19-5.24-5-18.62Z"/><path id="Path_2209" data-name="Path 2209" class="cls-3" d="M256.2,145.56l-10.3,11.51,18.22,9.51Z"/><path id="Path_2210" data-name="Path 2210" class="cls-7" d="M217.73,221.06s6-12.55-6.91-28.71c-7.16-9-10.47-24.44-10.47-24.44l-10.76,1.64,9.86,51.52Z"/><path id="Path_2211" data-name="Path 2211" class="cls-7" d="M187.38,151.76l-4.4,4,5.89,5.2-18.46-.32L170,167l19.57,2.56,10.76-1.64Z"/><path id="Path_2212" data-name="Path 2212" class="cls-7" d="M190.61,161.62l-17.71-7.3-1.14,3.14,14.78,6.21Z"/><path id="Path_2213" data-name="Path 2213" class="cls-4" d="M297.54,147.11s23.79,13.54,31.3,64.27L301.25,218Z"/><g id="Group_776" data-name="Group 776"><path id="Path_2214" data-name="Path 2214" class="cls-7" d="M245.88,106.53l-9,23,6.87,2.12,2.11,12.94,21.93-5L271,104.41Z"/><path id="Path_2215" data-name="Path 2215" class="cls-8" d="M260.52,112H243.75l1.83-5,14.94-.92Z"/><path id="Path_2216" data-name="Path 2216" class="cls-9" d="M269.28,122.47s-10.7-2.21-10.7-13.28c0,0-15.87,2.17-21.35-6.45-6.49-10.21,3.42-21.94,11.62-19.56,0,0-5.17,5.12,2.68,5.72,5.59.43,15.81-7,19.45.18,0,0,28.15,6.43,7.14,32.66Z"/><path id="Path_2217" data-name="Path 2217" class="cls-10" d="M258.58,108.32s-21.22,4.1-25.66-11.12c-2.59-8.9,6.32-14,6.32-14"/><g id="Group_775" data-name="Group 775"><circle id="Ellipse_31" data-name="Ellipse 31" class="cls-11" cx="249.6" cy="120.77" r="8.01"/><line id="Line_47" data-name="Line 47" class="cls-11" x1="257.18" y1="118.18" x2="268.59" y2="118.8"/></g><path id="Path_2218" data-name="Path 2218" class="cls-7" d="M283.11,124.49c0,5-6.65,9-11.61,9s-6.36-4-6.36-9a9,9,0,0,1,18,0Z"/></g><path id="Path_2219" data-name="Path 2219" class="cls-7" d="M325.55,212.18V253.6H304.89l-1.72-36Z"/><path id="Path_2220" data-name="Path 2220" class="cls-12" d="M235.29,202.81l.87-28.86-13.38,41.87Z"/><path id="Path_2221" data-name="Path 2221" class="cls-8" d="M255,142.3l12.8-2.75-10.5,9Z"/><ellipse id="Ellipse_32" data-name="Ellipse 32" class="cls-9" cx="247.43" cy="121.29" rx="1.53" ry="3.2"/><path id="Path_2222" data-name="Path 2222" class="cls-9" d="M251.59,113.52c0-4.29-3.41-1.4-3.41-1.4Z"/><path id="Path_2223" data-name="Path 2223" class="cls-13" d="M248.18,132.49l4.88-1.3S255.15,149.29,248.18,132.49Z"/></g><g id="Group_780" data-name="Group 780"><path id="Path_2224" data-name="Path 2224" class="cls-14" d="M143,213.61s32.92-5.1,33.57,52.31c.1,9.32,6,26.68,6,26.68H152.8Z"/><path id="Path_2225" data-name="Path 2225" class="cls-15" d="M108.61,208.51l-19.9,4.7,6.08,79.39H172.2s-2.6-62.81-31.79-81.66Z"/><path id="Path_2226" data-name="Path 2226" class="cls-15" d="M88.71,213.21C68.21,217.89,73,233.63,77,266c-10.24,8.31-.42,12.05-.42,12.05-11.24,11.92,2.78,14.6,2.78,14.6h37.44S109.24,208.53,88.71,213.21Z"/><line id="Line_48" data-name="Line 48" class="cls-16" x1="114.54" y1="274.26" x2="105.56" y2="233.02"/><path id="Path_2227" data-name="Path 2227" class="cls-7" d="M79.33,292.6s6.32-14.52,26.3-21.81c16.57-6.05,40.79,9.65,56.3-5.27l2.88,16.8-48,10.28Z"/><g id="Group_779" data-name="Group 779"><g id="Group_778" data-name="Group 778"><path id="Path_2228" data-name="Path 2228" class="cls-7" d="M145.19,167.63,160,190.18l-9.5,3.39-1.65,18.32L120.29,202,123,164.7Z"/><path id="Path_2229" data-name="Path 2229" class="cls-8" d="M123.21,191.31l-14.6,17.2,18.72,23,8.45-26.8Z"/><path id="Path_2230" data-name="Path 2230" class="cls-8" d="M128.09,180.66l20.9-7.25-3.8-5.78-20.64,2.15Z"/><path id="Path_2231" data-name="Path 2231" class="cls-9" d="M126.29,188.55s6.33,12.67,1.92-11.74c0,0,6,.67,10.71-7.25,0,0-1.46,12.91,12.32,0s-3.74-23-25.16-19.21c-18.56,3.29-37.14,13.78-10,49.35Z"/><path id="Path_2232" data-name="Path 2232" class="cls-7" d="M122.91,193.59a10.36,10.36,0,0,1-6.42,4c-5.09.75-10.06-3.27-10.8-8.36s1.83-7.74,6.92-8.48a12.63,12.63,0,0,1,8.66,2.16C122,183.86,122.91,193.59,122.91,193.59Z"/><ellipse id="Ellipse_33" data-name="Ellipse 33" class="cls-9" cx="142.21" cy="183.39" rx="1.43" ry="3.26" transform="translate(-43.08 43.67) rotate(-15.19)"/><path id="Path_2233" data-name="Path 2233" class="cls-9" d="M137.27,179s-.75-4.19,3.14-2.17Z"/></g><path id="Path_2234" data-name="Path 2234" class="cls-15" d="M106.27,209.22l3.39-3.9-1.24-2.88,7.67-2.74,22,11.07.82,8.45L135.19,218l-6.08,22.67Z"/><path id="Path_2235" data-name="Path 2235" class="cls-16" d="M126.15,214.75l12.77,4.47-.81-8.46"/><path id="Path_2236" data-name="Path 2236" class="cls-9" d="M128.21,176.81s2.57,14.94,6.33,18c1.23,1,3.57-1.55,14.31-1.77,6.57-.13,6.57,22.8-2.15,22.15s-22-6.1-24-22.81C121,177.72,128.21,176.81,128.21,176.81Z"/><path id="Path_2237" data-name="Path 2237" class="cls-17" d="M138.92,197.6s2.21,4.13,6.58,1.34"/></g></g><g id="Group_782" data-name="Group 782"><path id="Rectangle_108" data-name="Rectangle 108" class="cls-4" d="M115.25,283.16h74.5a3,3,0,0,1,3,3v3.46a3,3,0,0,1-3,3H118.24a3,3,0,0,1-3-3v-6.45Z"/><g id="Group_781" data-name="Group 781"><path id="Path_2238" data-name="Path 2238" class="cls-4" d="M248.43,228.57H162.94a5.05,5.05,0,0,0-5,4.41l-6.88,53.92a5,5,0,0,0,4.36,5.65,4.58,4.58,0,0,0,.64,0h85.49a5.05,5.05,0,0,0,5-4.41l6.89-53.92a5,5,0,0,0-4.37-5.65A4.58,4.58,0,0,0,248.43,228.57Z"/><path id="Path_2239" data-name="Path 2239" class="cls-3" d="M252.57,228.57H167.08a5.05,5.05,0,0,0-5,4.41l-6.89,53.92a5,5,0,0,0,4.37,5.65,4.58,4.58,0,0,0,.64,0h85.49a5.05,5.05,0,0,0,5-4.41l6.89-53.92a5.05,5.05,0,0,0-4.37-5.65A4.58,4.58,0,0,0,252.57,228.57Z"/><ellipse id="Ellipse_34" data-name="Ellipse 34" class="cls-13" cx="206.37" cy="260.58" rx="8.88" ry="8" transform="translate(-122.7 213.62) rotate(-43.5)"/></g><line id="Line_49" data-name="Line 49" class="cls-18" x1="250.7" y1="292.14" x2="144.29" y2="292.14"/></g><g id="Group_788" data-name="Group 788"><g id="Group_786" data-name="Group 786"><g id="Group_783" data-name="Group 783"><path id="Path_2240" data-name="Path 2240" class="cls-9" d="M297.73,220l35.33.67-8-43.21-18.79,2.13s-8.46,12.48-1.78,22.19C312,212.71,297,213.12,297.73,220Z"/><path id="Path_2241" data-name="Path 2241" class="cls-19" d="M306.26,179.56s-8.46,12.48-1.78,22.19c7.54,11-7.53,11.37-6.75,18.22"/></g><path id="Path_2242" data-name="Path 2242" class="cls-20" d="M313.31,214.75S297.24,230.52,288.76,290h17.9Z"/><path id="Path_2243" data-name="Path 2243" class="cls-21" d="M355.79,210.36l-7,79.6h-52l6.47-30.4s-19.78-10.32,10-44.81l7.41-3.81,32.17-2.43Z"/><path id="Path_2244" data-name="Path 2244" class="cls-22" d="M313.31,250.38s-3.11,5.33-.12,9.62l-4.41,30"/><line id="Line_50" data-name="Line 50" class="cls-22" x1="306.05" y1="259.7" x2="336.15" y2="260.58"/><line id="Line_51" data-name="Line 51" class="cls-22" x1="342.08" y1="274.68" x2="338.9" y2="236.39"/><path id="Path_2245" data-name="Path 2245" class="cls-21" d="M355.79,210.36s2.87,3.61,6.19,12c4.71,11.87,10.33,33.32,10,67.62H348.79Z"/><path id="Path_2246" data-name="Path 2246" class="cls-7" d="M371.94,292.59s-11.56-26.45-40.65-18.88c-31.77,8.26-43.56,6.72-43.56,6.72l-2.41,12.16Z"/><g id="Group_784" data-name="Group 784"><path id="Path_2247" data-name="Path 2247" class="cls-20" d="M341.66,268.15l-10.32,2.3,23.45,22.14h22.1S367.36,269.49,341.66,268.15Z"/><line id="Line_52" data-name="Line 52" class="cls-2" x1="342.3" y1="275.01" x2="347.22" y2="273.51"/></g><path id="Path_2248" data-name="Path 2248" class="cls-7" d="M287.73,280.43l-15.09-3.12-10.82,15.28h23.5Z"/><path id="Path_2249" data-name="Path 2249" class="cls-20" d="M313.31,250.38l28.05-28-5.21-2.46,19.64-9.51-9-5.74h-21L313.31,220.2l3.44.86-3.44,2.42Z"/><g id="Group_785" data-name="Group 785"><path id="Path_2250" data-name="Path 2250" class="cls-7" d="M332.92,214.15l9.16-6.33-9.89-22.11-15.33,9.63,4.32,18.34-7.87,36.7Z"/><path id="Path_2251" data-name="Path 2251" class="cls-8" d="M318.09,200.58,328.85,195l-9.6,10.5Z"/><path id="Path_2252" data-name="Path 2252" class="cls-7" d="M298.44,168.56l-4.7,26h7.05l7.91,10.88L328.85,195l-14.09-31.4Z"/><path id="Path_2253" data-name="Path 2253" class="cls-8" d="M297.3,174.87l-.47,2.86,18.58-2.53-.28-3.57Z"/><path id="Path_2254" data-name="Path 2254" class="cls-9" d="M349.81,166.58c-4.66-12.61-10.34-17.47-10.34-17.47-11.4-11.33-30.89,1.24-30.89,1.24-25-6-14.84,25-14.84,25l20.34-2.5c2.84,17.06,13,8.43,13,8.43l4.75,8.55s-4.79,4.23.2,11.48c4.11,6-5.73,8-3.19,14.36l39.31-8.15C368.16,181.62,358.21,189.37,349.81,166.58Z"/><path id="Path_2255" data-name="Path 2255" class="cls-19" d="M292.15,175.51s-3.6-17.7,3-23.46c3.44-3,14.29-1.7,14.29-1.7"/><path id="Path_2256" data-name="Path 2256" class="cls-10" d="M370.74,206.74s3.14-11.78-14-25.12"/><circle id="Ellipse_35" data-name="Ellipse 35" class="cls-7" cx="327.68" cy="182.42" r="8.47"/></g></g><path id="Path_2257" data-name="Path 2257" class="cls-13" d="M306.05,193.64l5.25-1.29S313.14,207.32,306.05,193.64Z"/><g id="Group_787" data-name="Group 787"><path id="Path_2258" data-name="Path 2258" class="cls-23" d="M301.68,184.79s1.67-10.19,5.32,0"/><path id="Path_2259" data-name="Path 2259" class="cls-9" d="M303,177s2-3.45,4.44,0Z"/></g></g><g id="Group_790" data-name="Group 790"><g id="Group_789" data-name="Group 789"><path id="Path_2260" data-name="Path 2260" class="cls-21" d="M224,85.3a15.7,15.7,0,1,0-22.2,19.14,22.43,22.43,0,0,1,8.13,7.35l.59.89,11.76-4.23-.11-1.06a23.48,23.48,0,0,1,1.66-11A15.58,15.58,0,0,0,224,85.3Z"/><path id="Path_2261" data-name="Path 2261" class="cls-21" d="M224,85.3a15.7,15.7,0,1,0-22.2,19.14,22.43,22.43,0,0,1,8.13,7.35l.59.89,11.76-4.23-.11-1.06a23.48,23.48,0,0,1,1.66-11A15.58,15.58,0,0,0,224,85.3Z"/><path id="Path_2262" data-name="Path 2262" class="cls-24" d="M213.19,109.21,203.81,96a2.5,2.5,0,0,1,3.12-2.26c2.94.43,4.7,5.07,2.6,4.32s-2.84-6.2,1.13-7,5.3,8.2,3.1,6.46S212,90,216.29,89.93L218.78,109"/><rect id="Rectangle_109" data-name="Rectangle 109" class="cls-9" x="210.3" y="107.29" width="13.95" height="11.53" rx="3.03" ry="3.03" transform="translate(-25.44 80.18) rotate(-19.78)"/><rect id="Rectangle_110" data-name="Rectangle 110" class="cls-3" x="207.6" y="106.42" width="17.67" height="8.63" transform="translate(-24.7 79.76) rotate(-19.78)"/></g><line id="Line_53" data-name="Line 53" class="cls-2" x1="208.8" y1="70.9" x2="207.14" y2="61.39"/><line id="Line_54" data-name="Line 54" class="cls-2" x1="196.82" y1="76.57" x2="188.87" y2="68.81"/><line id="Line_55" data-name="Line 55" class="cls-2" x1="188.54" y1="90.67" x2="179.47" y2="91.32"/><line id="Line_56" data-name="Line 56" class="cls-2" x1="221.87" y1="76.12" x2="225.95" y2="68.55"/></g><g id="Group_797" data-name="Group 797"><g id="Group_793" data-name="Group 793"><g id="Group_792" data-name="Group 792"><path id="Path_2263" data-name="Path 2263" class="cls-12" d="M349.51,146h56.22a4.43,4.43,0,0,0,4.18-3.54l5.81-32.05A2.87,2.87,0,0,0,413.6,107a3,3,0,0,0-.78-.08H356.61a4.43,4.43,0,0,0-4.18,3.54l-5.81,32.05a2.86,2.86,0,0,0,2.12,3.46A2.92,2.92,0,0,0,349.51,146Z"/><g id="Group_791" data-name="Group 791"><ellipse id="Ellipse_36" data-name="Ellipse 36" class="cls-13" cx="392.33" cy="126.44" rx="4.02" ry="3.36" transform="translate(17.37 297.65) rotate(-42.4)"/><ellipse id="Ellipse_37" data-name="Ellipse 37" class="cls-13" cx="381.17" cy="126.44" rx="4.02" ry="3.36" transform="translate(14.45 290.12) rotate(-42.4)"/><ellipse id="Ellipse_38" data-name="Ellipse 38" class="cls-13" cx="370" cy="126.44" rx="4.02" ry="3.36" transform="translate(11.53 282.59) rotate(-42.4)"/></g></g><path id="Path_2264" data-name="Path 2264" class="cls-12" d="M379.77,143.89,360.24,155.5l3.5-12.52Z"/></g><g id="Group_796" data-name="Group 796"><g id="Group_795" data-name="Group 795"><path id="Path_2265" data-name="Path 2265" class="cls-21" d="M168.42,141.25H112.2a4.43,4.43,0,0,1-4.18-3.54l-5.81-32.05a2.88,2.88,0,0,1,2.13-3.46,2.84,2.84,0,0,1,.77-.08h56.22a4.44,4.44,0,0,1,4.18,3.54l5.81,32.05a2.88,2.88,0,0,1-2.13,3.46A2.84,2.84,0,0,1,168.42,141.25Z"/><g id="Group_794" data-name="Group 794"><ellipse id="Ellipse_39" data-name="Ellipse 39" class="cls-13" cx="125.6" cy="121.69" rx="3.36" ry="4.02" transform="translate(-48.95 132.37) rotate(-47.6)"/><ellipse id="Ellipse_40" data-name="Ellipse 40" class="cls-13" cx="136.76" cy="121.69" rx="3.36" ry="4.02" transform="translate(-45.32 140.61) rotate(-47.6)"/><ellipse id="Ellipse_41" data-name="Ellipse 41" class="cls-13" cx="147.93" cy="121.69" rx="3.36" ry="4.02" transform="translate(-41.68 148.86) rotate(-47.6)"/></g></g><path id="Path_2266" data-name="Path 2266" class="cls-21" d="M148.37,139.14l3.08,11.21,12.47-12Z"/></g></g></g></g></svg>