<svg id="Layer_1" data-name="Layer 1" xmlns="http://www.w3.org/2000/svg" xmlns:xlink="http://www.w3.org/1999/xlink" viewBox="0 0 467 308"><defs><style>.cls-1,.cls-10,.cls-12,.cls-13,.cls-22,.cls-25,.cls-27,.cls-29,.cls-33,.cls-36,.cls-39,.cls-4,.cls-40,.cls-41,.cls-43,.cls-46,.cls-47,.cls-51,.cls-53,.cls-55,.cls-59,.cls-6,.cls-62,.cls-63,.cls-64,.cls-9{fill:none;}.cls-2{opacity:0.18;}.cls-3{fill:#a0041e;}.cls-4{stroke:#707070;}.cls-5{fill:#d0e8c8;}.cls-6{stroke:#619e7f;}.cls-10,.cls-11,.cls-12,.cls-13,.cls-22,.cls-25,.cls-27,.cls-28,.cls-29,.cls-30,.cls-33,.cls-36,.cls-39,.cls-40,.cls-46,.cls-47,.cls-51,.cls-53,.cls-59,.cls-6,.cls-63,.cls-64,.cls-9{stroke-miterlimit:10;}.cls-7{fill:#b3d1a7;}.cls-8{fill:#5e8e76;}.cls-9{stroke:#3f6d54;}.cls-10{stroke:#5e8e76;}.cls-11,.cls-19{fill:#fff;}.cls-11,.cls-12,.cls-13,.cls-30{stroke:#ff796d;}.cls-12{stroke-dasharray:5 3.5;}.cls-14{fill:#fff3f5;}.cls-15{fill:#ffecee;}.cls-16{fill:#ff796d;}.cls-17{clip-path:url(#clip-path);}.cls-18{fill:#ff9e94;}.cls-20{fill:#7798b7;}.cls-21{clip-path:url(#clip-path-2);}.cls-22{stroke:#6387a5;stroke-width:1.3px;}.cls-23,.cls-28{fill:#ffd5c7;}.cls-24{fill:#01053f;}.cls-25,.cls-28{stroke:#ef927f;}.cls-26{fill:#00275c;}.cls-27,.cls-55{stroke:#00275c;}.cls-29{stroke:#01053f;}.cls-30,.cls-31{fill:#fffcfa;}.cls-32{clip-path:url(#clip-path-3);}.cls-33{stroke:#fff;}.cls-34{fill:#eff7eb;}.cls-35{fill:#300606;}.cls-36,.cls-43{stroke:#300606;}.cls-37{fill:#ffc5ae;}.cls-38{fill:#f7633a;}.cls-39{stroke:#aa311d;}.cls-40{stroke:#fb5910;}.cls-41{stroke:#ffad76;stroke-width:2px;}.cls-41,.cls-43,.cls-62{stroke-linecap:round;}.cls-41,.cls-43,.cls-55,.cls-62{stroke-linejoin:round;}.cls-42{fill:#f9af95;}.cls-44{fill:#ffc8c2;}.cls-45{clip-path:url(#clip-path-4);}.cls-46,.cls-47{stroke:#ffd9d4;}.cls-46{stroke-width:7px;}.cls-48{fill:#d7dfe5;}.cls-49{opacity:0.55;}.cls-50{clip-path:url(#clip-path-5);}.cls-51{stroke:#e8f3f9;}.cls-52{fill:#e28576;}.cls-53{stroke:#c46762;}.cls-54{fill:#8faac8;}.cls-56{fill:#d86e66;}.cls-57{clip-path:url(#clip-path-6);}.cls-58{opacity:0.35;}.cls-59{stroke:#ff9e94;stroke-width:3px;}.cls-60{fill:#8e444a;}.cls-61{fill:#591906;}.cls-62{stroke:#5b3005;}.cls-63{stroke:#63252c;}.cls-64{stroke:#591906;}.cls-65{fill:#f9d7d7;}</style><clipPath id="clip-path"><rect class="cls-1" x="66.5" y="85.92" width="87.9" height="127.72"/></clipPath><clipPath id="clip-path-2"><polyline class="cls-1" points="96.99 168.61 56.77 181.6 56.77 229.14 163.09 229.14 163.09 181.6 127.86 170.85"/></clipPath><clipPath id="clip-path-3"><rect class="cls-1" x="182.88" y="119.57" width="170.97" height="115.7"/></clipPath><clipPath id="clip-path-4"><rect class="cls-1" x="172.49" y="37.15" width="103.87" height="63.42"/></clipPath><clipPath id="clip-path-5"><path class="cls-1" d="M214,81.93a64.75,64.75,0,0,0-24-1.24c-12.4,1.94-21.05,12.49-21.05,12.49v10.1h71C234.39,86.84,214,81.93,214,81.93Z"/></clipPath><clipPath id="clip-path-6"><rect class="cls-1" x="300.48" y="37.36" width="43.85" height="63.42"/></clipPath></defs><title>information</title><g id="Ellipse_18" data-name="Ellipse 18" class="cls-2"><circle class="cls-3" cx="246.29" cy="150.61" r="147.29"/><circle class="cls-4" cx="246.29" cy="150.61" r="147.07"/></g><g id="Group_615" data-name="Group 615"><path id="Path_1830" data-name="Path 1830" class="cls-5" d="M381.62,142.63c-1.17-1.47-.86-3.67.05-5.31s2.31-3,3.34-4.55a23.19,23.19,0,0,0,2.8-8,26,26,0,0,1,2.65-8c1.46-2.42,4-4.41,6.8-4.43,3.87,0,7,3.75,7.33,7.6s-1.46,7.59-3.74,10.71c-4.25,5.8-8.35,11.46-19.23,12"/><path id="Path_1831" data-name="Path 1831" class="cls-6" d="M366.52,191.1c.6-14.24,1.31-20.78,4.12-28.81,3.4-9.73,9.29-17.25,15.63-25.18,4.75-6,9.58-12.32,10.87-20"/><path id="Path_1832" data-name="Path 1832" class="cls-7" d="M362.06,147c-7.23-2.21-8-11.59-8.62-17.42-.92-9.3-2.05-18.73-1.33-28.08,1-12.65,7.05-25.69,20.28-30,3.86-1.27,8-2.2,12.05-1.58s8,3.1,9.07,6.74a3.7,3.7,0,0,1,0,2.62,5.91,5.91,0,0,1-2.39,2.22,37.07,37.07,0,0,0-16.57,26c-.89,7.3.6,14.71-.18,22s-4.71,15.15-12.28,17.48"/><path id="Path_1833" data-name="Path 1833" class="cls-5" d="M375.11,133.51c4.31-.35,7.74-3.94,9.52-7.89,4.1-9.11,3.32-19.59,9.12-28.05,3-4.4,7.11-7.94,10.35-12.17,4.59-6,6.84-14.46,3.32-21.45-5.31-10.54-16.55-5.76-23.38.38-9.45,8.51-17.24,20.91-19.41,33-1.42,8-3.61,27.85,10.48,36.18"/><path id="Path_1834" data-name="Path 1834" class="cls-8" d="M364.63,162.07c-12.69-1.94-10.63-13.43-13.05-17.88-4.26-7.83-3.23-17.49-7-25.55-2.65-5.66-6.76-9.54-12.82-10.13,2.94-1.52,25,.11,29.25,3.64,4.73,4,6.83,8.18,8.36,14,1.75,6.7,8.06,31.54-4.74,35.87"/><path id="Path_1835" data-name="Path 1835" class="cls-6" d="M337.37,108.36c17.16,1.66,24.28,17.34,26.32,34.81,2.09,17.84.09,38.9-.11,56.88"/><path id="Path_1836" data-name="Path 1836" class="cls-6" d="M400.11,67.29c-6,0-13.4,9.8-16.05,16.7-5.39,14.08-7.39,29.24-8.66,44.17q-2.4,28.25-2.59,56.64"/><path id="Path_1837" data-name="Path 1837" class="cls-8" d="M400.72,152.29a43.64,43.64,0,0,1,15.18,2.21,18.64,18.64,0,0,1,6.13,7.84c1.55,4,.79,9-2.35,11.84-2.42,2.19-5.86,2.85-9.09,2.65a9.75,9.75,0,0,1-4.53-1.22c-3.45-2.1-4.26-6.75-6.21-10.36a15.59,15.59,0,0,0-13.53-8.1"/><path id="Path_1838" data-name="Path 1838" class="cls-9" d="M413.58,168.77c-.17-6.26-1.07-11.14-6.45-15.1a17,17,0,0,0-11.57-3.24"/><path id="Path_1839" data-name="Path 1839" class="cls-7" d="M415.9,154.5c-7.64-1.42-15.76,1.7-21.19,7.4-2.56,2.68-5,6.13-8.65,6.46s-8.51.69-8.64-7.2c-.1-6,3.51-7.52,6.69-9.62s7-2.84,10.78-3.13c4.41-.33,15.13,0,21,6.09"/><path id="Path_1840" data-name="Path 1840" class="cls-10" d="M407,149.34c-13.42,0-23.34,9.94-25.51,16.85s-2.55,14.39-2.61,21.75"/><path id="Path_1841" data-name="Path 1841" class="cls-7" d="M341,123.4c-10.17,2.27-16.28-9-23-15.89-7.53-7.7-16.6-8-24.85-13.66-2.28-1.56-4.44-4.6-3.48-7.5.85-2.57,3.55-3.33,5.87-3.63a56,56,0,0,1,22.37,1.07c10.13,2.81,21.53,5.83,26.55,17,2.14,4.79,4,20-3.48,22.62"/><path id="Path_1842" data-name="Path 1842" class="cls-6" d="M294.4,85.92c25.44,1.81,41.46,21.9,48.41,44.83,5.5,18.14,7.94,37.7,9.13,56.56"/><path id="Path_1843" data-name="Path 1843" class="cls-11" d="M392.44,183.65H336.78s-1.7,65.28,14.27,84.16h27.12C394.14,248.93,392.44,183.65,392.44,183.65Z"/></g><g id="Group_616" data-name="Group 616"><path id="Path_1844" data-name="Path 1844" class="cls-12" d="M269.83,92.45H282a8,8,0,0,1,8.05,8h0v21.62"/><path id="Path_1845" data-name="Path 1845" class="cls-12" d="M143.39,171h19a4.75,4.75,0,0,1,4.75,4.75h0v19.79a4.76,4.76,0,0,0,4.76,4.75H371a5.62,5.62,0,0,1,5.61,5.62v13.83a5.62,5.62,0,0,1-5.61,5.62h-53.1"/><path id="Path_1846" data-name="Path 1846" class="cls-12" d="M107.61,95.63V72.26a11.5,11.5,0,0,1,11.5-11.5H356.44a4.73,4.73,0,0,1,4.73,4.73h0V85.16a4.73,4.73,0,0,1-4.73,4.73H328.6"/><path id="Path_1847" data-name="Path 1847" class="cls-13" d="M170.67,246.93a1.76,1.76,0,1,1-1.75-1.75h0A1.75,1.75,0,0,1,170.67,246.93Z"/><path id="Path_1848" data-name="Path 1848" class="cls-13" d="M93.94,71.1a1.76,1.76,0,1,1-1.75-1.75h0A1.75,1.75,0,0,1,93.94,71.1Z"/><path id="Path_1849" data-name="Path 1849" class="cls-13" d="M291.17,43.62a1.75,1.75,0,1,1-1.75-1.76,1.75,1.75,0,0,1,1.75,1.76Z"/><path id="Path_1850" data-name="Path 1850" class="cls-13" d="M380.64,191.14a1.76,1.76,0,1,1-1.76-1.76h0A1.77,1.77,0,0,1,380.64,191.14Z"/><path id="Path_1851" data-name="Path 1851" class="cls-13" d="M47.7,169.63A1.76,1.76,0,1,1,46,167.88a1.75,1.75,0,0,1,1.75,1.75Z"/><path id="Path_1852" data-name="Path 1852" class="cls-13" d="M412.65,137.51a1.76,1.76,0,1,1-1.75-1.76h0A1.76,1.76,0,0,1,412.65,137.51Z"/><circle id="Ellipse_19" data-name="Ellipse 19" class="cls-14" cx="103.19" cy="53.42" r="4.75"/><path id="Path_1853" data-name="Path 1853" class="cls-14" d="M365.16,49.38a4,4,0,1,1-4-4,4,4,0,0,1,4,4Z"/><circle id="Ellipse_20" data-name="Ellipse 20" class="cls-14" cx="409.14" cy="193.54" r="3.99"/><circle id="Ellipse_21" data-name="Ellipse 21" class="cls-14" cx="194.81" cy="253.81" r="3.99"/></g><g id="Rectangle_48" data-name="Rectangle 48"><rect class="cls-15" x="61.67" y="79.67" width="97.54" height="140.23" rx="6.6" ry="6.6"/><rect class="cls-13" x="61.89" y="79.89" width="97.1" height="139.79" rx="6.38" ry="6.38"/></g><rect id="Rectangle_49" data-name="Rectangle 49" class="cls-16" x="66.5" y="85.92" width="87.9" height="127.72"/><g id="Group_644" data-name="Group 644"><g class="cls-17"><g id="Group_641" data-name="Group 641"><g id="Group_637" data-name="Group 637"><g id="Group_617" data-name="Group 617"><path id="Path_1854" data-name="Path 1854" class="cls-18" d="M72,121.74a.6.6,0,0,1-.42-1l4.9-4.9a.6.6,0,0,1,.86,0,.61.61,0,0,1,0,.85l-4.91,4.91A.6.6,0,0,1,72,121.74Z"/></g><g id="Group_618" data-name="Group 618"><path id="Path_1855" data-name="Path 1855" class="cls-18" d="M94.79,111.55a.64.64,0,0,1-.2,0L88,109.24a.59.59,0,0,1-.39-.76.61.61,0,0,1,.76-.39h0L95,110.37a.61.61,0,0,1-.2,1.18Z"/></g><g id="Group_619" data-name="Group 619"><path id="Path_1856" data-name="Path 1856" class="cls-18" d="M89.09,94.27a.6.6,0,0,1-.26-1.15l3.91-1.84a.59.59,0,0,1,.8.28.61.61,0,0,1-.29.81l-3.91,1.84A.54.54,0,0,1,89.09,94.27Z"/></g><g id="Group_620" data-name="Group 620"><path id="Path_1857" data-name="Path 1857" class="cls-18" d="M152.44,125.22a.61.61,0,0,1-.26-1.15l3.91-1.84a.6.6,0,0,1,.81.27.61.61,0,0,1-.27.81h0l-3.9,1.84A.58.58,0,0,1,152.44,125.22Z"/></g><g id="Group_621" data-name="Group 621"><path id="Path_1858" data-name="Path 1858" class="cls-18" d="M87,152.63a.57.57,0,0,1-.35-.12l-4.07-3a.61.61,0,0,1,.71-1h0l4.07,3a.6.6,0,0,1,.13.84.58.58,0,0,1-.49.25Z"/></g><g id="Group_622" data-name="Group 622"><path id="Path_1859" data-name="Path 1859" class="cls-18" d="M145.74,137.36a.65.65,0,0,1-.31-.08l-6-3.5a.61.61,0,0,1-.19-.83.6.6,0,0,1,.8-.21l6,3.5a.6.6,0,0,1-.3,1.12Z"/></g><g id="Group_623" data-name="Group 623"><path id="Path_1860" data-name="Path 1860" class="cls-18" d="M133,176.39a.6.6,0,0,1-.36-1.08l5.55-4.16a.6.6,0,1,1,.72,1l-5.55,4.16A.58.58,0,0,1,133,176.39Z"/></g><g id="Group_624" data-name="Group 624"><path id="Path_1861" data-name="Path 1861" class="cls-18" d="M72.67,168.41a.6.6,0,0,1-.6-.6.59.59,0,0,1,.2-.45l3.57-3.17a.61.61,0,0,1,.86.05.6.6,0,0,1-.06.85l-3.57,3.17A.59.59,0,0,1,72.67,168.41Z"/></g><g id="Group_625" data-name="Group 625"><path id="Path_1862" data-name="Path 1862" class="cls-18" d="M74.14,134l.62,2.1,1.6-1.56Z"/></g><g id="Group_626" data-name="Group 626"><path id="Path_1863" data-name="Path 1863" class="cls-18" d="M145.39,105.06l-.95,2,2.22-.09Z"/></g><g id="Group_627" data-name="Group 627"><path id="Path_1864" data-name="Path 1864" class="cls-18" d="M119.49,95.88,121,97.45l.67-2.13Z"/></g><g id="Group_628" data-name="Group 628"><path id="Path_1865" data-name="Path 1865" class="cls-18" d="M76.57,99.71l-1.42,1.68,2.18.47Z"/></g><g id="Group_629" data-name="Group 629"><path id="Path_1866" data-name="Path 1866" class="cls-18" d="M108.48,106.06l1,2,1.28-1.83Z"/></g><g id="Group_630" data-name="Group 630"><path id="Path_1867" data-name="Path 1867" class="cls-19" d="M74.46,147.51l-2.11.62,1.56,1.59Z"/></g><g id="Group_631" data-name="Group 631"><path id="Path_1868" data-name="Path 1868" class="cls-19" d="M148.24,151.82l-1.55,1.56,2.13.65Z"/></g><g id="Group_632" data-name="Group 632"><path id="Path_1869" data-name="Path 1869" class="cls-19" d="M134.63,94.27l.65,2.1,1.57-1.58Z"/></g><g id="Group_633" data-name="Group 633"><path id="Path_1870" data-name="Path 1870" class="cls-19" d="M88.5,126a.74.74,0,0,1-.74.73.73.73,0,1,1,.74-.73Z"/></g><g id="Group_634" data-name="Group 634"><path id="Path_1871" data-name="Path 1871" class="cls-19" d="M100.65,97.68a.74.74,0,1,1-.73-.73h0A.73.73,0,0,1,100.65,97.68Z"/></g><g id="Group_635" data-name="Group 635"><path id="Path_1872" data-name="Path 1872" class="cls-19" d="M130,109.81a.73.73,0,1,1-.73-.73h0a.73.73,0,0,1,.73.73Z"/></g><g id="Group_636" data-name="Group 636"><path id="Path_1873" data-name="Path 1873" class="cls-19" d="M148.49,171.09a.74.74,0,1,1-.74-.73h0A.73.73,0,0,1,148.49,171.09Z"/></g></g><path id="Path_1874" data-name="Path 1874" class="cls-20" d="M97,168.61l-40.22,13v47.54H163.09V181.6l-35.23-10.75"/><g id="Group_640" data-name="Group 640"><g id="Group_639" data-name="Group 639"><g class="cls-21"><g id="Group_638" data-name="Group 638"><path id="Path_1875" data-name="Path 1875" class="cls-22" d="M61,193.84q55.95,1.36,111.9-.54"/><path id="Path_1876" data-name="Path 1876" class="cls-22" d="M169.74,190.56q-55.2-.76-110.4-.22"/><path id="Path_1877" data-name="Path 1877" class="cls-22" d="M169.84,202.75q-55.2-.76-110.4-.22"/><path id="Path_1878" data-name="Path 1878" class="cls-22" d="M57.21,186.25c37.5-1.49,75.18,2.19,112.52-1.43"/><path id="Path_1879" data-name="Path 1879" class="cls-22" d="M55.85,207.88c37.5-1.49,75.18,2.18,112.53-1.44"/><path id="Path_1880" data-name="Path 1880" class="cls-22" d="M56.6,198.88c37.5-1.49,75.18,2.19,112.53-1.43"/><path id="Path_1881" data-name="Path 1881" class="cls-22" d="M55.41,181.64,161,181"/><path id="Path_1882" data-name="Path 1882" class="cls-22" d="M158.29,177.41c-11-1.39-22.15-1.12-33.24-.85l-70,1.7"/><path id="Path_1883" data-name="Path 1883" class="cls-22" d="M157.71,213.24c-11-1.4-22.14-1.13-33.23-.86l-70,1.7"/><path id="Path_1884" data-name="Path 1884" class="cls-22" d="M151,174.13q-32-1.09-64-.95c-7.42,0-15,.13-22,2.29"/></g></g></g><path id="Path_1886" data-name="Path 1886" class="cls-23" d="M130.26,139.29a1.82,1.82,0,0,1,1.23-2.31,2.68,2.68,0,0,1,2.65.91,5.34,5.34,0,0,1,1.11,2.7,6.73,6.73,0,0,1-.76,4.62,3.9,3.9,0,0,1-4.09,1.8"/><path id="Path_1887" data-name="Path 1887" class="cls-23" d="M125.78,122.75s11.85,31.11,8.31,34.65-21.5,6.35-23.7,4.15a63.5,63.5,0,0,1-8.31-11c-2.34-4.48-5.62-15.15-2.69-20S121.4,118.37,125.78,122.75Z"/><path id="Path_1888" data-name="Path 1888" class="cls-24" d="M115.89,134.86a11.28,11.28,0,0,0-9.1,2.09l.52,1.24a24.22,24.22,0,0,1,8.91-1.64A12,12,0,0,1,115.89,134.86Z"/><path id="Path_1889" data-name="Path 1889" class="cls-24" d="M128.73,131.51a4.82,4.82,0,0,0-5.22,2.62l.76,1.08a6.69,6.69,0,0,1,4.28-2.24Z"/><path id="Path_1890" data-name="Path 1890" class="cls-24" d="M118.78,140.58a.93.93,0,0,1-1,.82.92.92,0,0,1-.82-1,.93.93,0,0,1,.92-.83A1,1,0,0,1,118.78,140.58Z"/><ellipse id="Ellipse_22" data-name="Ellipse 22" class="cls-24" cx="127.81" cy="137.16" rx="0.92" ry="1.03"/><line id="Line_2" data-name="Line 2" class="cls-25" x1="132.39" y1="143.57" x2="130.89" y2="137.49"/><path id="Path_1891" data-name="Path 1891" class="cls-23" d="M127.49,158.13l-1,17.09s-6.27,6.38-9.93,6.38c-7.09,0-16.7-12.06-16.7-12.06L104.77,151"/><path id="Path_1892" data-name="Path 1892" class="cls-26" d="M120.55,147.17a36.91,36.91,0,0,1,7.38-2,7.1,7.1,0,0,0,1.93-.43,3.59,3.59,0,0,0,2.12-3c2.81,1.62,4.7,5.48,5.93,8.37,1.39,3.25,2.15,7.43-.29,10.4-3.23,3.92-10.16,3.78-14.7,4.76-4,.87-8.26,1.55-12,0-4.06-1.71-4.65-4.91-7.44-7.76.18,1-1.16,1.82-2.19,1.54a4.87,4.87,0,0,1-2.35-2.06A52.76,52.76,0,0,1,95.6,152a34,34,0,0,1-4.07-15,5.57,5.57,0,0,1,.47-3.09,22.88,22.88,0,0,0,1.51-2.08,7.59,7.59,0,0,0,.21-2.74,9.5,9.5,0,0,1,1.78-4.72c5.44-8.36,14.67-11.51,24.16-10.68,5.89.51,11.88,3.33,14.75,8.49a5.47,5.47,0,0,1,.84,3.2c-.34,2.77-3.67,3.9-6.41,4.43a83.51,83.51,0,0,1-14.49,1.92c-4.3.05-8.57-.35-12,2.75a1,1,0,0,0-.41.9c-.05,2.71,1.06,5.29,2.1,7.8a13.13,13.13,0,0,0,1.75,3.31c1.54,1.87,4,2.26,6.34,2.37C115,149,117.84,148.08,120.55,147.17Z"/><path id="Path_1893" data-name="Path 1893" class="cls-27" d="M101.72,134.88a8.53,8.53,0,0,1,3.76-1.58c3.88-.8,7.86-.49,11.79-.72s8-1.07,11.11-3.78a4.32,4.32,0,0,0,1.42-2"/><path id="Path_1894" data-name="Path 1894" class="cls-27" d="M133.36,142.86a11.38,11.38,0,0,1,4.61,4.91,14.69,14.69,0,0,1,1.48,6.61c0,1.94-.49,4.11-2.13,5.13"/><path id="Path_1895" data-name="Path 1895" class="cls-19" d="M119.81,151.69,131,149.64a.36.36,0,0,1,.41.26c.38,1.32,1.45,6.38-3.64,7.21a7.11,7.11,0,0,1-8.26-4.83.44.44,0,0,1,.26-.57Z"/><path id="Path_1896" data-name="Path 1896" class="cls-23" d="M106.69,152.54c-1.86-3.38-5.06-8.48-7.78-6.13A3.06,3.06,0,0,0,98,148a6.93,6.93,0,0,0,4.22,7.93c2,.72,4.54.45,4.66-2.14A4,4,0,0,0,106.69,152.54Z"/><path id="Path_1897" data-name="Path 1897" class="cls-28" d="M99.85,150.14s-.48-2.14.6-2.14a2.49,2.49,0,0,1,2.19,1.72c.12.32-1,1.45-.09,1.93s1.37.34,2,.94.86,2.15-.42,2.15"/><path id="Path_1898" data-name="Path 1898" class="cls-28" d="M122.63,135.39s6.1,5.88,5.84,8.91c-.21,2.44-5.84,1.63-5.84,1.63"/><path id="Path_1899" data-name="Path 1899" class="cls-29" d="M118,212.56s1.2-18.48-1.41-31"/><path id="Path_1900" data-name="Path 1900" class="cls-19" d="M101.68,162.72s9.46,17.07,14.9,18.88c-3.33,4.8-7.55,12.08-9.67,12.08-3.62,0-12.47-24.34-12.47-24.34Z"/><path id="Path_1901" data-name="Path 1901" class="cls-19" d="M116.58,181.6c7.55-4,10.55-14.81,10.55-14.81l3.65,5.21s-2.43,19.57-5.45,19.57C123.52,191.57,116.58,181.6,116.58,181.6Z"/><path id="Path_1902" data-name="Path 1902" class="cls-24" d="M116.51,185.17a.74.74,0,1,1-.73-.73h0a.73.73,0,0,1,.73.73Z"/><path id="Path_1903" data-name="Path 1903" class="cls-24" d="M116.58,197.46a.74.74,0,1,1-.74-.74h0a.74.74,0,0,1,.74.73Z"/><line id="Line_3" data-name="Line 3" class="cls-29" x1="149.38" y1="198.07" x2="147.59" y2="221.69"/><path id="Path_1904" data-name="Path 1904" class="cls-27" d="M92.32,136a30.17,30.17,0,0,0,1.93,15.59c1.16,2.68,4.57,8.95,8.42,7"/></g></g><g id="Group_643" data-name="Group 643"><path id="Path_1905" data-name="Path 1905" class="cls-30" d="M127.8,250.67h21a6.21,6.21,0,0,0,6.21-6.21v-7.18a6.21,6.21,0,0,0-6.21-6.21H125.12l-3.53-3.39v16.78a6.21,6.21,0,0,0,6.21,6.21Z"/><g id="Group_642" data-name="Group 642"><path id="Path_1906" data-name="Path 1906" class="cls-18" d="M129,241.27a1.24,1.24,0,0,1,1.17-1.31h.08a1.22,1.22,0,0,1,1.23,1.2.45.45,0,0,1,0,.11,1.23,1.23,0,0,1-1.15,1.31h-.11a1.21,1.21,0,0,1-1.21-1.23Z"/><path id="Path_1907" data-name="Path 1907" class="cls-18" d="M137,241.27a1.26,1.26,0,0,1,1.17-1.31h.08a1.22,1.22,0,0,1,1.23,1.2v.11a1.24,1.24,0,1,1-2.48.14v-.14Z"/><path id="Path_1908" data-name="Path 1908" class="cls-18" d="M145.1,241.27a1.24,1.24,0,0,1,1.17-1.31h.08a1.22,1.22,0,0,1,1.23,1.2.45.45,0,0,1,0,.11,1.23,1.23,0,0,1-1.15,1.31h-.12a1.22,1.22,0,0,1-1.21-1.23S145.1,241.3,145.1,241.27Z"/></g></g></g></g><g id="Group_659" data-name="Group 659"><g id="Group_646" data-name="Group 646"><g id="Group_645" data-name="Group 645"><path id="Path_1909" data-name="Path 1909" class="cls-15" d="M295.59,263.66H241.14l5.43-26.3h43.59Z"/><path id="Path_1910" data-name="Path 1910" class="cls-16" d="M244,249.82l2.57-12.46,43.59,3.4Z"/><path id="Rectangle_51" data-name="Rectangle 51" class="cls-15" d="M231.39,262.33h73.95a3,3,0,0,1,3.05,3h0v2.44h-80v-2.44a3,3,0,0,1,3-3Z"/><line id="Line_4" data-name="Line 4" class="cls-13" x1="241.51" y1="262.33" x2="295.32" y2="262.33"/></g><rect id="Rectangle_52" data-name="Rectangle 52" class="cls-15" x="177.34" y="114.08" width="182.05" height="126.68" rx="5.04" ry="5.04"/><g id="Rectangle_53" data-name="Rectangle 53"><rect class="cls-31" x="182.88" y="119.57" width="170.97" height="115.7"/><rect class="cls-13" x="182.66" y="119.35" width="171.41" height="116.14"/></g><path id="Path_1911" data-name="Path 1911" class="cls-15" d="M352.46,114.08H329.62a21.56,21.56,0,0,0-5.09,4.63c-1.55,2-2.81,4.36-2.64,6.87.29,4.25,4.8,7.29,9.06,7.22s8.14-2.49,11.33-5.31,5.13-6.78,8.39-9.4a9.4,9.4,0,0,1,6.29-2.35A6.93,6.93,0,0,0,352.46,114.08Z"/></g><g id="Group_648" data-name="Group 648"><g class="cls-32"><g id="Group_647" data-name="Group 647"><path id="Path_1912" data-name="Path 1912" class="cls-5" d="M199.11,250.69c-3.73-4.18-5.32-9.79-6.79-15.19-1.68-6.18-3.38-12.47-3-18.86.14-2.59.61-5.16.64-7.75.06-5.68-2-11.3-1.73-16.93a.61.61,0,0,1,.63-.57.62.62,0,0,1,.46.26,77.23,77.23,0,0,1,12.73,30c2,10.3,1.92,21.33,7.11,30.45"/><path id="Path_1913" data-name="Path 1913" class="cls-5" d="M224.72,243.46c-3.74-8.66-7.27-17.53-8.68-26.86-1-6.83-.9-13.76-.66-20.64a104.22,104.22,0,0,1,2-19,180.34,180.34,0,0,1,8-25.27,1,1,0,0,1,1.95.26c.95,9.3,2.05,18.59,3.82,27.77,1.81,9.36,4.31,18.65,4.49,28.17.24,13.21-4,26.36-2.39,39.47"/><path id="Path_1914" data-name="Path 1914" class="cls-33" d="M227,150.53c-3.27,14.51-2.68,29.59-1.37,44.4s3.3,29.63,2.79,44.49"/><path id="Path_1915" data-name="Path 1915" class="cls-33" d="M227.23,153.44c.18,22.19,5.16,46,3.41,68.08-.49,6.07-1.47,12.12-1.26,18.21"/><path id="Path_1916" data-name="Path 1916" class="cls-33" d="M233,188.84c.74,11.15,1.48,22.41-.15,33.47-.87,5.89-2.42,11.82-1.66,17.73"/><path id="Path_1917" data-name="Path 1917" class="cls-33" d="M222,159.55c-1.89,8.77-3.79,19.66-3.45,28.63.66,17.52,9.82,34.2,8.64,51.7"/><path id="Path_1918" data-name="Path 1918" class="cls-33" d="M215.76,195.05c.39,3.49,1.11,6.92,1.82,10.35L222,226.76a65.32,65.32,0,0,0,3.87,13.58"/><path id="Path_1919" data-name="Path 1919" class="cls-34" d="M211.5,230.56a189.34,189.34,0,0,1-8-75.3,231.59,231.59,0,0,1,3.46-23,.82.82,0,0,1,1-.64.8.8,0,0,1,.65.71c1,9.69,5.11,19.07,8.34,28.4A180.59,180.59,0,0,1,224.63,248"/><path id="Path_1920" data-name="Path 1920" class="cls-34" d="M236.12,245.19c-.71-18.89-10.24-37.53-6.19-56,1-4.63,2.88-9.07,3.58-13.76.54-3.56.4-7.18.59-10.77A59.37,59.37,0,0,1,239,144c1.47-3.34,3.48-6.28,5.2-9.47.53-1,2.26-3.66,3.32-5.83a.75.75,0,0,1,1-.33.76.76,0,0,1,.4.54c2.06,11.73,3.34,24.89,2,36.77-.53,4.76-1.54,9.52-1.08,14.28.3,3.08,1.21,6.06,1.74,9.1,2.75,15.54-4.17,31.46-2.07,47.1"/><path id="Path_1921" data-name="Path 1921" class="cls-34" d="M298.5,237.49a76.09,76.09,0,0,1-.23-45.71,42.83,42.83,0,0,0,1.87-7c.56-4.24-.51-8.51-.84-12.77-.9-11.63,3.74-22.81,8.76-33.43a.86.86,0,0,1,1.64.27c1.26,12.21,6.46,23.69,7.28,36a78.29,78.29,0,0,1-.65,18c-1.07,6.47-2.78,12.85-3.31,19.4-.4,5-.53,10.77-2.19,15.54"/><path id="Path_1922" data-name="Path 1922" class="cls-5" d="M325.74,243.46c.52.68,1.35-.51,1.32-1.36a40.86,40.86,0,0,0-5.25-18.9c-1.61-2.85-3.59-5.56-4.51-8.71a24.08,24.08,0,0,1-.55-8.47,26,26,0,0,1,1.6-8.22c1.78-4.26,5.38-7.46,7.78-11.4,5.46-9,2.55-20.53,6.83-30.18.51-1.17,2.69-1.1,3,.09,1.49,5.42,4.14,11.52,4.76,17,.75,6.76-2.69,13.5-2,20.37.55,5.67,3.42,11.11,2.84,16.77-.44,4.24-2.79,8.15-3,12.41-.19,3.48,1,6.86,1.76,10.27s.77,7.3-1.4,10"/><path id="Path_1923" data-name="Path 1923" class="cls-5" d="M267.2,237.36c-5.55-15,.38-24.4,1.21-30.22,2.11-14.78-.55-19.1-.9-29.83-.24-7.18-1-14.44.29-21.51,2-10.87,8.89-20.73,11.1-31.32a1.43,1.43,0,0,1,1.69-1.12,1.45,1.45,0,0,1,1.09,1q3.48,12.6,7,25.2c2.13,7.67,4.27,15.5,4,23.46-.15,5-1.23,9.87-1.82,14.82-.63,5.43-1.32,14.4-1.35,19.87-.05,8.37,4.35,13.86-1.14,31.09"/><path id="Path_1924" data-name="Path 1924" class="cls-33" d="M188.19,192a190.58,190.58,0,0,1,7.86,33c.44,3,.82,5.95,1.53,8.86a48.22,48.22,0,0,0,3.31,9.19"/><path id="Path_1925" data-name="Path 1925" class="cls-33" d="M189,199.77c3,13.72,2.89,28.42,9.36,40.88"/><path id="Path_1926" data-name="Path 1926" class="cls-33" d="M189.54,214.12a57.27,57.27,0,0,0,7.13,27.32"/><path id="Path_1927" data-name="Path 1927" class="cls-33" d="M191,194.05c2.75,5.28,3.81,11.24,4.83,17.1l5,28.57"/><path id="Path_1928" data-name="Path 1928" class="cls-33" d="M198,208.37c3.07,10.29,1.6,21.65,5.47,31.67"/><path id="Path_1929" data-name="Path 1929" class="cls-33" d="M207.81,131.43c-.88,17.4-1.73,35.11,2.51,52,1.17,4.66,2.72,9.22,4,13.85,1.16,4.16,2.1,8.37,3,12.6a268.7,268.7,0,0,1,4.23,27.92"/><path id="Path_1930" data-name="Path 1930" class="cls-33" d="M204.88,147.3c-3,30.48,4.77,61,14.58,90"/><path id="Path_1931" data-name="Path 1931" class="cls-33" d="M203.2,180.35c1.43,18.66,5.21,37.44,14,54"/><path id="Path_1932" data-name="Path 1932" class="cls-33" d="M210.59,141.87c.37,32,13,63.06,11.9,95"/><path id="Path_1933" data-name="Path 1933" class="cls-33" d="M219,168.17q1.46,15.71,3.65,31.33a130.13,130.13,0,0,1,1.52,14.33c.25,8.69-1.41,17.37-.87,26"/><path id="Path_1934" data-name="Path 1934" class="cls-33" d="M249,128.89c-2.2,5.54-2.1,7-2.55,13-1.37,18.37-2.75,36.73-3.81,55.11-.86,14.77-1.5,29.69,1.09,44.25"/><path id="Path_1935" data-name="Path 1935" class="cls-33" d="M244.11,134.23C241,144.79,241.4,156,240.34,167c-.45,4.69-1.18,9.35-1.72,14a179.49,179.49,0,0,0,3.22,60.12"/><path id="Path_1936" data-name="Path 1936" class="cls-33" d="M236.79,150.9c.1,9.3.19,18.73-2.17,27.72-.86,3.29-2,6.5-2.68,9.83-1.36,7.2-.11,14.6,1.14,21.81l2.09,12.05c1.26,7.23,2.53,14.51,5.14,21.37"/><path id="Path_1937" data-name="Path 1937" class="cls-33" d="M250.92,145.25q-1,6.94-2,13.9c-.52,3.49-1,7-1.29,10.5-1,13.82,1.9,27.68,1.13,41.51-.55,9.69-2.88,19.58-.32,28.93"/><path id="Path_1938" data-name="Path 1938" class="cls-33" d="M271.89,146c-3.75,10-3.45,21-2.55,31.66s2.38,21.38.79,31.94c-.44,3-1.14,6-1.32,9a51.31,51.31,0,0,0,.89,10.91q.87,5.47,1.85,10.93"/><path id="Path_1939" data-name="Path 1939" class="cls-33" d="M276.58,131.66c.26,11.92-4.23,23.51-4.4,35.43a130,130,0,0,0,.84,13.22,278.15,278.15,0,0,1,.34,35.83c-.32,7.08-.77,14.25.81,21.15"/><path id="Path_1940" data-name="Path 1940" class="cls-33" d="M280.16,123.85q-2.28,31.2-1.82,62.5c.12,7.78.35,15.57-.48,23.3-1.26,11.68-4.92,23.67-1.49,34.91"/><path id="Path_1941" data-name="Path 1941" class="cls-33" d="M283.6,132.92c3,13.26,1,27.09,1.18,40.7.11,6.51.74,13,.35,19.53-1,16.55-8.58,32.48-7.48,49"/><path id="Path_1942" data-name="Path 1942" class="cls-33" d="M290,155.55c2.8,15.08-.63,30.52-1.52,45.83-.19,3.22-.27,6.46-.23,9.69.06,4.88.38,9.78-.34,14.61s-2.48,9.49-4.22,14.08"/><path id="Path_1943" data-name="Path 1943" class="cls-33" d="M308.8,138.06c-3.89,9-7.6,18.46-7.65,28.3,0,7.95,2.3,15.91,1.06,23.77-.41,2.56-1.19,5.06-1.76,7.59a87.73,87.73,0,0,0-1.63,15.69c-.35,9.22-.45,18.77,3.07,27.3"/><path id="Path_1944" data-name="Path 1944" class="cls-33" d="M309.59,138c-3.51,10.54-3.83,21.87-3.39,33s1.6,22.22.92,33.31c-.78,12.68-4,25.38-2.08,37.94"/><path id="Path_1945" data-name="Path 1945" class="cls-33" d="M309.81,142.66c-1,12.29,0,24.65,1.3,36.92a84.84,84.84,0,0,1,.69,13.23c-.24,4.41-1.19,8.76-1.83,13.14-.45,3.08-.75,6.18-1,9.28s-.6,6.3-.91,9.45c-.44,4.66-.88,9.44.27,14"/><path id="Path_1946" data-name="Path 1946" class="cls-33" d="M312.61,154.62c1.59,15.56,3.18,31.33.73,46.78-.77,4.84-1.93,9.61-2.64,14.46a160.23,160.23,0,0,0-1.26,19.83"/><path id="Path_1947" data-name="Path 1947" class="cls-33" d="M335.45,154.82a40.34,40.34,0,0,0-1.75,10c-.14,3,.05,6-.1,8.94-.29,5.93-1.94,11.7-3.64,17.39-2.15,7.21-4.42,14.62-3.69,22.1a57.48,57.48,0,0,0,1.39,7.38l3.57,15.2a14.39,14.39,0,0,0,1.83,4.92"/><path id="Path_1948" data-name="Path 1948" class="cls-33" d="M336,156.55c-.28,3.63,0,7.28-.15,10.93-.46,14.08-6.31,27.82-4.94,41.84.31,3.17,1,6.28,1.5,9.42a193.51,193.51,0,0,1,1.91,20.69"/><path id="Path_1949" data-name="Path 1949" class="cls-33" d="M337.41,159.71c1.29,11.78-3,23.5-2.84,35.35A125.25,125.25,0,0,0,336,209a206.37,206.37,0,0,1,1.59,31.43"/><path id="Path_1950" data-name="Path 1950" class="cls-33" d="M331.52,162.05c1.8,16.19-11.58,33-9.58,49.19a50.63,50.63,0,0,0,1.15,5.71l6.14,25.43"/><path id="Path_1951" data-name="Path 1951" class="cls-34" d="M343.18,246.45c-2.32-2.92-4.7-6-5.5-9.61-.61-2.77-.26-5.65-.47-8.48-.3-4.17-1.84-8.2-1.85-12.38,0-8.67,6.05-15.62,9.18-23.29,1.55-3.8,1.26-7.18,2-11.1a119.67,119.67,0,0,1,3.28-14A1,1,0,0,1,351,167a1,1,0,0,1,.7.89c1.19,17.76,7.28,35.37,4.77,53-1.55,10.94-6.34,21.11-11.07,31.1"/><path id="Path_1952" data-name="Path 1952" class="cls-33" d="M350.39,167.14c-1.82,8.73.26,17.86-1.12,26.67-.48,3.11-1.39,6.13-2,9.22-1.24,6-1.4,12.25-1.55,18.41q-.26,10-.5,19.95"/><path id="Path_1953" data-name="Path 1953" class="cls-33" d="M348.18,179.68c.09,9-2.15,17.78-4.33,26.49a60.74,60.74,0,0,0-2.06,11.16,60.75,60.75,0,0,0,.4,9.24q.71,7.31,1.39,14.62"/><path id="Path_1954" data-name="Path 1954" class="cls-33" d="M343.16,196.8c-2,4.55-4.08,9.18-4.67,14.12a49.68,49.68,0,0,0,.41,11.42c.72,6.32,1.45,12.68,3.25,18.78"/><path id="Path_1955" data-name="Path 1955" class="cls-33" d="M352.81,184c-.09,11.4-.19,22.85-2,34.11-.55,3.44-1.27,6.85-1.63,10.32a50.84,50.84,0,0,0,.33,13"/><path id="Path_1956" data-name="Path 1956" class="cls-33" d="M355.3,215.56A105.39,105.39,0,0,0,352,240.8"/></g></g></g><g id="Group_655" data-name="Group 655"><g id="Group_649" data-name="Group 649"><path id="Path_1957" data-name="Path 1957" class="cls-35" d="M291.91,139a13.59,13.59,0,0,1,5.72,7c1,2.89,1.14,6.64,3,9.1,1.43,1.93,3.54,3.06,5.6,4.3s4.27,2.43,4.73,4.79c.73,3.63-2.63,7.14-2,10.79.7,3.88,5.23,5.49,8.22,8.06a12.26,12.26,0,0,1,1.27,17.3,11.93,11.93,0,0,1-2.27,2c-2.53,1.77-5.61,2.51-8.62,3.2-10.2,2.33-20.51,4.4-31,5.06s-21.09-.12-31-3.37a12.23,12.23,0,0,1-4.09-2,13.64,13.64,0,0,1-2.72-3.45c-2-3.15-4-6.38-4.69-10s.07-7.81,2.92-10.17c1.77-1.46,4.51-2.46,5.83-4.5,2.07-3.2-.83-6.16-1.52-9.31-.76-3.43,2.13-5.72,4.39-7.69,2.51-2.2,3.38-4.38,4.19-7.58a24.91,24.91,0,0,1,29.25-18.22"/><path id="Path_1958" data-name="Path 1958" class="cls-36" d="M297.5,146c1.21,2.9,1.49,6.3,3.47,8.72,1.55,1.89,3.88,2.86,6,4s4.29,2.76,4.9,5.15c.94,3.69-2.2,7.49-1.33,11.19.93,3.94,5.55,5.33,8.69,7.79,3,2.33,4.86,10.14,0,14.91"/><path id="Path_1959" data-name="Path 1959" class="cls-36" d="M250.84,150.53a18.6,18.6,0,0,1-6.67,10.26c-2.2,1.69-4.34,4.06-4.19,6.88.11,2,1.33,3.69,1.64,5.64a6.23,6.23,0,0,1-1.09,4.58c-1.4,1.91-3.78,2.86-5.23,4.73a8.16,8.16,0,0,0-.53,8.3,14.18,14.18,0,0,0,6.1,6"/></g><g id="Group_650" data-name="Group 650"><path id="Path_1960" data-name="Path 1960" class="cls-37" d="M231.18,207.1l-14,15-13.88-29.91-5.72,1.37s-2.34,45.77,15.52,49.75c15,3.35,39-20.25,39-20.25"/><path id="Path_1961" data-name="Path 1961" class="cls-37" d="M202.5,194.72a13.56,13.56,0,0,0,2.07-4.82c.2-2.08.34-8.08-.3-8.4-.8-.38-1.73,2.52-1.79,2.64-.15.3-1.79-8.79-2.63-8.68s-.29,6.26-.29,6.26-1.88-6.43-2.75-6.16.44,6.78.44,6.78-1.77-6-2.58-5.51.88,6.75.88,6.75-2.06-5.37-2.83-4.79,1.91,13.82,4.92,15l.81,3"/><path id="Path_1962" data-name="Path 1962" class="cls-25" d="M202.07,184.9s-3.55,3.19-2.28,6.24"/></g><path id="Path_1963" data-name="Path 1963" class="cls-37" d="M323.13,210.83l16.24,24.44H311.86l-10.29-9.79"/><path id="Path_1964" data-name="Path 1964" class="cls-38" d="M256.66,193.54a58.58,58.58,0,0,0-19,7.86A55.32,55.32,0,0,0,223.36,215l17.29,20.24H313l19.18-12.49S320.82,205,311.31,200.14A87.78,87.78,0,0,0,295,194.05l-25.16,5.84Z"/><path id="Path_1965" data-name="Path 1965" class="cls-37" d="M257.14,141.42c-4.11,10.1-8.11,33.27,6.4,36.63,20.54,4.76,26.24-18.14,27.32-26.82C292.56,137.46,261.25,131.31,257.14,141.42Z"/><path id="Path_1966" data-name="Path 1966" class="cls-37" d="M267.52,173.68l-1,16.57-9.83,3.29s-.18,12,3.77,14.19c4.88,2.78,25.68,3.32,29.22-.23S295,194,295,194l-12.29-4.71L279.36,171"/><path id="Path_1967" data-name="Path 1967" class="cls-35" d="M275.62,145c-4.58,5.47-16.52,8-21.85,6.38-5.69-1.71-6.71-8-3.93-12a18.43,18.43,0,0,1,7.52-6,30.35,30.35,0,0,1,22.3-1.29c5.59,1.87,10.79,5.67,13.1,11.1a21.37,21.37,0,0,1,1.51,6.51,32,32,0,0,1-1.36,12.44c-.48,1.5-1.19,3.11-2.63,3.78a5.36,5.36,0,0,1-4.26-.33c-5.53-2.32-8.25-11.41-10.4-20.63"/><path id="Path_1968" data-name="Path 1968" class="cls-35" d="M282.43,135.26a7.76,7.76,0,0,1,1.15-7.51c7.49-9.37,23.06,4.09,12.81,12.4-2.78,2.25-6.65,2.8-10.19,2.21"/><path id="Path_1969" data-name="Path 1969" class="cls-36" d="M297.93,129a7.47,7.47,0,0,1,1.3,9.27,9.57,9.57,0,0,1-3.9,3.48,13.24,13.24,0,0,1-5.82,1.44"/><path id="Path_1970" data-name="Path 1970" class="cls-25" d="M267.2,178.87s5.81.47,10.16-2.53"/><line id="Line_5" data-name="Line 5" class="cls-25" x1="218.8" y1="227.71" x2="217.23" y2="222.08"/><path id="Path_1971" data-name="Path 1971" class="cls-39" d="M240.65,234.2a48.55,48.55,0,0,1,7.15-20.33"/><line id="Line_6" data-name="Line 6" class="cls-39" x1="299.55" y1="222.08" x2="306.31" y2="235.39"/><path id="Path_1972" data-name="Path 1972" class="cls-40" d="M281.94,133s8.78,2.49,13.57,9.09"/><g id="Group_651" data-name="Group 651"><line id="Line_7" data-name="Line 7" class="cls-41" x1="279.44" y1="230.17" x2="281.4" y2="232.21"/><line id="Line_8" data-name="Line 8" class="cls-41" x1="295.64" y1="214.22" x2="297.59" y2="214.41"/><line id="Line_9" data-name="Line 9" class="cls-41" x1="252.23" y1="217.6" x2="253.77" y2="215.33"/><line id="Line_10" data-name="Line 10" class="cls-41" x1="244.73" y1="201.9" x2="247.05" y2="201.03"/><line id="Line_11" data-name="Line 11" class="cls-41" x1="240.96" y1="209.52" x2="242.52" y2="211.6"/><line id="Line_12" data-name="Line 12" class="cls-41" x1="298.09" y1="200.56" x2="298.42" y2="203.23"/><line id="Line_13" data-name="Line 13" class="cls-41" x1="231.43" y1="214.91" x2="233.84" y2="215.71"/><line id="Line_14" data-name="Line 14" class="cls-41" x1="284.8" y1="218.67" x2="286.8" y2="220.03"/><line id="Line_15" data-name="Line 15" class="cls-41" x1="305.3" y1="208.88" x2="307.32" y2="210.32"/><line id="Line_16" data-name="Line 16" class="cls-41" x1="313.48" y1="206.84" x2="315.55" y2="205.48"/><line id="Line_17" data-name="Line 17" class="cls-41" x1="276.24" y1="212.74" x2="276.99" y2="215.01"/><line id="Line_18" data-name="Line 18" class="cls-41" x1="321.43" y1="218.13" x2="324.02" y2="218.2"/><line id="Line_19" data-name="Line 19" class="cls-41" x1="264.87" y1="213.43" x2="262.21" y2="214.32"/><line id="Line_20" data-name="Line 20" class="cls-41" x1="307.1" y1="229.35" x2="309.54" y2="228.6"/><line id="Line_21" data-name="Line 21" class="cls-41" x1="270.37" y1="225.17" x2="272.89" y2="223.95"/><line id="Line_22" data-name="Line 22" class="cls-41" x1="290.34" y1="230.52" x2="291.36" y2="228.17"/><line id="Line_23" data-name="Line 23" class="cls-41" x1="307.81" y1="219.38" x2="308.83" y2="217.02"/><line id="Line_24" data-name="Line 24" class="cls-41" x1="262.96" y1="224.56" x2="265.18" y2="225.88"/><line id="Line_25" data-name="Line 25" class="cls-41" x1="250.27" y1="227.97" x2="251.33" y2="230.72"/><line id="Line_26" data-name="Line 26" class="cls-41" x1="241.08" y1="221.6" x2="238.3" y2="222.56"/></g><path id="Path_1973" data-name="Path 1973" class="cls-35" d="M257.47,156.64a.9.9,0,1,0,.9-.89.89.89,0,0,0-.9.89Z"/><path id="Path_1974" data-name="Path 1974" class="cls-35" d="M274.4,159.55a.9.9,0,1,1-.9-.89.89.89,0,0,1,.9.89Z"/><path id="Path_1975" data-name="Path 1975" class="cls-42" d="M271.62,162.49c1.91-1.42,5.59.81,5.22,3.5-.34,2.42-3.5,2.86-5.18,2.09a3,3,0,0,1-1.51-2.74A3.7,3.7,0,0,1,271.62,162.49Z"/><path id="Path_1976" data-name="Path 1976" class="cls-42" d="M255.88,160.91a2.89,2.89,0,0,1,4.39,3c-.28,2-2.94,2.4-4.35,1.75a2.49,2.49,0,0,1-1.27-2.3A2.9,2.9,0,0,1,255.88,160.91Z"/><path id="Path_1977" data-name="Path 1977" class="cls-25" d="M264.39,160.44s-3.33,5.13-2.44,6,3.33,1.29,3.33,1.29"/><path id="Path_1978" data-name="Path 1978" class="cls-43" d="M271.65,156.1s4.52-2.87,7,2.56"/><path id="Path_1979" data-name="Path 1979" class="cls-43" d="M255.62,153.52s3.53-2.24,5.49,2"/><path id="Path_1980" data-name="Path 1980" class="cls-19" d="M261.46,169.75l7.16-.12a.37.37,0,0,1,.38.35c.05,1.1-.05,4.33-3.08,4.67-3.81.44-4.68-3.09-4.88-4.41a.44.44,0,0,1,.36-.49Z"/><g id="Group_653" data-name="Group 653"><path id="Path_1981" data-name="Path 1981" class="cls-37" d="M281,171a2.93,2.93,0,0,0,2.89,2.67c4.15,0,7.9-4.8,6.81-8.16-1.64-5.08-6.7-1.7-7.41-.28"/><g id="Group_652" data-name="Group 652"><path id="Path_1982" data-name="Path 1982" class="cls-38" d="M284.09,172.28l0-.11a.51.51,0,0,0-.62-.36.47.47,0,0,0-.36.36.51.51,0,0,0,.36.62l.11,0a.45.45,0,0,0,.55-.55Z"/></g><path id="Path_1983" data-name="Path 1983" class="cls-25" d="M285,171c-.94.22-2.56.17-2.42-1.14s1.37-.9,2-1.64a2.81,2.81,0,0,0,.42-1.15,2.66,2.66,0,0,1,1-1.62,1.53,1.53,0,0,1,1.83.05,2.37,2.37,0,0,1,.55,1.72c0,.26-.06.61-.32.62"/></g><g id="Group_654" data-name="Group 654"><path id="Path_1984" data-name="Path 1984" class="cls-19" d="M306.53,188.91a.81.81,0,1,1-.8-.81A.81.81,0,0,1,306.53,188.91Z"/><path id="Path_1985" data-name="Path 1985" class="cls-5" d="M260.06,127.5a.81.81,0,1,1-.8-.81.81.81,0,0,1,.8.81Z"/><path id="Path_1986" data-name="Path 1986" class="cls-5" d="M311.47,152.93a.81.81,0,1,1-.81-.81A.82.82,0,0,1,311.47,152.93Z"/><path id="Path_1987" data-name="Path 1987" class="cls-5" d="M200.51,162.05a.81.81,0,1,1-.81-.81.8.8,0,0,1,.81.81Z"/><path id="Path_1988" data-name="Path 1988" class="cls-19" d="M242.09,188.91a.81.81,0,0,1-1.62,0,.81.81,0,0,1,1.62,0Z"/><path id="Path_1989" data-name="Path 1989" class="cls-19" d="M217.32,177a.81.81,0,1,1-.8-.8A.8.8,0,0,1,217.32,177Z"/><path id="Path_1990" data-name="Path 1990" class="cls-19" d="M228.41,184.8a.81.81,0,1,1-.81-.8A.81.81,0,0,1,228.41,184.8Z"/><path id="Path_1991" data-name="Path 1991" class="cls-34" d="M233.44,144.48a.81.81,0,0,1-1.62,0,.81.81,0,0,1,1.62,0Z"/><path id="Path_1992" data-name="Path 1992" class="cls-34" d="M324,171.79a.81.81,0,0,1-1.62,0,.8.8,0,0,1,.81-.8h0a.81.81,0,0,1,.81.8Z"/><path id="Path_1993" data-name="Path 1993" class="cls-34" d="M333,145.28a.81.81,0,1,1-.8-.8.8.8,0,0,1,.8.8Z"/><path id="Path_1994" data-name="Path 1994" class="cls-34" d="M343.61,142.58a.81.81,0,1,1-.81-.81h0a.81.81,0,0,1,.81.81Z"/><path id="Path_1995" data-name="Path 1995" class="cls-34" d="M190.2,171.79a.81.81,0,1,1-.81-.8.81.81,0,0,1,.81.8Z"/><path id="Path_1996" data-name="Path 1996" class="cls-19" d="M249.59,178.26a.6.6,0,1,1-.6-.6A.6.6,0,0,1,249.59,178.26Z"/><path id="Path_1997" data-name="Path 1997" class="cls-19" d="M292.56,150.53a.6.6,0,1,1-.6-.6.6.6,0,0,1,.6.6Z"/><path id="Path_1998" data-name="Path 1998" class="cls-19" d="M347.94,215.71a.61.61,0,1,1-.61-.6.6.6,0,0,1,.61.6Z"/><circle id="Ellipse_23" data-name="Ellipse 23" class="cls-5" cx="342.2" cy="190.5" r="0.6"/><path id="Path_1999" data-name="Path 1999" class="cls-19" d="M194.81,223.05a.6.6,0,0,1-.6.6.59.59,0,0,1-.6-.6.6.6,0,0,1,.6-.6.6.6,0,0,1,.6.6Z"/><path id="Path_2000" data-name="Path 2000" class="cls-19" d="M339.37,176.34a.81.81,0,1,1-.81-.81.81.81,0,0,1,.81.81Z"/><path id="Path_2001" data-name="Path 2001" class="cls-19" d="M211.4,201.9a.81.81,0,1,1-.81-.81A.8.8,0,0,1,211.4,201.9Z"/></g></g><g id="Group_656" data-name="Group 656"><path id="Path_2002" data-name="Path 2002" class="cls-30" d="M201.77,126.22H179.3a8.63,8.63,0,0,0-8.63,8.63h0v10a8.62,8.62,0,0,0,8.63,8.62H216a.45.45,0,0,0,.46-.46.47.47,0,0,0-.19-.37l-5.85-4.24V134.85A8.64,8.64,0,0,0,201.77,126.22Z"/></g><g id="Group_657" data-name="Group 657"><path id="Path_2003" data-name="Path 2003" class="cls-5" d="M321.08,113.53c-1.66,1.88-3.06,4.2-3,6.71,0,4.26,4.37,7.56,8.63,7.73s8.27-2,11.62-4.65,6.45-5.4,9.86-7.83c3.7-2.64,7-4.51,12.85-3.34a34.15,34.15,0,0,0-4-2.84,29.9,29.9,0,0,0-4.87-2.26,31.21,31.21,0,0,0-11-1.81C333.93,105.36,325.94,108,321.08,113.53Z"/><path id="Path_2004" data-name="Path 2004" class="cls-6" d="M326.24,122.12a20.8,20.8,0,0,1,7.67-10.21c3.55-2.49,9.95-4.91,19.94-4.18"/></g><g id="Group_658" data-name="Group 658"><path id="Path_2005" data-name="Path 2005" class="cls-18" d="M181.92,139.83a1.23,1.23,0,0,1,1.17-1.3h.07a1.23,1.23,0,0,1,1.24,1.2.41.41,0,0,1,0,.11,1.24,1.24,0,1,1-2.47.14A.33.33,0,0,1,181.92,139.83Z"/><path id="Path_2006" data-name="Path 2006" class="cls-18" d="M190,139.83a1.23,1.23,0,0,1,1.17-1.3h.08a1.22,1.22,0,0,1,1.23,1.2v.11a1.23,1.23,0,0,1-1.15,1.31.48.48,0,0,1-.12,0,1.21,1.21,0,0,1-1.21-1.23Z"/><path id="Path_2007" data-name="Path 2007" class="cls-18" d="M198,139.83a1.23,1.23,0,0,1,1.17-1.3h.07a1.23,1.23,0,0,1,1.24,1.2.41.41,0,0,1,0,.11A1.24,1.24,0,0,1,198,140a.38.38,0,0,1,0-.15Z"/></g></g><g id="Group_661" data-name="Group 661"><g id="Group_660" data-name="Group 660"><path id="Path_2008" data-name="Path 2008" class="cls-8" d="M104.88,223.67a5.61,5.61,0,0,1,4.68,1.52c1.42,1.29,2,3.32,3.2,4.82a4,4,0,0,0,2.94,1.55c2.7.09,2.79-3.83,2.21-5.95-.92-3.38-3.1-4.85-5.63-6.79"/><path id="Path_2009" data-name="Path 2009" class="cls-5" d="M89.44,233.52c.23-21.59,23.76-20.93,26.7-11.35a11.08,11.08,0,0,0-10.47,3.45c-1.58,1.69-2.75,3.85-4.37,5.48-2.86,2.88-6.78,3.83-10.53,4.43a3.91,3.91,0,0,1-2,0,1.76,1.76,0,0,1-1.17-1.62"/><path id="Path_2010" data-name="Path 2010" class="cls-8" d="M64.05,215.22a22.32,22.32,0,0,0-7.74,1.12,9.58,9.58,0,0,0-3.12,4,5.59,5.59,0,0,0,1.2,6A6.28,6.28,0,0,0,59,227.72a5,5,0,0,0,2.31-.62c1.76-1.07,2.17-3.44,3.16-5.28a8,8,0,0,1,6.9-4.13"/><path id="Path_2011" data-name="Path 2011" class="cls-9" d="M57.49,223.61c.09-3.18.55-5.67,3.29-7.69a8.65,8.65,0,0,1,5.9-1.65"/><path id="Path_2012" data-name="Path 2012" class="cls-7" d="M56.31,216.34a12.21,12.21,0,0,1,10.8,3.77c1.31,1.37,2.56,3.13,4.41,3.29s4.34.36,4.4-3.66c0-3.05-1.79-3.84-3.41-4.9a11.45,11.45,0,0,0-5.49-1.6c-2.25-.17-7.71,0-10.71,3.1"/><path id="Path_2013" data-name="Path 2013" class="cls-10" d="M67.6,214.07c3,1.46,5.14,4.71,6.25,8.23a38,38,0,0,1,1.32,11.08"/><path id="Path_2014" data-name="Path 2014" class="cls-8" d="M77.61,189.07c-1.83-1.94-4.67-2.34-7.28-2.63a8,8,0,0,0-4.3.31,5.88,5.88,0,0,0-1.9,1.49,7.8,7.8,0,0,0-2.07,4.17,4.86,4.86,0,0,0,1.49,4.29,5.9,5.9,0,0,0,3.65,1.17,6.17,6.17,0,0,0,2.59-.35c2.1-.84,3.17-3.18,4.76-4.81a8.7,8.7,0,0,1,7.1-2.54"/><path id="Path_2015" data-name="Path 2015" class="cls-5" d="M82.34,199.5c-6-1-6-5.53-7.62-8-2.16-3.38-5.14-4.13-8.15-4.92,2-1.66,4.64-2.06,8-1.83,2.46-.59,5.74-1.18,8-.14a8,8,0,0,1,4.65,5.76c.43,2.55,1.09,7.54-4.91,9.17"/><path id="Path_2016" data-name="Path 2016" class="cls-5" d="M77.52,224.06c2.33-4.32,1.6-11.75.39-16.53a27,27,0,0,0-7.45-12.46,20.76,20.76,0,0,0-8.69-5.38A12.13,12.13,0,0,0,51.89,191a9.18,9.18,0,0,0-4.06,9c.82,4.43,4.87,7.68,9,9.12,12,4.15,14.33,15,20.66,15"/><path id="Path_2017" data-name="Path 2017" class="cls-8" d="M101.32,209.78a6.34,6.34,0,0,1,5.5,1.55c1.32,1.23,2.37,2.5,4.27,2.72,2.86.32,6.72-2.49,4.89-5.7a5.15,5.15,0,0,0-2.54-2.13,15.67,15.67,0,0,0-3.22-.88,8,8,0,0,0-3.53-.14"/><path id="Path_2018" data-name="Path 2018" class="cls-6" d="M48.79,197.48c2.77-2,6.58-1.23,9.65.19,6.83,3.15,12.15,9.2,15.48,16.09s4.81,14.58,5.4,22.24"/><path id="Path_2019" data-name="Path 2019" class="cls-5" d="M111.57,205.62c-3.6-.21-6.54,3.29-8.12,6.9A15.87,15.87,0,0,1,96.68,220c-2.83,1.56-6.9,2.77-9.78.76a1.4,1.4,0,0,1-.18-.13,5.39,5.39,0,0,1-1.56-5.11,11.1,11.1,0,0,1,2.52-4.9c5.73-7.07,15.84-8.2,23.89-5"/><path id="Path_2020" data-name="Path 2020" class="cls-6" d="M86.13,239.53A52.74,52.74,0,0,1,87.56,227,44.37,44.37,0,0,1,92,214.16c2.24-3.92,5.61-7.31,9.82-8.77a14.42,14.42,0,0,1,9.72.2"/><path id="Path_2021" data-name="Path 2021" class="cls-6" d="M74.72,184.88c3.47.77,5.33,4.62,6.29,8.13a73.73,73.73,0,0,1,2.17,18.33c.12,7.94-.35,15.87-.83,23.79"/><path id="Path_2022" data-name="Path 2022" class="cls-6" d="M112.34,217.69c-2.86-1.15-6,.06-8.64,1.89A23.87,23.87,0,0,0,94,235.38"/></g><path id="Path_2023" data-name="Path 2023" class="cls-11" d="M65.75,233.5l7.85,34.31H99.22l7.86-34.31Z"/><path id="Path_2024" data-name="Path 2024" class="cls-15" d="M103.6,247.19H69.23L70.34,252l33-3.54Z"/><line id="Line_27" data-name="Line 27" class="cls-13" x1="68.57" y1="247.14" x2="104.36" y2="247.14"/><g id="Path_2025" data-name="Path 2025"><path class="cls-19" d="M105.78,247.36H67.05l0-.18-2.62-14.29,0-.26h44.13l0,.26-2.62,14.29Z"/><path class="cls-16" d="M105.6,247.14l2.62-14.29H64.61l2.62,14.29H105.6m.36.44H66.86l-.06-.36-2.62-14.29-.1-.52h44.66l-.09.52L106,247.22Z"/></g></g><g id="img"><path id="Path_2026" data-name="Path 2026" class="cls-15" d="M167.16,40.23V97.49c0,3.63,3.47,6.56,7.74,6.56h99c4.27,0,7.73-2.93,7.73-6.56V40.23c0-3.62-3.46-6.56-7.73-6.56h-99C170.63,33.67,167.16,36.61,167.16,40.23Z"/><g id="Rectangle_55" data-name="Rectangle 55"><rect class="cls-44" x="172.49" y="37.15" width="103.87" height="63.42"/><rect class="cls-13" x="172.27" y="36.93" width="104.31" height="63.86"/></g><g id="img-2"><g id="Group_672" data-name="Group 672"><g class="cls-45"><g id="Group_669" data-name="Group 669"><g id="Group_662" data-name="Group 662"><path id="Path_2027" data-name="Path 2027" class="cls-46" d="M216.52,107.6c-1.45-12-.56-24.54-.58-36.64,0-15.61,1.14-32.46-2.56-47.71"/><path id="Path_2028" data-name="Path 2028" class="cls-46" d="M239.69,23.25c-2.73,19.11-.08,43.13.48,62.18.26,8.69,0,17.25,1.3,25.89"/><path id="Path_2029" data-name="Path 2029" class="cls-46" d="M263.5,104c-1.05-15.9-2.1-31.81-2.06-47.75q0-10,.62-20c.35-5.83.84-11.71-.06-17.48"/><path id="Path_2030" data-name="Path 2030" class="cls-46" d="M189.49,27.72q-1.34,39.6-2.27,79.21"/><path id="Path_2031" data-name="Path 2031" class="cls-46" d="M165.61,53.28q60.22-.09,120.45.66"/><path id="Path_2032" data-name="Path 2032" class="cls-46" d="M163.55,86.5q10.77-.59,21.57-.24c6.29.21,12.57.66,18.86.84,30.22.9,60.55-4.25,90.59-.91"/><path id="Path_2033" data-name="Path 2033" class="cls-47" d="M167.71,81.81q59.58-.39,119.17-.39"/><path id="Path_2034" data-name="Path 2034" class="cls-47" d="M170.14,48.57q57.24,1.63,114.48-1.39"/><path id="Path_2035" data-name="Path 2035" class="cls-47" d="M184.22,30.57a453.55,453.55,0,0,1-.48,47.51c-.73,10.42-2,21,.1,31.23"/><path id="Path_2036" data-name="Path 2036" class="cls-47" d="M211,34.14q.21,38.05.41,76.13"/><path id="Path_2037" data-name="Path 2037" class="cls-47" d="M233.77,31.69c1.72,25.84-.56,51.78,0,77.67"/><path id="Path_2038" data-name="Path 2038" class="cls-47" d="M256.78,32.06c-.95,3.27-.4,6.76,0,10.15,1.24,12.08-.26,24.29.8,36.38.35,4.08,1,8.13,1.17,12.21.28,6.69-.71,13.53,1,20l.18-.91"/></g><g id="Group_668" data-name="Group 668"><path id="Path_2039" data-name="Path 2039" class="cls-36" d="M219.42,75.92c2.29.61,3.67,1.6,7.07,1.15,2.5-.33,5.15-1.75,5.46-4.43a20.09,20.09,0,0,0-.85-8.4"/><path id="Path_2040" data-name="Path 2040" class="cls-48" d="M214,81.93a64.75,64.75,0,0,0-24-1.24c-12.4,1.94-21.05,12.49-21.05,12.49v10.1h71C234.39,86.84,214,81.93,214,81.93Z"/><g id="Group_667" data-name="Group 667"><g id="Group_665" data-name="Group 665" class="cls-49"><g class="cls-50"><g id="Group_664" data-name="Group 664"><g id="Group_663" data-name="Group 663"><path id="Path_2041" data-name="Path 2041" class="cls-51" d="M198.41,92.15c1.54,2.48,3.3,5,5.91,6.28,1.88.94,4.12,1.2,5.75,2.53,2.12,1.74,2.58,4.75,2.88,7.47"/><path id="Path_2042" data-name="Path 2042" class="cls-51" d="M198.08,88.75a13.55,13.55,0,0,0,4.23,5.71,32,32,0,0,0,6.11,3.77,18.59,18.59,0,0,1,5.44,3.48c2,2.11,2.76,5.05,3.45,7.86"/><path id="Path_2043" data-name="Path 2043" class="cls-51" d="M195.82,83.46a28.12,28.12,0,0,0,7.79,8.1c3.19,2,7.21,3,10.81,1.84,1.36-.42,2.62-1.13,4-1.61a12.73,12.73,0,0,1,10.54,1"/><path id="Path_2044" data-name="Path 2044" class="cls-51" d="M196.83,83.57a37.27,37.27,0,0,0,6.47,5.76,11.14,11.14,0,0,0,12.11,1.43,42.69,42.69,0,0,1,6.83-2.26,8.41,8.41,0,0,1,6.83,1.37"/><path id="Path_2045" data-name="Path 2045" class="cls-51" d="M197.22,78.58a3.58,3.58,0,0,0,.87,2.58,12.17,12.17,0,0,0,10.71,4.67c3.18-.28,6.18-1.7,9.35-2.07a14.52,14.52,0,0,1,10.41,2.89"/><path id="Path_2046" data-name="Path 2046" class="cls-51" d="M226.85,95.29a11.63,11.63,0,0,0-7.35.14,3.64,3.64,0,0,0-2.28,1.77c-.49,1.16.1,2.45.6,3.59,1.3,2.95,2.1,6.28,1.3,9.4"/><path id="Path_2047" data-name="Path 2047" class="cls-51" d="M223.21,109.33a40.51,40.51,0,0,1-1.85-6.17,8.54,8.54,0,0,1-.23-3.06,3.25,3.25,0,0,1,1.66-2.46,2.06,2.06,0,0,1,2.67.75"/></g></g></g></g><path id="Path_2049" data-name="Path 2049" class="cls-35" d="M230.76,56.57c.36,3.08.71,6.15,1.07,9.23.33,2.84.57,6-1.22,8.27-3.33,4.16-10.33,2.25-13.54-1.94"/><path id="Path_2050" data-name="Path 2050" class="cls-52" d="M218.24,72.39l-1.17,13.85s-1.12,3.56-6.9,2.31c-4.41-1-5.77-6.14-5.77-6.14l3.31-12.32Z"/><path id="Path_2051" data-name="Path 2051" class="cls-52" d="M228.63,51.64c2.93,7.82-.21,18.83-6.06,23.07-3.46,2.51-7.31,2.08-10.88,0-4-2.3-7.29-8.36-7.29-16.44C204.4,47.6,222.57,35.49,228.63,51.64Z"/><path id="Path_2052" data-name="Path 2052" class="cls-35" d="M222.75,40.75a18.4,18.4,0,0,0-4.13-1.11c-4.81-.66-9.61,1.28-13.31,4.27a26,26,0,0,0-7.71,10.76,43.3,43.3,0,0,0-2.27,5.82c-.91,3.43-1.19,7.15,1,10.17A8.3,8.3,0,0,0,200,73.72a25.53,25.53,0,0,0,5.86,1.82,2.92,2.92,0,0,0,1.41,0,2.09,2.09,0,0,0,1.22-1.9,6.93,6.93,0,0,0-.44-2.34c-1.48-5-2.15-10.72-.52-15.79a8.57,8.57,0,0,1,2.79-3.65.79.79,0,0,1,.4-.22c.32,0,.54.31.73.58a3.94,3.94,0,0,0,3.83,1.34,9.47,9.47,0,0,0,3.12-1.23.82.82,0,0,1,1.1.32,3,3,0,0,0,2.09,1.43,2.87,2.87,0,0,0,2-.48.84.84,0,0,1,1.14.25l.06.11a1.19,1.19,0,0,0,1.07.7c.34,0,.64-.24,1-.28.68-.08,1.23.56,1.56,1.17a14.44,14.44,0,0,1,1.69,6.52c0-.31.71-1,.88-1.27a9.17,9.17,0,0,0,.78-1.72,11.17,11.17,0,0,0,.57-3.54C232.4,49.62,228.4,42.94,222.75,40.75Z"/><g id="Group_666" data-name="Group 666"><path id="Path_2053" data-name="Path 2053" class="cls-52" d="M208.84,68.14a2.2,2.2,0,0,1-2.85.8c-2.79-1.41-3.67-5.91-1.79-7.8,2.84-2.84,5.08,1.15,5.07,2.35"/><path id="Path_2054" data-name="Path 2054" class="cls-53" d="M206.17,66.76c.55.47,1.65,1,2,.06s-.61-1.07-.77-1.77a2,2,0,0,1,.11-.91,2,2,0,0,0-.15-1.44,1.15,1.15,0,0,0-1.24-.59,1.77,1.77,0,0,0-1,1c-.1.17-.17.43,0,.52"/></g><path id="Path_2055" data-name="Path 2055" class="cls-54" d="M202.88,107c.47-8.69-1.28-19.62-4.43-26.93-11-.23-24,4.17-30.68,13.34v13.3Z"/><path id="Path_2056" data-name="Path 2056" class="cls-54" d="M223.18,106s1.58-15.63-2.71-21.8c11.59,3,20.29,15.39,20.78,20.22S223.18,106,223.18,106Z"/><path id="Path_2057" data-name="Path 2057" class="cls-55" d="M193.65,80.54s-1.3,10.51-.37,11.75,6,4.31,6,4.31-5.57-.6-5.57,1.12,2.79,6.33,2.79,6.33"/><path id="Path_2058" data-name="Path 2058" class="cls-55" d="M223.94,85.92s6.3,8.76,5.8,10.59l-4,1.23s4.21.67,4,1.94a18.52,18.52,0,0,1-2.18,5.56"/><path id="Path_2059" data-name="Path 2059" class="cls-35" d="M226.59,62.54a.75.75,0,1,1-.52-.92A.75.75,0,0,1,226.59,62.54Z"/><path id="Path_2060" data-name="Path 2060" class="cls-35" d="M214.43,59.92a.74.74,0,0,0,.53.91.75.75,0,1,0-.53-.91Z"/><path id="Path_2061" data-name="Path 2061" class="cls-56" d="M215.32,61.82c-1.23-1.57-4.71-.56-5,1.7-.26,2,2.2,3.08,3.73,2.82a2.5,2.5,0,0,0,1.83-1.88A3.13,3.13,0,0,0,215.32,61.82Z"/><path id="Path_2062" data-name="Path 2062" class="cls-56" d="M227.31,64.53a2.42,2.42,0,0,0-4.2,1.42c-.22,1.71,1.85,2.59,3.14,2.38a2.1,2.1,0,0,0,1.53-1.59A2.42,2.42,0,0,0,227.31,64.53Z"/><path id="Path_2063" data-name="Path 2063" class="cls-53" d="M221.47,62.66s.63,4.51-.29,5-2.69-.35-2.69-.35"/><path id="Path_2064" data-name="Path 2064" class="cls-43" d="M217.76,58.07a4,4,0,0,0-5.94-.68"/><path id="Path_2065" data-name="Path 2065" class="cls-43" d="M227.93,60.66s-1.49-2.59-3.89-1.49"/><path id="Path_2066" data-name="Path 2066" class="cls-19" d="M220.85,70.47l-5.77-1.67a.32.32,0,0,0-.39.21c-.28.88-.91,3.51,1.48,4.46,3,1.18,4.47-1.49,4.91-2.52a.36.36,0,0,0-.18-.47Z"/><path id="Path_2067" data-name="Path 2067" class="cls-25" d="M217.89,76.45s-4.66.24-7.58-2.69"/><path id="Path_2068" data-name="Path 2068" class="cls-36" d="M209.05,41.9c-6,1.89-11.57,10.19-13.87,16a22.48,22.48,0,0,0-.84,2.76,13.92,13.92,0,0,0-.36,6.92,9.19,9.19,0,0,0,6.72,6.19"/></g></g></g><path id="Path_2069" data-name="Path 2069" class="cls-53" d="M217.9,76.42a10.2,10.2,0,0,1-7.9-3"/><g id="Group_671" data-name="Group 671"><path id="Path_2070" data-name="Path 2070" class="cls-30" d="M153.13,38.36H139.86a5.27,5.27,0,0,0-5.27,5.27h0v6.09A5.27,5.27,0,0,0,139.86,55h21.95a.28.28,0,0,0,.28-.29.27.27,0,0,0-.11-.22L158.4,51.9V43.63A5.27,5.27,0,0,0,153.13,38.36Z"/><g id="Group_670" data-name="Group 670"><path id="Path_2071" data-name="Path 2071" class="cls-18" d="M139.49,46.68a1.24,1.24,0,0,1,1.17-1.31h.08A1.21,1.21,0,0,1,142,46.56a.49.49,0,0,1,0,.12A1.23,1.23,0,0,1,140.81,48h-.11a1.22,1.22,0,0,1-1.21-1.23Z"/><path id="Path_2072" data-name="Path 2072" class="cls-18" d="M145.73,46.68a1.24,1.24,0,0,1,1.17-1.31H147a1.21,1.21,0,0,1,1.23,1.19v.12a1.24,1.24,0,1,1-2.48.14v-.14Z"/><path id="Path_2073" data-name="Path 2073" class="cls-18" d="M152,46.68a1.25,1.25,0,0,1,1.17-1.31h.08a1.21,1.21,0,0,1,1.23,1.19v.12A1.24,1.24,0,0,1,153.3,48h-.12A1.22,1.22,0,0,1,152,46.76Z"/></g></g></g></g><g id="Group_681" data-name="Group 681"><g id="Rectangle_57" data-name="Rectangle 57"><rect class="cls-15" x="298.07" y="34.09" width="48.66" height="69.96" rx="3.29" ry="3.29"/><rect class="cls-13" x="298.29" y="34.31" width="48.22" height="69.52" rx="3.07" ry="3.07"/></g><rect id="Rectangle_58" data-name="Rectangle 58" class="cls-16" x="300.48" y="37.36" width="43.85" height="63.42"/><g id="Group_679" data-name="Group 679"><g class="cls-57"><g id="Group_678" data-name="Group 678"><g id="Group_677" data-name="Group 677"><g id="Group_673" data-name="Group 673" class="cls-58"><path id="Path_2074" data-name="Path 2074" class="cls-59" d="M297.53,40.11q30-.11,59.9-1.33"/><path id="Path_2075" data-name="Path 2075" class="cls-59" d="M296.84,43.43a107.23,107.23,0,0,0,16.62.42c3.45-.18,6.9-.53,10.35-.63,11.66-.31,23.4,2.27,34.91.43"/><path id="Path_2076" data-name="Path 2076" class="cls-59" d="M352.73,49.22c-19.51,2.13-39.25-.85-58.83.42"/><path id="Path_2077" data-name="Path 2077" class="cls-59" d="M295.51,55.06l64.17.71"/><path id="Path_2078" data-name="Path 2078" class="cls-59" d="M297.53,59.87q30.63,1,61.27-.78"/><path id="Path_2079" data-name="Path 2079" class="cls-59" d="M352.05,65.87l-57.66-.23"/><path id="Path_2080" data-name="Path 2080" class="cls-59" d="M298.21,71.34c5.54,0,11.1.07,16.63-.36,3.84-.3,7.66-.83,11.51-1,10.36-.48,20.87,1.58,31-.43"/><path id="Path_2081" data-name="Path 2081" class="cls-59" d="M295.06,76.15q31.31.18,62.6-.51"/><path id="Path_2082" data-name="Path 2082" class="cls-59" d="M351.6,80.3l-60.12.09"/><path id="Path_2083" data-name="Path 2083" class="cls-59" d="M293.05,84.57q33.21-.43,66.39-2.48"/><path id="Path_2084" data-name="Path 2084" class="cls-59" d="M291.25,89.31,359,88"/></g><path id="Path_2085" data-name="Path 2085" class="cls-60" d="M290.38,107.5s7.48-12.62,15.18-16.92c7.94-4.43,42-9.55,50,3.19s7,18.51,7,18.51Z"/><path id="Path_2086" data-name="Path 2086" class="cls-23" d="M319.06,80.33l.46,9.78s1.75,2.24,6.81,1.48c6.42-1,7.59-4.11,7.59-4.11l-4.41-13.27"/><line id="Line_28" data-name="Line 28" class="cls-36" x1="313.86" y1="63.91" x2="309.76" y2="60.44"/><path id="Path_2087" data-name="Path 2087" class="cls-23" d="M333.29,60.05A15,15,0,0,0,332,57a12.48,12.48,0,0,0-8.79-6.42,7.38,7.38,0,0,0-5.42,1.05c-2.24,1.58-3.4,4.63-4.46,7-1.93,4.43-4.13,9.63-3.87,14.55A8.11,8.11,0,0,0,311.16,78a8.85,8.85,0,0,0,4.2,2.6A13.14,13.14,0,0,0,330,76.22a17.68,17.68,0,0,0,3.64-8.29A18.08,18.08,0,0,0,333.29,60.05Z"/><path id="Path_2088" data-name="Path 2088" class="cls-61" d="M339,71.93c-1.51,2.53-6.84,6.87-9.37,4.68-.55-.47.6-3.13.77-3.66.56-1.75,1.52-3.42.28-5.07-2.7-3.59-5.39-7.57-5.46-12.06a43.67,43.67,0,0,1-5.56.75A7.88,7.88,0,0,1,314.38,55,4.44,4.44,0,0,1,313,50a5.15,5.15,0,0,1,1.59-1.88,1.74,1.74,0,0,1,.67-.39c.9-.26,1.69.65,2.61.83a2.44,2.44,0,0,1,1.39-3.16l.08,0a4.75,4.75,0,0,1,1.84-.05,50.29,50.29,0,0,1,6.21.93,20.17,20.17,0,0,1,10.43,6C342.69,57.79,342.68,65.74,339,71.93Z"/><path id="Path_2089" data-name="Path 2089" class="cls-35" d="M322.73,65.82a.56.56,0,1,0,.77.82.56.56,0,0,0,0-.79A.57.57,0,0,0,322.73,65.82Z"/><path id="Path_2090" data-name="Path 2090" class="cls-35" d="M314,62.69a.55.55,0,0,0,0,.79.56.56,0,0,0,.79,0,.56.56,0,1,0-.77-.82Z"/><path id="Path_2091" data-name="Path 2091" class="cls-42" d="M325.23,70.89c-.17-1.5-2.8-2.23-3.88-.9s.19,2.85,1.28,3.29a1.86,1.86,0,0,0,1.91-.48A2.36,2.36,0,0,0,325.23,70.89Z"/><path id="Path_2092" data-name="Path 2092" class="cls-42" d="M313.7,65.85a1.7,1.7,0,0,0-2-1.39,1.72,1.72,0,0,0-1,.57,1.93,1.93,0,0,0,.34,2.7,2.56,2.56,0,0,0,.35.22,1.64,1.64,0,0,0,1.68-.43A2,2,0,0,0,313.7,65.85Z"/><path id="Path_2093" data-name="Path 2093" class="cls-25" d="M316.86,64.55a10.73,10.73,0,0,0-2.28,5.15,2,2,0,0,0,.21,1.53,1.47,1.47,0,0,0,1.14.5,4.17,4.17,0,0,0,1.26-.22"/><path id="Path_2094" data-name="Path 2094" class="cls-62" d="M315.85,61.76a2.3,2.3,0,0,0-.77-1.64,1,1,0,0,0-1.38,0h0"/><path id="Path_2095" data-name="Path 2095" class="cls-62" d="M322.53,63.11c1.05-.32,3.18-.58,4,1.7"/><g id="Group_675" data-name="Group 675"><g id="Group_674" data-name="Group 674"><path id="Path_2096" data-name="Path 2096" class="cls-36" d="M309.32,61.82a3.92,3.92,0,1,0,4.37-3.4,3.93,3.93,0,0,0-4.37,3.4Z"/><path id="Path_2097" data-name="Path 2097" class="cls-36" d="M320.18,64.55a2,2,0,0,0-2.49-1.38,1.91,1.91,0,0,0-.68.35"/><line id="Line_29" data-name="Line 29" class="cls-36" x1="332.85" y1="71.05" x2="328.82" y2="66.93"/><circle id="Ellipse_24" data-name="Ellipse 24" class="cls-36" cx="324.5" cy="65.66" r="4.51"/></g></g><path id="Path_2098" data-name="Path 2098" class="cls-19" d="M314.48,73.12a10.66,10.66,0,0,0,5.62.6.58.58,0,0,1,.59.2c.68,1.37-.47,3.74-3.51,3.47-2.69-.24-4.49-1.94-3.32-4.19C313.94,73.05,314.25,73,314.48,73.12Z"/><g id="Group_676" data-name="Group 676"><path id="Path_2099" data-name="Path 2099" class="cls-23" d="M330.21,70a2.29,2.29,0,0,1,3,1.21s0,.05,0,.07a2.93,2.93,0,0,1,.11,1.38c-.26,2-1.94,4-3.86,4.25s-3.25-.92-3.07-2.48"/><path id="Path_2100" data-name="Path 2100" class="cls-42" d="M328.16,73.83c.33-.46.92-.43,1.42-.47a.65.65,0,0,0,.55-.27,1,1,0,0,0,.08-.45,2.52,2.52,0,0,1,.21-1.09,1,1,0,0,1,.79-.62c1.51-.08.58,2.6.16,3.28-.68,1.1-3.4,2.4-3.4.19A1,1,0,0,1,328.16,73.83Z"/></g><path id="Path_2101" data-name="Path 2101" class="cls-25" d="M319.12,81.54A15.72,15.72,0,0,0,328.3,78"/><path id="Path_2102" data-name="Path 2102" class="cls-63" d="M317,87.51S316.27,94,324,94c6.65,0,12.82-2.2,12.61-8.09"/><line id="Line_30" data-name="Line 30" class="cls-63" x1="308.91" y1="96.08" x2="306.85" y2="108.6"/><path id="Path_2103" data-name="Path 2103" class="cls-64" d="M331.81,48.15A24.77,24.77,0,0,1,338.89,54a14.84,14.84,0,0,1,3.37,8.65c.16,5-2.82,9.68-6.7,12.59"/><path id="Path_2104" data-name="Path 2104" class="cls-64" d="M314.64,48.9A4.33,4.33,0,0,0,312,52.8a3.49,3.49,0,0,0,.27,1.69c2.09,4.37,9.53,2.63,13,1.33"/></g></g></g></g><g id="Group_680" data-name="Group 680"><path id="Path_2105" data-name="Path 2105" class="cls-30" d="M275,69.35H259.09A6.33,6.33,0,0,1,252.76,63V55.71a6.34,6.34,0,0,1,6.33-6.33h26.34a.34.34,0,0,1,.34.34.32.32,0,0,1-.14.27l-4.3,3.11V63A6.32,6.32,0,0,1,275,69.35Z"/><path id="Path_2106" data-name="Path 2106" class="cls-65" d="M260.65,56.53a3.7,3.7,0,0,1,7-1,3.7,3.7,0,0,1,6.69,3.18,3.93,3.93,0,0,1-.73,1L268.32,65A1,1,0,0,1,267,65l-5.27-5.28A3.69,3.69,0,0,1,260.65,56.53Z"/></g></g><g id="Group_682" data-name="Group 682"><line id="Line_31" data-name="Line 31" class="cls-13" x1="152.92" y1="267.81" x2="393.85" y2="267.81"/><line id="Line_32" data-name="Line 32" class="cls-13" x1="57.46" y1="267.81" x2="123.96" y2="267.81"/><line id="Line_33" data-name="Line 33" class="cls-13" x1="128.44" y1="267.81" x2="139.28" y2="267.81"/></g></g></g></svg>