<svg id="Layer_1" data-name="Layer 1" xmlns="http://www.w3.org/2000/svg" viewBox="0 0 467 308"><defs><style>.cls-1{fill:#fefefe;}.cls-2{fill:#9f041e;}.cls-3{fill:#020000;}.cls-4{fill:#eaeaea;}.cls-5{fill:#010101;}</style></defs><title>logo-senpai</title><path class="cls-1" d="M82.77,97.83H427.11c.5,0,.61.11.61.61q0,55.73,0,111.44c0,.5-.11.61-.61.61H40.17c-.5,0-.61-.11-.61-.61q0-26.6,0-53.2a13.71,13.71,0,0,1,.37,2.7,44.86,44.86,0,0,0,19.32,31.49,33.06,33.06,0,0,0,6,3.35h0c0,.11.09.11.17.12a1.11,1.11,0,0,0,.57.26,2.53,2.53,0,0,0,.22.13,45.59,45.59,0,0,0,15.4,3.83,2.11,2.11,0,0,1,0,.26c-.18,3-.35,6-.53,9-.09,1.4,0,1.58,1.28,2.08l.12,0c1.17.53,1.51.4,2-.79a13.73,13.73,0,0,0,.94-5.23c0-1.78,0-3.57,0-5.36a39.45,39.45,0,0,0,9-1.11A44.41,44.41,0,0,0,115,186.66a53,53,0,0,0,5.27-5.74c.71.72,1.28,1.56,2,2.31a44.25,44.25,0,0,0,16.76,12A43,43,0,0,0,153,198.5a44.13,44.13,0,0,0,10.13-.46,45.54,45.54,0,0,0,12.65-4,43.12,43.12,0,0,0,9.85-6.58,48.1,48.1,0,0,0,6.38-6.85A45.52,45.52,0,0,0,201,155.48a40.86,40.86,0,0,0-.41-8,45.61,45.61,0,0,0-1.9-8.06,44.91,44.91,0,0,0-3.72-8.24,42.43,42.43,0,0,0-5.67-7.76,48,48,0,0,0-5.16-4.82,45.65,45.65,0,0,0-13.1-7.28,43.42,43.42,0,0,0-12.22-2.49,42,42,0,0,0-8.38.27,43,43,0,0,0-6.82,1.42,46.78,46.78,0,0,0-11,4.87,44.05,44.05,0,0,0-6.29,4.68c-1.36,1.23-2.64,2.52-3.88,3.87-.74.81-1.35,1.73-2.14,2.5a1.53,1.53,0,0,1-.18-.18,43.59,43.59,0,0,0-10.3-9.71A44.73,44.73,0,0,0,88.56,109a14.47,14.47,0,0,0-.5-4.25A11.35,11.35,0,0,0,82.77,97.83Zm178.65,52.39c.27.38.44.6.61.83,4.08,5.76,8.17,11.5,12.24,17.27a1,1,0,0,0,1,.48c1.54,0,3.09,0,4.63,0,.5,0,.62-.12.62-.62q0-16.53,0-33.05c0-.46-.1-.6-.58-.59q-3.3,0-6.62,0c-.53,0-.65.14-.64.65q0,8.55,0,17.09v.85l-.48-.66-12.37-17.42a1,1,0,0,0-1-.51c-1.57,0-3.14,0-4.7,0-.4,0-.58,0-.58.53q0,16.59,0,33.18c0,.46.15.55.56.54,2.12,0,4.24,0,6.36,0,.92,0,.92,0,.92-.9ZM386.9,168.8c1.23,0,2.47,0,3.71,0,.51,0,.63-.08.45-.61q-5.64-16.53-11.24-33.06a.72.72,0,0,0-.83-.59q-4.33,0-8.68,0a.76.76,0,0,0-.89.61q-5.6,16.53-11.23,33.06c-.15.42-.18.59.38.59q3.72,0,7.42,0c.48,0,.64-.18.76-.59.43-1.43.91-2.85,1.35-4.28.1-.35.23-.53.66-.52q5.87,0,11.73,0c.41,0,.56.15.67.51.44,1.45.92,2.9,1.36,4.35a.62.62,0,0,0,.73.53C384.47,168.77,385.68,168.8,386.9,168.8Zm-185-17.17c0,5.5,0,11,0,16.5,0,.47.06.68.63.68q10.17,0,20.33,0c.48,0,.59-.14.59-.6,0-2.1,0-4.19,0-6.29,0-.53-.15-.65-.66-.65-4.13,0-8.26,0-12.39,0-.56,0-.69-.15-.68-.7q.06-2.39,0-4.77c0-.54.17-.63.66-.63,3.62,0,7.24,0,10.87,0,.63,0,.73-.2.72-.77q0-3,0-6c0-.55-.08-.73-.69-.73-3.65,0-7.29,0-10.93,0-.48,0-.64-.08-.63-.6q.06-2.22,0-4.44c0-.55.13-.68.68-.68,4.07,0,8.13,0,12.19,0,.49,0,.63-.1.63-.61q-.06-3.13,0-6.29c0-.53-.15-.65-.67-.65q-10,0-20,0c-.53,0-.65.14-.65.66C201.92,140.68,201.91,146.16,201.91,151.63Zm107.34,0c0,5.48,0,11,0,16.43,0,.61.18.72.74.71q3.24,0,6.49,0c.48,0,.63-.1.62-.61,0-3.14,0-6.27,0-9.41,0-.63.2-.76.78-.74,1.34,0,2.69,0,4,0a12.49,12.49,0,0,0,5.82-1.27,11.58,11.58,0,0,0,5.43-15.36c-2.18-4.63-6.05-6.84-11.15-6.86-4,0-8,0-12.06,0-.56,0-.68.16-.67.69C309.26,140.72,309.25,146.2,309.25,151.67Zm115.16,0c0-5.48,0-11,0-16.43,0-.54-.07-.75-.7-.74-2.16.05-4.33,0-6.49,0-.5,0-.66.11-.66.64q0,16.5,0,33c0,.55.18.64.67.64,2.16,0,4.33,0,6.49,0,.54,0,.69-.12.69-.68C424.4,162.65,424.41,157.18,424.41,151.71Z"/><path class="cls-2" d="M88.56,109a44.73,44.73,0,0,1,21.21,7.61,43.59,43.59,0,0,1,10.3,9.71,1.53,1.53,0,0,0,.18.18c.1.14.19.29.3.43a45,45,0,0,1,5.26,44.42,48,48,0,0,1-5.54,9.6,53,53,0,0,1-5.27,5.74,44.41,44.41,0,0,1-20.51,10.81,39.45,39.45,0,0,1-9,1.11c0-1.76,0-3.53,0-5.3,0-.47.19-.57.63-.58q4.45-.12,8.93-.28c1.67-.06,3.35-.12,5-.26a7,7,0,0,0,3.07-.68,1.1,1.1,0,0,0,.65-1.12,1,1,0,0,0-1-.94,8.18,8.18,0,0,0-1.31-.12l-11,0-4.17,0c-.31,0-.72.07-.72-.45s-.08-.92.63-1a18.54,18.54,0,0,0,2.2-.42,7.82,7.82,0,0,1,3.66-.23c1.84.44,2,.39,3-1.18l.18-.28c1.89-3.2,3.38-6.59,5-9.92a3.58,3.58,0,0,0,.36-1.4,1.33,1.33,0,0,0-1.65-1.52c-2,.29-3.91.66-5.83,1.13-2.48.62-5,1.21-7.4,2-.53.17-.8.15-.78-.54a9.41,9.41,0,0,0-.2-1.83c-.06-.37,0-.55.38-.62l2.13-.48c3.46-.76,6.94-1.4,10.47-1.84,1.18-.14,2.36-.29,3.53-.5.69-.12,1-.54.93-1.07a1.11,1.11,0,0,0-1.29-.87c-1.22.12-2.44.31-3.67.42-1.84.17-3.67.53-5.52.61-.42,0-.56-.12-.5-.53a12.6,12.6,0,0,0,.22-2c0-.66.29-.91.85-1.11l9.42-3.51a19.2,19.2,0,0,0,4-1.79.86.86,0,0,0,.43-1.13c-.25-.5-.72-.4-1.16-.26q-4.68,1.53-9.37,3c-.68.22-1.39.38-2.18.59a3,3,0,0,1,1-1.19c.75-.69,1.51-1.37,2.25-2.06a1.3,1.3,0,0,0,.44-1.59,1.35,1.35,0,0,0-1.53-.77c-.33,0-.66.22-1,.08a1.13,1.13,0,0,1,.5-.55c.92-.69,1.84-1.36,2.76-2.06a13.09,13.09,0,0,0,1.66-1.31,1.39,1.39,0,0,0,.32-1.64,1.42,1.42,0,0,0-1.35-.88,4.82,4.82,0,0,0-.93,0c-2.4.28-4.79.71-7.16,1.22a.86.86,0,0,1-1-.35,5.69,5.69,0,0,0-2.87-1.92c-.58-.19-1.16-.28-1.58.25a1.3,1.3,0,0,0,.09,1.66,18.66,18.66,0,0,1,2.62,6.78,1.72,1.72,0,0,1-.23,1.38,1,1,0,0,0,.12,1.45,3.18,3.18,0,0,1,1,2.12,1.29,1.29,0,0,1-.24,1.27,1,1,0,0,0,.24,1.64,1.49,1.49,0,0,1,.63,1.16c.08.54.15,1.09.26,1.63s0,.72-.58.77c-1,.09-2,.24-3,.37s-1,.13-1-.94a5.88,5.88,0,0,1,.3-1.82,4.84,4.84,0,0,0,.25-2,2.7,2.7,0,0,0-1.7-2.47,2.44,2.44,0,0,0-2.83.7,3.5,3.5,0,0,0-.84,3.08,17.11,17.11,0,0,0,1,3.22c.19.48.12.67-.4.75l-7.12,1c-.94.14-1.88.26-2.81.42-.33.05-.76.06-.8.54s.37.52.69.65a2.43,2.43,0,0,0,.85.12,46.49,46.49,0,0,0,4.87-.34,16.43,16.43,0,0,1,3-.17,2.69,2.69,0,0,1-1,.59c-2.73,1.09-5.46,2.15-8.18,3.26a25.82,25.82,0,0,0-5.16,2.35c-1,.71-1.09,1.6-.13,2.38q2.07,1.71,4.17,3.37c.95.76,1.46.73,2.39-.06a13.3,13.3,0,0,1,2.16-1.63c1.77-1,3.62-1.84,5.43-2.75.36-.18.66-.25.85.24a1,1,0,0,0,.69.57c.53.12.46.34.22.72a1.57,1.57,0,0,0,.4,2.51,7.28,7.28,0,0,0,.92.65c.67.41.27,1,.35,1.57s-.34.41-.59.49c-2.13.64-4.26,1.3-6.41,1.86-.73.2-1.27.74-2,.85a37,37,0,0,0-5,1,3.89,3.89,0,0,0-3.07,3.34,33.06,33.06,0,0,1-6-3.35,44.86,44.86,0,0,1-19.32-31.49,13.71,13.71,0,0,0-.37-2.7v-6c.2-.09.13-.27.14-.41a43.34,43.34,0,0,1,1.47-8.45A44.89,44.89,0,0,1,71.3,110.77a31.64,31.64,0,0,1,6.24-1.39,25.18,25.18,0,0,1-1.91,3.09,7.61,7.61,0,0,0-1.34,4.36,2.81,2.81,0,0,0,3.73,2.4,23.22,23.22,0,0,0,4.16-2.46c.16-.11.29-.36.58-.17a3.92,3.92,0,0,1-.16.36,20.42,20.42,0,0,1-5.37,6,104.58,104.58,0,0,1-9.45,5.86c-.32.19-.65.37-1,.57a.35.35,0,0,0-.19.44c.07.21.28.21.45.17a5,5,0,0,0,.74-.26,78.92,78.92,0,0,0,8.06-3.52,43.17,43.17,0,0,0,4.56-3.17,20.38,20.38,0,0,0,6.44-7.68,1.58,1.58,0,0,1,1.67-1c.93,0,1.83.3,2.74.44a10.91,10.91,0,0,0,3.06.36c.33,0,.67-.13.76-.53a.81.81,0,0,0-.43-.89c-.93-.56-1.85-1.13-2.8-1.63a7.31,7.31,0,0,0-3-.67c-.49,0-.67-.2-.59-.69S88.49,109.58,88.56,109ZM72.31,170.46a2.21,2.21,0,0,0,.79-.48,56.69,56.69,0,0,0,7.19-7A5.41,5.41,0,0,0,81.51,161a7.09,7.09,0,0,0-4.19-8.73c-2.42-1-4.95-1-7.48-1.06a1.21,1.21,0,0,0-1.16.76,1.38,1.38,0,0,0,.21,1.43,2.74,2.74,0,0,0,1.39,1l1.06.35a4,4,0,0,1-1.2.47,37.18,37.18,0,0,0-3.72,1.15c-.72.32-1,.88-.93,1.36a1.47,1.47,0,0,0,1.47.91l.26,0,2-.31,4.12-.65.14.19L72,159.16a.88.88,0,0,0-.32,1c.17.42.53.48.93.48.18,0,.38-.08.56,0-.1.24-.32.32-.5.44l-8.55,6a1.3,1.3,0,0,0-.59,1.7c.33.58.94.7,1.75.31l8.8-4.3a4,4,0,0,0,1.71-1.49c-1.77-.25-3.12,1-4.83,1.12a17.9,17.9,0,0,1,2.75-2.24,4.65,4.65,0,0,0,1.25-1.17,1,1,0,0,0-.36-1.55c-.21-.13-.5-.14-.65-.43.69-.51,1.36-1,2-1.51s1-.53,1.28.41a7.57,7.57,0,0,1-.16,5.67,18,18,0,0,1-2.45,3.6,18.76,18.76,0,0,0-2.37,3.16s-.1.06,0,.12Zm5.12-29.62a24.45,24.45,0,0,1,1.49-7,21.35,21.35,0,0,1,8.74-10.47c.4-.25.6-.27.71.27a11.23,11.23,0,0,0,.53,1.77c.26.71.81.84,1.4.36a2.11,2.11,0,0,0,.83-1.59,2.29,2.29,0,0,1,.14-.78,5.66,5.66,0,0,1,4.82-3.7c.66-.06,1.32-.14,2-.25a.82.82,0,0,0,.75-.72,1,1,0,0,0-.53-1,2.84,2.84,0,0,0-1-.39,10.09,10.09,0,0,0-3.87.17,24.2,24.2,0,0,0-5.44,2.19,23.75,23.75,0,0,0-11.27,12.08A24.73,24.73,0,0,0,75,138.2c-.12.77-.16.8-.71.45a17.4,17.4,0,0,0-11-2.63,6.27,6.27,0,0,0-3.69,1.26,1,1,0,0,0-.41,1.17,1.08,1.08,0,0,0,1,.83,5.38,5.38,0,0,0,1.39,0,15,15,0,0,1,5.78.07c3.12.67,5.85,2,7.56,4.85.65,1.1,1.16,2.28,1.74,3.42.25.49.57.93,1.21.82a1.29,1.29,0,0,0,1-1.31,7.21,7.21,0,0,0-.78-3.84A4.43,4.43,0,0,1,77.43,140.84Zm26.64,1.78h.6a2.14,2.14,0,0,0,1.79-1.46,1.77,1.77,0,0,0-.95-2c-.36-.22-.72-.42-1.1-.62a25.27,25.27,0,0,1-7.42-6c-1.13-1.3-2.23-2.62-3.34-3.93-.35-.41-.81-.67-1.27-.32s-.21.84,0,1.24c1.48,2.58,2.92,5.18,4.29,7.83.37.73.37.77-.45.85-1.25.13-2.49.28-3.73.49-1.85.32-3.62.95-5.42,1.44-.49.13-.54,0-.39-.42a17.18,17.18,0,0,0,1-5,11.83,11.83,0,0,0-.81-5.3,2,2,0,0,0-3.73.2A8.37,8.37,0,0,0,83,133a48.37,48.37,0,0,1,0,6.81c-.1,1.16-.23,2.32-.34,3.48a.67.67,0,0,0,.33.74.75.75,0,0,0,.81-.12,5.77,5.77,0,0,0,.63-.58,6.12,6.12,0,0,1,2.43-1.68,27,27,0,0,1,9.55-2.13,3.81,3.81,0,0,1,3.23,1.11,5.94,5.94,0,0,0,1,.8A5.53,5.53,0,0,0,104.07,142.62Z"/><path class="cls-1" d="M77.54,109.38a31.64,31.64,0,0,0-6.24,1.39,44.89,44.89,0,0,0-30.12,31.08,43.34,43.34,0,0,0-1.47,8.45c0,.14.06.32-.14.41q0-26.16,0-52.31c0-.47.08-.58.57-.58q20.92,0,41.85,0a1.61,1.61,0,0,0-.45,2.34,18.57,18.57,0,0,0,1.22,1.94,11.92,11.92,0,0,1,2,6.66l-3.21.08a7.89,7.89,0,0,0,.09-.85,8.26,8.26,0,0,0-2.65-6,4.83,4.83,0,0,0-2.16-1.47,1.64,1.64,0,0,0-2.15,1.19,1.72,1.72,0,0,0,.43,1.47c.82,1.12,1.64,2.24,2.36,3.43A2.54,2.54,0,0,1,77.54,109.38Z"/><path class="cls-3" d="M84.7,108.77a11.92,11.92,0,0,0-2-6.66,18.57,18.57,0,0,1-1.22-1.94A1.61,1.61,0,0,1,82,97.83h.79a11.35,11.35,0,0,1,5.29,6.89,14.47,14.47,0,0,1,.5,4.25c-.07.61-.13,1.22-.23,1.83s.1.66.59.69a7.31,7.31,0,0,1,3,.67c.95.5,1.87,1.07,2.8,1.63a.81.81,0,0,1,.43.89c-.09.4-.43.49-.76.53a10.91,10.91,0,0,1-3.06-.36c-.91-.14-1.81-.39-2.74-.44a1.58,1.58,0,0,0-1.67,1,20.38,20.38,0,0,1-6.44,7.68,43.17,43.17,0,0,1-4.56,3.17,78.92,78.92,0,0,1-8.06,3.52,5,5,0,0,1-.74.26c-.17,0-.38,0-.45-.17a.35.35,0,0,1,.19-.44c.32-.2.65-.38,1-.57A104.58,104.58,0,0,0,77.23,123a20.42,20.42,0,0,0,5.37-6,3.92,3.92,0,0,0,.16-.36c-.29-.19-.42.06-.58.17A23.22,23.22,0,0,1,78,119.23a2.81,2.81,0,0,1-3.73-2.4,7.61,7.61,0,0,1,1.34-4.36,25.18,25.18,0,0,0,1.91-3.09,2.54,2.54,0,0,0-.13-2.75c-.72-1.19-1.54-2.31-2.36-3.43a1.72,1.72,0,0,1-.43-1.47,1.64,1.64,0,0,1,2.15-1.19A4.83,4.83,0,0,1,78.93,102a8.26,8.26,0,0,1,2.65,6,7.89,7.89,0,0,1-.09.85,6.11,6.11,0,0,1-2.31,3.44,9.49,9.49,0,0,0-1.34,1.27,4.67,4.67,0,0,0-1.14,2.56c-.07.61.19.79.73.57a5.91,5.91,0,0,0,1.41-.84,22.31,22.31,0,0,1,4.94-3.16,1.14,1.14,0,0,0,.71-.9A12.23,12.23,0,0,0,84.7,108.77Z"/><path class="cls-4" d="M120.27,180.92a48,48,0,0,0,5.54-9.6,44.95,44.95,0,0,0-5.26-44.42c-.11-.14-.2-.29-.3-.43.79-.77,1.4-1.69,2.14-2.5,1.24-1.35,2.52-2.64,3.88-3.87a44.05,44.05,0,0,1,6.29-4.68,46.78,46.78,0,0,1,11-4.87,43,43,0,0,1,6.82-1.42,42,42,0,0,1,8.38-.27A43.42,43.42,0,0,1,171,111.35a45.65,45.65,0,0,1,13.1,7.28,48,48,0,0,1,5.16,4.82,42.43,42.43,0,0,1,5.67,7.76,44.91,44.91,0,0,1,3.72,8.24,45.61,45.61,0,0,1,1.9,8.06,40.86,40.86,0,0,1,.41,8,45.52,45.52,0,0,1-8.91,25.11,48.1,48.1,0,0,1-6.38,6.85,43.12,43.12,0,0,1-9.85,6.58,45.54,45.54,0,0,1-12.65,4,44.13,44.13,0,0,1-10.13.46A43,43,0,0,1,139,195.25a44.25,44.25,0,0,1-16.76-12C121.55,182.48,121,181.64,120.27,180.92Zm42-11.42a20,20,0,0,0,3.08-.24,13.16,13.16,0,0,0,6.18-2.65,9.19,9.19,0,0,0,3.43-7.81,8.82,8.82,0,0,0-5.24-8.29,33.07,33.07,0,0,0-4.16-1.66,35.44,35.44,0,0,1-5.77-2.08c-.19-.11-.39-.21-.57-.33a2.65,2.65,0,0,1-1.35-2.68,2.48,2.48,0,0,1,2.17-2c3-.6,5.52.28,7,3.19.23.44.39.54.86.26q2.74-1.66,5.54-3.22c.46-.26.45-.47.23-.89a13.64,13.64,0,0,0-17.43-6.12c-6,2.61-7.36,8.27-5.6,13.2.87,2.42,2.83,3.82,5,5a38.7,38.7,0,0,0,6.55,2.26,14.75,14.75,0,0,1,3.59,1.47,2.56,2.56,0,0,1,1.27,2.75,2.42,2.42,0,0,1-2,2c-3.64.91-7.68.07-9.54-4-.18-.39-.34-.39-.69-.19q-2.92,1.73-5.88,3.41c-.3.18-.39.32-.25.67a12.35,12.35,0,0,0,4.15,5.3A15.83,15.83,0,0,0,162.22,169.5Z"/><path class="cls-3" d="M65.24,194.21a3.89,3.89,0,0,1,3.07-3.34,37,37,0,0,1,5-1c.78-.11,1.32-.65,2-.85,2.15-.56,4.28-1.22,6.41-1.86.25-.08.65-.08.59-.49s.32-1.16-.35-1.57a7.28,7.28,0,0,1-.92-.65,1.57,1.57,0,0,1-.4-2.51c.24-.38.31-.6-.22-.72a1,1,0,0,1-.69-.57c-.19-.49-.49-.42-.85-.24-1.81.91-3.66,1.76-5.43,2.75a13.3,13.3,0,0,0-2.16,1.63c-.93.79-1.44.82-2.39.06q-2.1-1.67-4.17-3.37c-1-.78-.9-1.67.13-2.38a25.82,25.82,0,0,1,5.16-2.35c2.72-1.11,5.45-2.17,8.18-3.26a2.69,2.69,0,0,0,1-.59,16.43,16.43,0,0,0-3,.17,46.49,46.49,0,0,1-4.87.34,2.43,2.43,0,0,1-.85-.12c-.32-.13-.74-.17-.69-.65s.47-.49.8-.54c.93-.16,1.87-.28,2.81-.42l7.12-1c.52-.08.59-.27.4-.75a17.11,17.11,0,0,1-1-3.22,3.5,3.5,0,0,1,.84-3.08,2.44,2.44,0,0,1,2.83-.7,2.7,2.7,0,0,1,1.7,2.47,4.84,4.84,0,0,1-.25,2,5.88,5.88,0,0,0-.3,1.82c0,1.07,0,1.08,1,.94s2-.28,3-.37c.53,0,.68-.27.58-.77s-.18-1.09-.26-1.63a1.49,1.49,0,0,0-.63-1.16,1,1,0,0,1-.24-1.64,1.29,1.29,0,0,0,.24-1.27,3.18,3.18,0,0,0-1-2.12,1,1,0,0,1-.12-1.45,1.72,1.72,0,0,0,.23-1.38,18.66,18.66,0,0,0-2.62-6.78,1.3,1.3,0,0,1-.09-1.66c.42-.53,1-.44,1.58-.25a5.69,5.69,0,0,1,2.87,1.92.86.86,0,0,0,1,.35c2.37-.51,4.76-.94,7.16-1.22a4.82,4.82,0,0,1,.93,0,1.42,1.42,0,0,1,1.35.88,1.39,1.39,0,0,1-.32,1.64,13.09,13.09,0,0,1-1.66,1.31c-.92.7-1.84,1.37-2.76,2.06a1.13,1.13,0,0,0-.5.55c.36.14.69-.06,1-.08a1.35,1.35,0,0,1,1.53.77,1.3,1.3,0,0,1-.44,1.59c-.74.69-1.5,1.37-2.25,2.06a3,3,0,0,0-1,1.19c.79-.21,1.5-.37,2.18-.59q4.69-1.5,9.37-3c.44-.14.91-.24,1.16.26a.86.86,0,0,1-.43,1.13,19.2,19.2,0,0,1-4,1.79l-9.42,3.51c-.56.2-.87.45-.85,1.11a12.6,12.6,0,0,1-.22,2c-.06.41.08.54.5.53,1.85-.08,3.68-.44,5.52-.61,1.23-.11,2.45-.3,3.67-.42a1.11,1.11,0,0,1,1.29.87c.07.53-.24.95-.93,1.07-1.17.21-2.35.36-3.53.5-3.53.44-7,1.08-10.47,1.84l-2.13.48c-.34.07-.44.25-.38.62a9.41,9.41,0,0,1,.2,1.83c0,.69.25.71.78.54,2.43-.8,4.92-1.39,7.4-2,1.92-.47,3.87-.84,5.83-1.13a1.33,1.33,0,0,1,1.65,1.52,3.58,3.58,0,0,1-.36,1.4c-1.63,3.33-3.12,6.72-5,9.92L95,186c-1,1.57-1.12,1.62-3,1.18a7.82,7.82,0,0,0-3.66.23,18.54,18.54,0,0,1-2.2.42c-.71.07-.63.53-.63,1s.41.44.72.45l4.17,0,11,0a8.18,8.18,0,0,1,1.31.12,1,1,0,0,1,1,.94,1.1,1.1,0,0,1-.65,1.12,7,7,0,0,1-3.07.68c-1.67.14-3.35.2-5,.26q-4.47.17-8.93.28c-.44,0-.64.11-.63.58,0,1.77,0,3.54,0,5.3s0,3.58,0,5.36a13.73,13.73,0,0,1-.94,5.23c-.49,1.19-.83,1.32-2,.79l-.12,0c-1.26-.5-1.37-.68-1.28-2.08.18-3,.35-6,.53-9a2.11,2.11,0,0,0,0-.26c.12-1.58.27-3.16.36-4.74.07-1.14,0-1.14-1.12-1.07-2.83.17-5.67.37-8.51.49a14.08,14.08,0,0,0-5,1.05,3.25,3.25,0,0,1-1.34.31,1.11,1.11,0,0,1-.57-.26c0-.08-.07-.15-.17-.12ZM97.6,175a42.39,42.39,0,0,0-8.31,1.72c-.45.14-.16.29,0,.44,1,1.19.89,1.91-.4,2.76s-2.36,1.56-3.57,2.29c-.46.27-.5.53-.23.94a3.35,3.35,0,0,1,.64,2c0,.89-.17.87.79.65a16.25,16.25,0,0,1,6.12-.69c.33.05.41-.21.52-.42.54-.93,1.08-1.87,1.6-2.81a50.84,50.84,0,0,0,3.16-6.25C98.06,175.2,98.13,174.86,97.6,175Zm-15.51,1.66c0-.48-.08-1-.14-1.4-.13-1.14-.14-1.15-1.25-.82a76.9,76.9,0,0,0-8.79,3.43,36.82,36.82,0,0,0-4.08,2c-.51.31-.49.5,0,.83a22.66,22.66,0,0,1,1.79,1.45.75.75,0,0,0,1.06.07,26.68,26.68,0,0,1,2.76-1.55,77.38,77.38,0,0,1,8.12-3.34C81.87,177.17,82.23,177.08,82.09,176.61ZM93.5,154.29a10.23,10.23,0,0,0-2.23.33c-.19,0-.34.14-.26.36a3.59,3.59,0,0,0,.38,1.1.55.55,0,0,0,.22-.09A8.74,8.74,0,0,0,93.5,154.29ZM81.39,189.06l0,.18c.27,0,.59.17.85-.37Z"/><path class="cls-5" d="M261.42,150.22V167.9c0,.9,0,.9-.92.9-2.12,0-4.24,0-6.36,0-.41,0-.56-.08-.56-.54q0-16.59,0-33.18c0-.48.18-.53.58-.53,1.56,0,3.13,0,4.7,0a1,1,0,0,1,1,.51l12.37,17.42.48.66v-.85q0-8.53,0-17.09c0-.51.11-.66.64-.65q3.31,0,6.62,0c.48,0,.58.13.58.59q0,16.52,0,33.05c0,.5-.12.63-.62.62-1.54,0-3.09,0-4.63,0a1,1,0,0,1-1-.48c-4.07-5.77-8.16-11.51-12.24-17.27C261.86,150.82,261.69,150.6,261.42,150.22Z"/><path class="cls-5" d="M386.9,168.8c-1.22,0-2.43,0-3.65,0a.62.62,0,0,1-.73-.53c-.44-1.45-.92-2.9-1.36-4.35-.11-.36-.26-.52-.67-.51q-5.87,0-11.73,0c-.43,0-.56.17-.66.52-.44,1.43-.92,2.85-1.35,4.28-.12.41-.28.6-.76.59q-3.71,0-7.42,0c-.56,0-.53-.17-.38-.59q5.63-16.53,11.23-33.06a.76.76,0,0,1,.89-.61q4.35,0,8.68,0a.72.72,0,0,1,.83.59q5.6,16.53,11.24,33.06c.18.53.06.62-.45.61C389.37,168.77,388.13,168.8,386.9,168.8Zm-12.26-25.22c-.46,1.19-3.87,12-3.95,12.54h7.55c.43,0,.34-.22.26-.46C377.22,151.66,376,147.66,374.64,143.58Z"/><path class="cls-5" d="M201.91,151.63c0-5.47,0-10.95,0-16.42,0-.52.12-.66.65-.66q10,0,20,0c.52,0,.67.12.67.65q-.06,3.15,0,6.29c0,.51-.14.62-.63.61-4.06,0-8.12,0-12.19,0-.55,0-.7.13-.68.68q.06,2.22,0,4.44c0,.52.15.6.63.6,3.64,0,7.28,0,10.93,0,.61,0,.7.18.69.73q0,3,0,6c0,.57-.09.78-.72.77-3.63,0-7.25,0-10.87,0-.49,0-.67.09-.66.63q.06,2.38,0,4.77c0,.55.12.7.68.7,4.13,0,8.26,0,12.39,0,.51,0,.67.12.66.65,0,2.1,0,4.19,0,6.29,0,.46-.11.6-.59.6q-10.17,0-20.33,0c-.57,0-.63-.21-.63-.68C201.92,162.63,201.91,157.13,201.91,151.63Z"/><path class="cls-5" d="M309.25,151.67c0-5.47,0-10.95,0-16.43,0-.53.11-.7.67-.69,4,0,8,0,12.06,0,5.1,0,9,2.23,11.15,6.86a11.58,11.58,0,0,1-5.43,15.36,12.49,12.49,0,0,1-5.82,1.27c-1.35,0-2.7,0-4,0-.58,0-.78.11-.78.74,0,3.14,0,6.27,0,9.41,0,.51-.14.61-.62.61q-3.25,0-6.49,0c-.56,0-.74-.1-.74-.71C309.26,162.62,309.25,157.15,309.25,151.67Zm7.82-5.39c0,1.3,0,2.6,0,3.9,0,.45.14.54.56.54,1.45,0,2.91,0,4.36,0a4,4,0,0,0,4.27-3.42,4.24,4.24,0,0,0-4.11-5.35c-1.52,0-3,0-4.57,0-.4,0-.52.1-.51.51C317.09,143.72,317.07,145,317.07,146.28Z"/><path class="cls-5" d="M424.41,151.71c0,5.47,0,10.94,0,16.42,0,.56-.15.69-.69.68-2.16,0-4.33,0-6.49,0-.49,0-.67-.09-.67-.64q0-16.48,0-33c0-.53.16-.65.66-.64,2.16,0,4.33,0,6.49,0,.63,0,.7.2.7.74C424.4,140.76,424.41,146.23,424.41,151.71Z"/><path class="cls-2" d="M66,194.58a3.25,3.25,0,0,0,1.34-.31,14.08,14.08,0,0,1,5-1.05c2.84-.12,5.68-.32,8.51-.49,1.16-.07,1.19-.07,1.12,1.07-.09,1.58-.24,3.16-.36,4.74a45.59,45.59,0,0,1-15.4-3.83A2.53,2.53,0,0,1,66,194.58Z"/><path class="cls-2" d="M65.25,194.2c.1,0,.14,0,.17.12S65.26,194.31,65.25,194.2Z"/><path class="cls-3" d="M77.43,140.84a4.43,4.43,0,0,0,.58,2.42,7.21,7.21,0,0,1,.78,3.84,1.29,1.29,0,0,1-1,1.31c-.64.11-1-.33-1.21-.82-.58-1.14-1.09-2.32-1.74-3.42-1.71-2.85-4.44-4.18-7.56-4.85a15,15,0,0,0-5.78-.07,5.38,5.38,0,0,1-1.39,0,1.08,1.08,0,0,1-1-.83,1,1,0,0,1,.41-1.17A6.27,6.27,0,0,1,63.2,136a17.4,17.4,0,0,1,11,2.63c.55.35.59.32.71-.45a24.73,24.73,0,0,1,1.7-6.43,23.75,23.75,0,0,1,11.27-12.08,24.2,24.2,0,0,1,5.44-2.19,10.09,10.09,0,0,1,3.87-.17,2.84,2.84,0,0,1,1,.39,1,1,0,0,1,.53,1,.82.82,0,0,1-.75.72c-.65.11-1.31.19-2,.25a5.66,5.66,0,0,0-4.82,3.7,2.29,2.29,0,0,0-.14.78,2.11,2.11,0,0,1-.83,1.59c-.59.48-1.14.35-1.4-.36a11.23,11.23,0,0,1-.53-1.77c-.11-.54-.31-.52-.71-.27a21.35,21.35,0,0,0-8.74,10.47A24.45,24.45,0,0,0,77.43,140.84Z"/><path class="cls-3" d="M72.27,170.42a18.76,18.76,0,0,1,2.37-3.16,18,18,0,0,0,2.45-3.6,7.57,7.57,0,0,0,.16-5.67c-.29-.94-.5-1-1.28-.41s-1.35,1-2,1.51c.15.29.44.3.65.43a1,1,0,0,1,.36,1.55,4.65,4.65,0,0,1-1.25,1.17,17.9,17.9,0,0,0-2.75,2.24c1.71-.14,3.06-1.37,4.83-1.12a4,4,0,0,1-1.71,1.49l-8.8,4.3c-.81.39-1.42.27-1.75-.31a1.3,1.3,0,0,1,.59-1.7l8.55-6c.18-.12.4-.2.5-.44-.18-.12-.38,0-.56,0-.4,0-.76-.06-.93-.48a.88.88,0,0,1,.32-1l1.46-1.31-.14-.19-4.12.65-2,.31-.26,0a1.47,1.47,0,0,1-1.47-.91c-.12-.48.21-1,.93-1.36a37.18,37.18,0,0,1,3.72-1.15,4,4,0,0,0,1.2-.47l-1.06-.35a2.74,2.74,0,0,1-1.39-1,1.38,1.38,0,0,1-.21-1.43,1.21,1.21,0,0,1,1.16-.76c2.53.11,5.06,0,7.48,1.06A7.09,7.09,0,0,1,81.51,161,5.41,5.41,0,0,1,80.29,163a56.69,56.69,0,0,1-7.19,7,2.21,2.21,0,0,1-.79.48Z"/><path class="cls-3" d="M104.07,142.62a5.53,5.53,0,0,1-3.43-1.18,5.94,5.94,0,0,1-1-.8,3.81,3.81,0,0,0-3.23-1.11,27,27,0,0,0-9.55,2.13,6.12,6.12,0,0,0-2.43,1.68,5.77,5.77,0,0,1-.63.58.75.75,0,0,1-.81.12.67.67,0,0,1-.33-.74c.11-1.16.24-2.32.34-3.48A48.37,48.37,0,0,0,83,133a8.37,8.37,0,0,1,.22-3.34,2,2,0,0,1,3.73-.2,11.83,11.83,0,0,1,.81,5.3,17.18,17.18,0,0,1-1,5c-.15.44-.1.55.39.42,1.8-.49,3.57-1.12,5.42-1.44,1.24-.21,2.48-.36,3.73-.49.82-.08.82-.12.45-.85-1.37-2.65-2.81-5.25-4.29-7.83-.23-.4-.5-.89,0-1.24s.92-.09,1.27.32c1.11,1.31,2.21,2.63,3.34,3.93a25.27,25.27,0,0,0,7.42,6c.38.2.74.4,1.1.62a1.77,1.77,0,0,1,.95,2,2.14,2.14,0,0,1-1.79,1.46Z"/><path class="cls-3" d="M72.31,170.46l-.07.08c-.07-.06,0-.09,0-.12Z"/><path class="cls-2" d="M84.7,108.77a12.23,12.23,0,0,1-.21,3,1.14,1.14,0,0,1-.71.9,22.31,22.31,0,0,0-4.94,3.16,5.91,5.91,0,0,1-1.41.84c-.54.22-.8,0-.73-.57a4.67,4.67,0,0,1,1.14-2.56,9.49,9.49,0,0,1,1.34-1.27,6.11,6.11,0,0,0,2.31-3.44Z"/><path class="cls-5" d="M162.22,169.5a15.83,15.83,0,0,1-9.38-2.74,12.35,12.35,0,0,1-4.15-5.3c-.14-.35-.05-.49.25-.67q3-1.68,5.88-3.41c.35-.2.51-.2.69.19,1.86,4,5.9,4.88,9.54,4a2.42,2.42,0,0,0,2-2,2.56,2.56,0,0,0-1.27-2.75,14.75,14.75,0,0,0-3.59-1.47,38.7,38.7,0,0,1-6.55-2.26c-2.17-1.13-4.13-2.53-5-5-1.76-4.93-.37-10.59,5.6-13.2a13.64,13.64,0,0,1,17.43,6.12c.22.42.23.63-.23.89q-2.79,1.56-5.54,3.22c-.47.28-.63.18-.86-.26-1.53-2.91-4-3.79-7-3.19a2.48,2.48,0,0,0-2.17,2,2.65,2.65,0,0,0,1.35,2.68c.18.12.38.22.57.33a35.44,35.44,0,0,0,5.77,2.08,33.07,33.07,0,0,1,4.16,1.66,8.82,8.82,0,0,1,5.24,8.29,9.19,9.19,0,0,1-3.43,7.81,13.16,13.16,0,0,1-6.18,2.65A20,20,0,0,1,162.22,169.5Z"/><path class="cls-2" d="M97.6,175c.53-.09.46.25.29.67a50.84,50.84,0,0,1-3.16,6.25c-.52.94-1.06,1.88-1.6,2.81-.11.21-.19.47-.52.42a16.25,16.25,0,0,0-6.12.69c-1,.22-.81.24-.79-.65a3.35,3.35,0,0,0-.64-2c-.27-.41-.23-.67.23-.94,1.21-.73,2.39-1.51,3.57-2.29s1.38-1.57.4-2.76c-.13-.15-.42-.3,0-.44A42.39,42.39,0,0,1,97.6,175Z"/><path class="cls-2" d="M82.09,176.61c.14.47-.22.56-.56.69a77.38,77.38,0,0,0-8.12,3.34,26.68,26.68,0,0,0-2.76,1.55.75.75,0,0,1-1.06-.07,22.66,22.66,0,0,0-1.79-1.45c-.46-.33-.48-.52,0-.83a36.82,36.82,0,0,1,4.08-2,76.9,76.9,0,0,1,8.79-3.43c1.11-.33,1.12-.32,1.25.82C82,175.66,82,176.13,82.09,176.61Z"/><path class="cls-2" d="M93.5,154.29a8.74,8.74,0,0,1-1.89,1.7.55.55,0,0,1-.22.09A3.59,3.59,0,0,1,91,155c-.08-.22.07-.33.26-.36A10.23,10.23,0,0,1,93.5,154.29Z"/><path class="cls-2" d="M81.39,189.06l.89-.19c-.26.54-.58.37-.85.37Z"/><path class="cls-1" d="M374.64,143.58c1.31,4.08,2.58,8.08,3.86,12.08.08.24.17.47-.26.46h-7.55C370.77,155.57,374.18,144.77,374.64,143.58Z"/><path class="cls-1" d="M317.07,146.28c0-1.28,0-2.56,0-3.84,0-.41.11-.52.51-.51,1.53,0,3.05,0,4.57,0a4.24,4.24,0,0,1,4.11,5.35A4,4,0,0,1,322,150.7c-1.45,0-2.91,0-4.36,0-.42,0-.57-.09-.56-.54C317.09,148.88,317.07,147.58,317.07,146.28Z"/></svg>