<svg xmlns="http://www.w3.org/2000/svg" viewBox="0 0 402.4 352.9"><defs><style>.cls-1{fill:#f1972d;}.cls-2{fill:#0d3747;}.cls-3{fill:none;stroke:#0d3747;stroke-linecap:round;stroke-linejoin:round;stroke-width:7.49px;}.cls-4{fill:#f7bf2b;}.cls-5{fill:#fbd427;}.cls-6{fill:#ffb54a;}.cls-7{fill:#fff;}</style></defs><title>Asset 4</title><g id="Layer_2" data-name="Layer 2"><g id="Layer_1-2" data-name="Layer 1"><path class="cls-1" d="M6.74,349.54a3.37,3.37,0,0,1-3.36-3.36V109.32A3.36,3.36,0,0,1,6.73,106H395.67a3.36,3.36,0,0,1,3.36,3.37V346.18a3.37,3.37,0,0,1-3.36,3.36Z"/><path class="cls-2" d="M395.67,109.32V346.18H6.74V109.32H395.67m0-6.73H6.74A6.73,6.73,0,0,0,0,109.32H0V346.18a6.74,6.74,0,0,0,6.73,6.72H395.67a6.72,6.72,0,0,0,6.72-6.72h0V109.32a6.72,6.72,0,0,0-6.71-6.73Z"/><line class="cls-3" x1="97.56" y1="230.31" x2="304.82" y2="230.31"/><path class="cls-4" d="M6.74,349.54a3.37,3.37,0,0,1-3.36-3.36V109.32a3.35,3.35,0,0,1,5.29-2.74L201.2,243.8,393.67,106.58a3.37,3.37,0,0,1,5.32,2.75V346.18a3.37,3.37,0,0,1-3.36,3.36Z"/><path class="cls-2" d="M395.67,109.32V346.18H6.74V109.32L201.2,247.93,395.67,109.32m0-6.73a6.69,6.69,0,0,0-3.91,1.25L201.2,239.68,10.67,103.84A6.74,6.74,0,0,0,0,109.32V346.18a6.74,6.74,0,0,0,6.73,6.72H395.67a6.72,6.72,0,0,0,6.72-6.72h0V109.32A6.72,6.72,0,0,0,395.67,102.59Z"/><path class="cls-5" d="M6.74,349.54A3.36,3.36,0,0,1,5,343.3L199.45,224.88a3.3,3.3,0,0,1,3.5,0L397.42,343.3a3.36,3.36,0,0,1-1.75,6.24Z"/><path class="cls-2" d="M201.2,227.75,395.67,346.18H6.74L201.2,227.75m0-6.73a6.8,6.8,0,0,0-3.5,1L3.24,340.43a6.72,6.72,0,0,0,3.5,12.47H395.67a6.73,6.73,0,0,0,3.5-12.47L204.67,222a6.74,6.74,0,0,0-3.5-1Z"/><path class="cls-5" d="M395.67,104.65a3.37,3.37,0,0,1,2,6.11L203.16,249.36a3.33,3.33,0,0,1-3.9,0L4.74,110.75a3.37,3.37,0,0,1,2-6.1Z"/><path class="cls-2" d="M201.21,246.65,6.74,108H395.67L201.21,246.65m0,6.73a6.73,6.73,0,0,0,3.9-1.25L399.57,113.49a6.73,6.73,0,0,0-3.9-12.21H6.74a6.73,6.73,0,0,0-3.9,12.21L197.3,252.1a6.76,6.76,0,0,0,3.91,1.25Z"/><ellipse class="cls-6" cx="199.87" cy="77.1" rx="74.05" ry="73.5"/><path class="cls-2" d="M199.87,154.17c-42.89,0-77.66-34.51-77.66-77.09S157,0,199.87,0s77.66,34.51,77.66,77.08v0C277.48,119.65,242.73,154.12,199.87,154.17Zm0-147c-38.91,0-70.46,31.31-70.46,69.94S161,147,199.87,147s70.45-31.31,70.45-69.93S238.76,7.2,199.87,7.16Z"/><polygon class="cls-7" points="172.57 110.66 172.57 82.42 183.16 77.08 172.57 71.74 172.57 43.51 239.17 77.08 172.57 110.66"/></g></g></svg>