<svg id="Flat" height="512" viewBox="0 0 512 512" width="512" xmlns="http://www.w3.org/2000/svg"><path d="m80 56h352v432h-352z" fill="#d48031"/><g fill="#dcdee0"><path d="m112 120h32v64h-32z"/><path d="m176 120h32v64h-32z"/><path d="m240 120h32v64h-32z"/><path d="m304 120h32v64h-32z"/><path d="m368 120h32v64h-32z"/><path d="m240 248h32v64h-32z"/><path d="m176 248h32v64h-32z"/><path d="m112 248h32v64h-32z"/><path d="m240 376h32v64h-32z"/><path d="m176 376h32v64h-32z"/><path d="m112 376h32v64h-32z"/></g><path d="m64 56h384v32h-384z" fill="#4d3329"/><path d="m432 224h-352a8 8 0 0 1 0-16h352a8 8 0 0 1 0 16z" fill="#4d3329"/><path d="m432 352h-352a8 8 0 0 1 0-16h352a8 8 0 0 1 0 16z" fill="#4d3329"/><path d="m104 24h48v32h-48z" fill="#7a4830"/><path d="m304 456h96v32h-96z" fill="#633b27"/><path d="m304 424h96v32h-96z" fill="#7a4830"/><path d="m304 392h96v32h-96z" fill="#96593a"/><path d="m304 248h96v144h-96z" fill="#ad6643"/><path d="m320 264h64v128h-64z" fill="#f7cca9"/><path d="m344 248h16v144h-16z" fill="#ad6643"/><path d="m104 112v80h48v-80zm32 64h-16v-48h16z" fill="#7a4830"/><path d="m168 112v80h48v-80zm32 64h-16v-48h16z" fill="#7a4830"/><path d="m232 112v80h48v-80zm32 64h-16v-48h16z" fill="#7a4830"/><path d="m104 240v80h48v-80zm32 64h-16v-48h16z" fill="#7a4830"/><path d="m168 240v80h48v-80zm32 64h-16v-48h16z" fill="#7a4830"/><path d="m232 240v80h48v-80zm32 64h-16v-48h16z" fill="#7a4830"/><path d="m296 112v80h48v-80zm32 64h-16v-48h16z" fill="#7a4830"/><path d="m360 112v80h48v-80zm32 64h-16v-48h16z" fill="#7a4830"/><path d="m104 368v80h48v-80zm32 64h-16v-48h16z" fill="#7a4830"/><path d="m168 368v80h48v-80zm32 64h-16v-48h16z" fill="#7a4830"/><path d="m232 368v80h48v-80zm32 64h-16v-48h16z" fill="#7a4830"/><path d="m312 384a8 8 0 0 0 -16 0v104h16z" fill="#4d3329"/><path d="m408 384a8 8 0 0 0 -16 0v104h16z" fill="#4d3329"/></svg>