<svg id="Capa_1" enable-background="new 0 0 512 512" height="512" viewBox="0 0 512 512" width="512" xmlns="http://www.w3.org/2000/svg"><path d="m130.972 10h304.271v416.028h-304.271z" fill="#ffa868"/><path d="m130.972 10h-16.23c-20.979 0-37.986 17.007-37.986 37.986 0 .043.003.085.003.128v415.896c0-10.49 4.25-19.99 11.12-26.86s16.37-11.12 26.86-11.12h16.23l.002-.002v-416.028z" fill="#ff5859"/><path d="m435.24 426.028h-304.268-16.23c-20.979 0-37.986 17.007-37.986 37.986 0 20.979 17.007 37.986 37.986 37.986h16.23 304.268c-20.979 0-37.986-17.007-37.986-37.986 0-20.979 17.007-37.986 37.986-37.986z" fill="#f9f5f3"/><path d="m435.24 426.03v75.97c-20.98 0-37.99-17.01-37.99-37.99 0-10.49 4.25-19.99 11.13-26.86 6.87-6.87 16.37-11.12 26.86-11.12z" fill="#ff5859"/><path d="m198.589 82.087h167.383v167.383h-167.383z" fill="#daecff"/><path d="m445.243 10c0-5.523-4.477-10-10-10h-320.5c-26.46 0-47.986 21.526-47.986 47.986 0 .091.001.181.003.272v415.622c0 .045-.003.09-.003.135 0 26.459 21.526 47.986 47.986 47.986h320.497c5.523 0 10-4.477 10-10zm-20.003 480.056c-8.691-3.426-15.52-11.208-17.401-20.371-1.727-8.414.539-17.295 6.125-23.826 3.026-3.539 6.929-6.307 11.276-7.977 0 0 .077 52.204 0 52.174zm-310.497-470.056h6.229v317.312c0 5.523 4.477 10 10 10s10-4.477 10-10v-317.312h284.271v396.028h-294.271-16.229c-9.989 0-19.875 3.143-27.982 8.985v-376.899c0-.038 0-.076 0-.114l-.003-.104c.048-15.389 12.583-27.896 27.985-27.896zm0 472c-15.418 0-27.962-12.531-27.985-27.944.059-15.238 12.678-28.026 27.982-28.026l281.514-.002c-4.663 6.463-7.608 13.944-8.609 21.883-1.528 11.971 1.579 24.294 8.635 34.089z"/><path d="m121.74 385.59c2.095 5.028 8.019 7.498 13.06 5.41 5.034-2.085 7.487-8.031 5.41-13.06-2.08-5.038-8.03-7.487-13.06-5.41-5.052 2.086-7.477 8.018-5.41 13.06z"/><path d="m198.589 259.47h167.384c5.523 0 10-4.477 10-10v-167.384c0-5.523-4.477-10-10-10h-167.384c-5.523 0-10 4.477-10 10v167.384c0 5.523 4.477 10 10 10zm10-167.384h147.384v147.384h-147.384z"/><path d="m315.678 175.59c-.011-.026-.021-.052-.032-.078l-23.755-58.296c-1.53-3.754-5.174-6.213-9.228-6.227-.011 0-.022 0-.033 0-4.04 0-7.685 2.432-9.235 6.165l-24.231 58.346c-.013.031-.026.063-.039.094l-12.932 31.139c-2.118 5.101.299 10.953 5.4 13.071 5.1 2.116 10.952-.3 13.071-5.4l10.37-24.971h34.687l10.15 24.909c1.581 3.879 5.319 6.229 9.264 6.229 1.257 0 2.535-.238 3.77-.742 5.115-2.084 7.571-7.92 5.487-13.034zm-42.338-6.158 9.202-22.159 9.029 22.159z"/><path d="m323.51 294h-88.347c-5.523 0-10 4.477-10 10s4.477 10 10 10h88.347c5.523 0 10-4.477 10-10s-4.477-10-10-10z"/><path d="m323.51 338.53h-88.347c-5.523 0-10 4.477-10 10s4.477 10 10 10h88.347c5.523 0 10-4.477 10-10s-4.477-10-10-10z"/></svg>